<?xml version="1.0" standalone="no"?>
<!DOCTYPE svg PUBLIC "-//W3C//DTD SVG 20010904//EN"
 "http://www.w3.org/TR/2001/REC-SVG-20010904/DTD/svg10.dtd">
<svg version="1.0" xmlns="http://www.w3.org/2000/svg"
 width="234.000000pt" height="215.000000pt" viewBox="0 0 234.000000 215.000000"
 preserveAspectRatio="xMidYMid meet">

<g transform="translate(0.000000,215.000000) scale(0.100000,-0.100000)"
fill="#000000" stroke="none">
<path d="M1143 1918 c-6 -7 -59 -122 -119 -256 l-108 -243 -64 -51 c-67 -52
-93 -95 -92 -151 1 -18 -5 -51 -12 -75 -9 -31 -9 -48 -2 -60 9 -13 1 -40 -36
-122 -259 -575 -311 -694 -306 -706 5 -12 128 -14 761 -14 746 0 755 0 755 20
0 11 -31 90 -70 175 l-69 156 20 20 c17 17 20 30 16 63 -8 70 -106 215 -189
278 -9 7 -61 114 -117 237 l-100 225 21 34 c16 27 19 42 13 75 -4 23 -10 73
-14 112 -5 61 -9 71 -31 82 -14 7 -45 13 -70 13 -25 0 -50 4 -57 8 -6 4 -29
48 -51 97 -38 88 -58 109 -79 83z m7 -215 c0 -21 -95 -223 -107 -228 -8 -3
-13 -1 -11 3 57 144 118 259 118 225z m75 -23 c26 -51 35 -80 25 -80 -5 0 -17
17 -26 38 l-16 37 -10 -28 c-7 -18 -6 -37 1 -57 5 -17 7 -30 3 -30 -10 0 -56
110 -49 117 4 3 10 -4 15 -16 7 -21 9 -20 22 13 7 20 15 36 17 36 1 0 9 -13
18 -30z m15 -189 c0 -10 7 -21 15 -25 8 -3 15 -12 15 -19 0 -8 -7 -20 -15 -27
-12 -10 -18 -10 -30 0 -9 7 -13 15 -10 18 9 9 -16 31 -30 26 -11 -4 -11 -11
-3 -29 13 -30 4 -55 -20 -55 -20 0 -52 56 -45 78 3 6 16 12 29 12 13 0 24 5
24 11 0 5 4 8 9 5 5 -3 11 1 15 9 8 22 46 19 46 -4z m-123 -75 c19 -40 12 -66
-17 -66 -11 0 -20 -5 -20 -11 0 -6 -7 -9 -15 -5 -8 3 -15 1 -15 -4 0 -23 -21
-7 -40 30 -25 49 -25 54 1 47 12 -3 18 -3 15 0 -7 7 43 41 62 42 7 1 20 -14
29 -33z m274 -106 c24 -51 26 -60 10 -46 -22 20 -65 119 -50 114 6 -2 24 -32
40 -68z m-71 10 c13 -27 21 -53 17 -56 -4 -4 -11 5 -16 20 -6 14 -18 40 -26
56 -9 17 -12 30 -7 30 5 0 19 -22 32 -50z m-57 -53 c30 -26 37 -39 37 -70 0
-41 -3 -43 -39 -23 -14 8 -30 12 -37 9 -7 -2 -22 5 -33 16 -18 18 -20 25 -10
43 10 18 9 20 -5 15 -17 -7 -20 1 -10 27 10 27 57 19 97 -17z m-126 -6 c0 -11
-5 -18 -9 -15 -4 3 -5 11 -1 19 7 21 12 19 10 -4z m266 -21 c9 -11 14 -20 10
-20 -3 0 4 -9 16 -19 14 -12 20 -25 15 -32 -4 -8 -3 -9 4 -5 7 4 12 3 12 -3 0
-5 16 -45 36 -88 100 -216 165 -366 160 -371 -3 -3 -8 -3 -10 -1 -9 9 -156
348 -156 358 0 8 -6 9 -18 2 -10 -5 -52 -6 -100 -2 -45 4 -82 5 -82 4 0 -2 9
-12 20 -23 16 -16 20 -17 20 -5 0 24 20 17 21 -7 1 -19 2 -19 6 -5 3 11 11 16
19 13 8 -3 14 0 14 6 0 6 3 9 6 5 9 -8 -15 -75 -34 -93 -15 -15 -16 -15 -23 2
-7 17 -8 17 -8 2 -1 -22 -19 -23 -72 -2 -29 12 -37 19 -27 25 10 7 8 9 -6 9
-15 0 -16 3 -6 15 11 13 10 14 -4 9 -19 -7 -21 6 -3 25 10 11 10 13 0 7 -8 -4
-13 -2 -14 6 0 10 -2 10 -6 0 -2 -6 -8 -10 -13 -7 -4 3 -7 -3 -6 -13 0 -10 -6
-17 -17 -17 -10 0 -23 -8 -28 -18 -6 -9 -15 -17 -21 -17 -7 0 -7 4 -1 13 12
15 24 47 18 47 -5 0 -35 -56 -35 -65 0 -3 16 -3 35 1 21 4 35 2 35 -4 0 -5 12
-12 28 -15 15 -3 50 -13 77 -23 60 -21 78 -27 85 -28 3 -1 11 -5 19 -10 10 -6
12 -5 7 2 -10 17 5 15 25 -4 44 -39 -32 -60 -106 -30 -43 18 -46 12 -5 -9 16
-8 51 -15 77 -16 36 0 43 -3 28 -9 -16 -7 -13 -9 16 -9 41 -1 99 -19 99 -31 0
-41 -60 -80 -144 -94 -64 -12 -179 -6 -159 7 6 4 19 4 30 1 16 -6 17 -6 1 7
-12 10 -14 20 -7 37 10 27 16 27 54 2 17 -11 41 -20 55 -19 l25 0 -25 10 c-23
10 -23 11 25 34 28 13 43 24 35 24 -8 0 -26 -6 -40 -14 -33 -19 -69 -19 -76 0
-4 8 -15 15 -25 15 -10 0 -19 4 -19 9 0 12 -73 22 -80 11 -3 -5 -32 -16 -65
-25 -33 -8 -72 -24 -87 -35 -16 -12 -43 -20 -65 -20 -25 0 -33 -3 -25 -9 9 -5
1 -10 -25 -15 -21 -3 -52 -9 -69 -12 -24 -4 -37 0 -62 21 -42 36 -40 47 8 42
22 -2 41 0 42 5 2 5 34 20 72 34 l69 25 26 -23 c14 -12 20 -16 14 -8 -20 22
-15 30 13 20 35 -14 41 -12 18 4 -18 14 -18 15 8 21 15 4 29 13 32 22 5 11 18
13 63 9 32 -2 47 -2 33 0 -41 9 -51 28 -10 20 27 -4 31 -3 18 5 -15 8 -16 13
-5 24 10 11 15 11 35 -1 12 -8 22 -12 22 -9 0 3 -14 14 -31 24 -28 17 -34 18
-53 5 -19 -12 -25 -12 -44 2 -31 21 -25 43 43 163 14 25 65 59 65 44 0 -4 5
-1 10 7 9 13 10 13 10 0 0 -13 2 -13 9 -1 8 12 14 13 36 3 14 -7 35 -12 47
-12 18 0 20 4 14 44 -5 34 -4 45 9 49 10 4 15 0 16 -11 0 -13 3 -11 9 6 11 27
21 28 43 2z m-570 -254 c-48 -108 -93 -196 -100 -196 -8 0 -4 17 12 53 134
301 161 354 171 344 3 -2 -35 -93 -83 -201z m651 -45 c-6 -6 -24 19 -24 34 1
6 7 1 15 -9 8 -11 12 -22 9 -25z m-278 -196 c-7 -18 -28 -19 -44 -3 -15 15
-15 35 0 52 10 11 16 9 31 -11 10 -13 16 -30 13 -38z m419 -105 c36 -79 65
-145 65 -147 0 -2 -228 -3 -506 -3 l-505 0 -30 -65 c-16 -35 -29 -67 -29 -70
0 -3 266 -5 590 -5 325 0 590 2 590 4 0 3 -20 48 -45 102 -25 53 -45 104 -45
113 1 19 40 -55 86 -161 l33 -78 -619 0 c-341 0 -620 2 -620 4 0 2 13 33 30
69 16 37 30 71 30 77 0 5 -14 10 -31 10 -21 0 -29 4 -26 13 38 92 72 156 79
149 5 -5 -5 -38 -22 -75 -16 -37 -30 -68 -30 -71 0 -2 236 -5 525 -5 289 -1
525 0 525 2 0 2 -27 64 -60 137 -53 118 -70 163 -55 149 2 -3 34 -70 70 -149z
m-909 91 c-12 -19 -24 -12 -19 10 4 13 9 17 15 11 6 -6 7 -15 4 -21z m39 -32
c0 -8 -8 -13 -17 -13 -10 1 -18 -1 -18 -5 0 -3 -25 -6 -55 -7 -39 0 -55 4 -55
13 0 7 6 14 13 14 6 1 19 2 27 3 8 1 21 -3 27 -8 8 -5 21 -3 35 7 26 18 43 17
43 -4z m751 -116 c-7 -17 -36 -17 -37 0 0 6 -2 20 -4 30 -2 9 1 17 5 17 5 0
11 -12 13 -27 4 -25 4 -24 6 7 2 33 3 34 12 11 5 -14 7 -31 5 -38z m43 25 l-1
-33 -8 30 -8 30 -1 -30 c-2 -29 -3 -29 -12 -7 -10 27 -4 42 17 42 9 0 14 -10
13 -32z m-159 -19 c0 -19 -5 -29 -15 -29 -8 0 -15 5 -15 11 0 5 5 7 10 4 6 -4
10 5 9 22 -1 17 -3 21 -6 11 -5 -21 -23 -24 -23 -4 0 15 20 26 33 19 4 -2 7
-17 7 -34z m43 33 c3 7 6 -5 6 -26 1 -38 0 -39 -15 -20 -8 10 -12 13 -8 5 5
-9 3 -12 -4 -7 -7 4 -12 19 -12 33 0 21 3 23 14 14 11 -9 15 -9 19 1z m-167
-40 c1 -20 0 -31 -3 -24 -3 6 -9 12 -14 12 -6 0 -7 -5 -3 -12 4 -7 3 -8 -4 -4
-19 11 -14 54 6 59 9 3 17 5 17 6 0 0 1 -16 1 -37z m46 -7 c-15 -31 -32 -24
-32 13 0 21 2 24 10 12 8 -13 10 -12 10 5 0 14 3 16 12 7 9 -9 9 -18 0 -37z
m24 -23 c-12 -11 -16 6 -9 39 l8 34 3 -33 c2 -19 1 -36 -2 -40z m-142 43 c-4
-9 0 -15 7 -15 11 0 11 -3 -1 -10 -13 -9 -13 -11 0 -20 13 -8 12 -10 -2 -10
-14 0 -18 8 -18 35 0 19 4 35 10 35 5 0 7 -7 4 -15z m-30 -11 c11 -28 6 -40
-16 -41 -21 -2 -22 -1 -5 11 18 14 24 32 7 21 -5 -3 -10 -1 -10 4 0 6 -4 11
-10 11 -5 0 -10 -15 -10 -32 0 -24 -3 -29 -9 -18 -6 8 -7 18 -4 22 2 5 -1 15
-7 23 -11 13 -7 15 23 15 23 0 37 -6 41 -16z m-441 -161 c7 -37 -3 -50 -20
-28 -13 18 -13 18 -13 0 0 -10 -3 -16 -6 -12 -10 10 7 67 21 67 7 0 15 -12 18
-27z m43 11 c-3 -9 -6 -24 -6 -35 0 -26 -16 -24 -23 2 -7 28 1 49 20 49 10 0
13 -6 9 -16z m124 -19 c-6 -16 -5 -25 3 -29 7 -2 4 -5 -5 -5 -12 -1 -18 6 -18
19 0 11 -7 20 -15 20 -8 0 -15 -8 -15 -18 0 -14 -8 -19 -35 -20 -29 -1 -35 2
-35 18 0 12 7 20 18 20 14 0 15 2 2 10 -12 8 -11 10 8 10 14 0 22 -6 23 -17 1
-16 2 -16 6 -1 4 15 47 29 65 21 4 -2 3 -14 -2 -28z m98 12 c8 -7 12 -5 12 7
0 9 5 16 11 16 7 0 9 -9 5 -22 -3 -13 -6 -29 -6 -35 0 -20 -20 -15 -21 5 -1
16 -2 16 -6 0 -5 -21 -53 -25 -53 -5 0 8 -4 7 -10 -3 -8 -12 -10 -11 -10 7 0
41 10 53 39 47 14 -4 32 -11 39 -17z m112 4 c0 -11 5 -23 10 -26 6 -3 10 0 10
8 0 16 56 40 72 31 5 -3 4 -12 -3 -20 -6 -7 -9 -21 -5 -29 3 -9 0 -15 -9 -15
-8 0 -15 9 -15 20 0 11 -5 20 -11 20 -6 0 -13 -9 -16 -20 -6 -22 -39 -27 -46
-7 -3 9 -9 9 -26 -1 -21 -12 -22 -12 -10 10 26 50 49 64 49 29z m238 -19 c2
-18 -1 -32 -7 -32 -6 0 -11 5 -11 10 0 6 -7 10 -15 10 -8 0 -15 -5 -15 -12 0
-6 -3 -9 -6 -6 -3 4 0 16 6 28 10 18 14 20 22 9 6 -10 7 -7 3 10 -5 17 -4 22
6 19 8 -3 15 -19 17 -36z m178 22 c-5 -13 -3 -14 6 -7 15 12 117 12 136 0 7
-5 12 -3 13 5 1 7 5 0 9 -17 7 -29 8 -29 15 -7 10 32 27 27 19 -5 -10 -40 -13
-43 -37 -42 -21 0 -21 1 -2 9 17 7 17 9 3 9 -10 1 -19 9 -19 19 -1 16 -2 16
-6 0 -2 -10 -9 -18 -14 -18 -6 0 -7 9 -4 21 5 15 4 19 -4 15 -6 -4 -11 -14
-11 -22 0 -8 -5 -14 -11 -14 -6 0 -9 9 -6 20 3 11 1 20 -4 20 -5 0 -9 -9 -9
-20 0 -11 -4 -20 -10 -20 -5 0 -10 6 -10 14 0 10 -7 12 -22 8 -21 -5 -21 -6
-2 -12 10 -4 -18 -8 -63 -8 -66 0 -83 3 -83 14 0 8 7 17 16 21 13 5 13 8 2 15
-9 7 -5 8 14 4 14 -3 37 -2 50 3 34 14 41 13 34 -5z m-281 -4 c-18 -8 -18 -9
-2 -9 29 -1 17 -36 -13 -38 -23 -2 -23 -2 -5 6 17 8 18 10 3 10 -18 1 -24 21
-11 34 3 4 16 7 27 6 21 0 21 -1 1 -9z m165 0 c0 -5 -7 -10 -15 -10 -18 0 -20
-26 -2 -33 6 -3 2 -6 -10 -6 -26 -1 -32 26 -11 47 15 15 38 16 38 2z"/>
<path d="M1050 1398 c0 -9 7 -22 17 -29 15 -13 15 -12 3 11 -17 34 -20 36 -20
18z"/>
<path d="M1194 1275 c11 -8 22 -12 25 -9 6 6 -19 24 -34 24 -5 -1 -1 -7 9 -15z"/>
<path d="M1247 1213 c-11 -11 -8 -23 6 -23 8 0 14 7 14 15 0 16 -9 19 -20 8z"/>
<path d="M1380 1165 c-20 -24 1 -40 37 -27 l28 10 -29 1 c-21 1 -27 5 -22 16
7 19 2 19 -14 0z"/>
<path d="M1270 1128 c0 -6 -7 -7 -16 -4 -8 3 -12 2 -9 -3 6 -11 65 -11 65 -1
0 4 -9 10 -20 13 -11 3 -20 1 -20 -5z"/>
<path d="M1135 1060 c-3 -6 1 -7 9 -4 18 7 21 14 7 14 -6 0 -13 -4 -16 -10z"/>
<path d="M1388 873 c7 -3 16 -2 19 1 4 3 -2 6 -13 5 -11 0 -14 -3 -6 -6z"/>
<path d="M780 400 c0 -5 5 -10 10 -10 6 0 10 5 10 10 0 6 -4 10 -10 10 -5 0
-10 -4 -10 -10z"/>
<path d="M931 424 c0 -11 3 -14 6 -6 3 7 2 16 -1 19 -3 4 -6 -2 -5 -13z"/>
<path d="M950 399 c0 -5 5 -7 10 -4 6 3 10 8 10 11 0 2 -4 4 -10 4 -5 0 -10
-5 -10 -11z"/>
<path d="M1476 405 c-3 -8 -1 -15 4 -15 6 0 10 7 10 15 0 8 -2 15 -4 15 -2 0
-6 -7 -10 -15z"/>
<path d="M1420 399 c0 -5 5 -7 10 -4 6 3 10 8 10 11 0 2 -4 4 -10 4 -5 0 -10
-5 -10 -11z"/>
</g>
</svg>
