<svg version="1.1" id="Layer_1" xmlns="http://www.w3.org/2000/svg" xmlns:xlink="http://www.w3.org/1999/xlink" x="0px" y="0px"
	 width="100%" viewBox="0 0 400 400" enable-background="new 0 0 400 400" xml:space="preserve">
<path fill="#000000" opacity="1.000000" stroke="none" 
	d="
M260.000000,401.000000 
	C173.333328,401.000000 87.166664,401.000000 1.000000,401.000000 
	C1.000000,267.666656 1.000000,134.333328 1.000000,1.000000 
	C134.333328,1.000000 267.666656,1.000000 401.000000,1.000000 
	C401.000000,134.333328 401.000000,267.666656 401.000000,401.000000 
	C354.166656,401.000000 307.333344,401.000000 260.000000,401.000000 
M84.155106,272.642792 
	C84.756058,272.710785 85.357002,272.778778 86.612411,273.003784 
	C87.057472,273.056793 87.502525,273.109802 88.272598,273.767395 
	C89.174675,273.819244 90.076752,273.871094 91.605469,274.375854 
	C97.710846,275.974243 103.816223,277.572601 110.313164,279.839233 
	C111.295479,279.977814 112.306114,280.012085 113.256050,280.269928 
	C164.596619,294.206879 215.954300,308.082367 267.223816,322.276215 
	C271.125793,323.356445 271.569946,322.378174 272.387634,319.222076 
	C277.167297,300.773712 282.186920,282.387726 287.042786,263.958862 
	C289.404602,254.995377 291.586792,245.984573 294.023285,236.236679 
	C294.733948,233.508972 295.444641,230.781250 296.804932,227.636215 
	C297.822205,223.577377 298.839478,219.518555 300.013733,214.738602 
	C301.337128,209.490524 302.660522,204.242447 304.590271,198.517456 
	C305.980621,193.342789 307.370972,188.168121 308.993164,182.208542 
	C309.710052,178.122681 310.426941,174.036819 311.268402,169.247452 
	C312.125763,166.829880 312.983093,164.412292 314.189270,161.297134 
	C315.499664,156.217911 316.810059,151.138687 318.799164,145.687561 
	C319.799194,141.785904 320.799225,137.884262 321.962006,133.151367 
	C321.400970,132.093781 321.044098,130.317551 320.246918,130.091049 
	C313.182678,128.083847 306.040375,126.351295 298.841644,124.570305 
	C298.841644,124.570305 298.732513,124.326492 298.012909,124.009834 
	C292.359711,122.629692 286.706482,121.249550 280.721741,119.196640 
	C278.816132,118.842545 276.910492,118.488457 274.306366,117.781548 
	C268.869598,116.236008 263.432800,114.690460 257.208069,112.996178 
	C251.821350,111.629089 246.434616,110.262001 240.768829,108.248131 
	C239.609482,108.126106 238.450119,108.004082 237.067581,107.352448 
	C236.716705,107.292130 236.365845,107.231812 235.215195,107.025764 
	C201.714035,97.913513 168.190903,88.879982 134.749573,79.553238 
	C131.781036,78.725327 130.660217,79.657661 130.098679,81.774803 
	C125.497574,99.122253 121.038834,116.507454 116.031067,134.433167 
	C115.030182,138.958237 114.029297,143.483307 112.491791,148.556854 
	C111.370911,153.081131 110.250031,157.605423 109.397202,162.535904 
	C109.397202,162.535904 109.832779,162.318832 109.765991,162.349274 
	C109.765991,162.349274 109.802567,162.412659 109.042084,162.736191 
	C108.993042,163.007263 108.943993,163.278351 108.314552,163.926926 
	C107.342941,167.639359 106.345757,171.345322 105.404663,175.065475 
	C102.889313,185.008682 100.398048,194.958008 97.950752,204.926727 
	C97.950752,204.926727 97.928085,204.873535 97.414154,205.048264 
	C97.321556,205.358948 97.228966,205.669632 96.979507,206.710388 
	C93.746124,218.729004 90.512749,230.747620 86.990517,243.460709 
	C84.932922,251.639465 83.256592,259.941772 80.662643,267.946716 
	C79.291679,272.177582 81.244202,272.009369 83.912712,271.999756 
	C83.912712,271.999756 83.881668,272.072449 84.155106,272.642792 
z"/>
<path fill="#91A0AF" opacity="1.000000" stroke="none" 
	d="
M293.850311,236.995209 
	C291.586792,245.984573 289.404602,254.995377 287.042786,263.958862 
	C282.186920,282.387726 277.167297,300.773712 272.387634,319.222076 
	C271.569946,322.378174 271.125793,323.356445 267.223816,322.276215 
	C215.954300,308.082367 164.596619,294.206879 113.256050,280.269928 
	C112.306114,280.012085 111.295479,279.977814 110.311935,279.206299 
	C113.058701,277.150299 115.660362,275.049713 118.579529,274.419220 
	C132.618286,271.387207 146.738281,268.729156 160.838135,265.982941 
	C173.139038,263.587067 185.475540,261.367462 197.749222,258.841095 
	C204.385010,257.475220 210.865311,255.328644 217.517578,254.074081 
	C226.916565,252.301544 236.475952,251.355865 245.846466,249.461670 
	C258.450378,246.913879 270.966583,243.908340 283.454987,240.833481 
	C285.892334,240.233353 288.030853,238.419357 291.301300,236.617584 
	C291.253082,236.610443 292.551697,236.802826 293.850311,236.995209 
z"/>
<path fill="#FEFEFE" opacity="1.000000" stroke="none" 
	d="
M116.536865,133.881195 
	C121.038834,116.507454 125.497574,99.122253 130.098679,81.774803 
	C130.660217,79.657661 131.781036,78.725327 134.749573,79.553238 
	C168.190903,88.879982 201.714035,97.913513 235.777618,107.295944 
	C236.656937,107.671432 236.973862,107.776741 237.290771,107.882050 
	C238.450119,108.004082 239.609482,108.126106 240.726120,108.914436 
	C234.561920,111.634506 228.533432,114.052307 222.294479,115.646286 
	C215.123917,117.478279 207.744766,118.476517 200.495636,120.021790 
	C184.203430,123.494759 167.970322,127.253387 151.645355,130.561127 
	C141.155243,132.686600 130.544540,134.217072 119.704269,135.805237 
	C118.459389,135.024551 117.498123,134.452866 116.536865,133.881195 
z"/>
<path fill="#96A6B4" opacity="1.000000" stroke="none" 
	d="
M293.936798,236.615936 
	C292.551697,236.802826 291.253082,236.610443 291.301300,236.617584 
	C288.030853,238.419357 285.892334,240.233353 283.454987,240.833481 
	C270.966583,243.908340 258.450378,246.913879 245.846466,249.461670 
	C236.475952,251.355865 226.916565,252.301544 217.517578,254.074081 
	C210.865311,255.328644 204.385010,257.475220 197.749222,258.841095 
	C185.475540,261.367462 173.139038,263.587067 160.838135,265.982941 
	C146.738281,268.729156 132.618286,271.387207 118.579529,274.419220 
	C115.660362,275.049713 113.058701,277.150299 110.116158,278.872192 
	C103.816223,277.572601 97.710846,275.974243 91.081467,273.874420 
	C88.112968,271.427429 88.531845,269.680969 91.141487,268.482452 
	C93.992233,267.173218 96.886185,265.733551 99.918320,265.086090 
	C108.786865,263.192413 117.749023,261.742218 126.644211,259.966492 
	C132.611252,258.775299 138.510986,257.250244 144.468964,256.009613 
	C153.676941,254.092300 162.912613,252.308441 172.129868,250.435150 
	C184.254044,247.971100 196.400085,245.602783 208.476028,242.920120 
	C212.415237,242.045029 216.164520,240.315048 220.372009,238.980682 
	C221.485229,238.980042 222.227066,238.974777 223.279602,239.124542 
	C224.756332,239.672684 225.991699,240.537918 227.076675,240.378647 
	C232.284149,239.614212 237.482285,238.717285 242.625916,237.600937 
	C254.860214,234.945633 267.000916,231.808258 279.304535,229.546371 
	C284.792694,228.537430 290.269867,225.238922 296.155334,228.053543 
	C295.444641,230.781250 294.733948,233.508972 293.936798,236.615936 
z"/>
<path fill="#E2E6EC" opacity="1.000000" stroke="none" 
	d="
M109.832779,162.318832 
	C109.832779,162.318832 109.397202,162.535904 109.669724,162.300659 
	C110.970345,160.383652 111.998436,158.701889 113.386543,156.975433 
	C117.049095,155.590973 120.264565,153.929062 123.679718,153.005844 
	C126.828705,152.154587 130.239075,152.322159 133.453613,151.653152 
	C158.317627,146.478561 183.153931,141.170868 208.015839,135.986008 
	C221.083420,133.260773 234.341843,131.292511 247.225327,127.889290 
	C258.994873,124.780334 270.770569,122.719246 282.879761,123.141510 
	C286.282898,123.260193 289.628937,125.014946 293.001617,126.422462 
	C291.969116,128.210724 291.146637,130.557602 289.871643,130.836624 
	C270.536987,135.067703 251.139755,139.012283 231.763809,143.055603 
	C212.575745,147.059708 193.399139,151.118805 174.209900,155.117203 
	C160.002609,158.077530 145.804642,161.090164 131.559616,163.858643 
	C124.772446,165.177719 117.885384,165.982742 110.870430,166.647400 
	C110.096512,165.365936 109.495720,164.457687 108.894936,163.549423 
	C108.943993,163.278351 108.993042,163.007263 109.427567,162.840515 
	C109.909355,163.031006 110.005653,163.117157 110.101959,163.203308 
	C110.012230,162.908478 109.922508,162.613663 109.832779,162.318832 
z"/>
<path fill="#EDF0F4" opacity="1.000000" stroke="none" 
	d="
M293.001190,126.019249 
	C289.628937,125.014946 286.282898,123.260193 282.879761,123.141510 
	C270.770569,122.719246 258.994873,124.780334 247.225327,127.889290 
	C234.341843,131.292511 221.083420,133.260773 208.015839,135.986008 
	C183.153931,141.170868 158.317627,146.478561 133.453613,151.653152 
	C130.239075,152.322159 126.828705,152.154587 123.679718,153.005844 
	C120.264565,153.929062 117.049095,155.590973 113.279556,156.686432 
	C113.545677,153.631821 114.278793,150.821487 115.342033,147.960831 
	C116.348801,146.897278 117.025444,145.884064 117.702087,144.870850 
	C117.278488,144.659256 116.854889,144.447662 116.431282,144.236053 
	C115.950302,145.486679 115.469315,146.737320 114.661652,147.988892 
	C113.899452,147.996033 113.463928,148.002197 113.028412,148.008362 
	C114.029297,143.483307 115.030182,138.958237 116.283966,134.157181 
	C117.498123,134.452866 118.459389,135.024551 119.705063,136.210632 
	C119.691704,139.012405 119.393929,141.199768 118.980125,144.239349 
	C129.296722,141.834747 138.747253,139.614426 148.207382,137.435791 
	C151.906952,136.583801 155.612549,135.743362 159.341980,135.038239 
	C177.737213,131.560181 196.160706,128.228531 214.535568,124.646828 
	C226.817307,122.252831 239.062073,119.647682 251.256607,116.846291 
	C253.659683,116.294235 255.757446,114.413101 257.996033,113.144913 
	C263.432800,114.690460 268.869598,116.236008 274.691162,118.280144 
	C276.529266,122.096802 278.883972,120.475166 281.053284,119.869408 
	C286.706482,121.249550 292.359711,122.629692 298.114380,124.481514 
	C297.811401,125.638901 297.406952,126.324600 296.651794,127.009827 
	C295.201141,126.679321 294.101166,126.349289 293.001190,126.019249 
M263.482788,118.587563 
	C263.482788,118.587563 263.415619,118.474922 263.482788,118.587563 
z"/>
<path fill="#D2DAE2" opacity="1.000000" stroke="none" 
	d="
M321.799255,133.982605 
	C320.799225,137.884262 319.799194,141.785904 318.199402,145.772690 
	C316.733093,145.905212 315.866547,145.952606 314.815430,145.665771 
	C312.463104,145.038071 310.196045,144.186417 308.145325,144.551132 
	C300.672302,145.880188 293.289642,147.707855 285.837921,149.169159 
	C279.697998,150.373215 273.467804,151.132248 267.349518,152.428009 
	C254.448959,155.160110 241.615921,158.210938 228.716202,160.947159 
	C218.580460,163.097092 208.369125,164.891739 198.240067,167.070602 
	C197.003036,167.336716 196.068130,169.007294 194.603439,170.016159 
	C192.126114,169.382675 190.038589,168.760025 187.936005,167.827118 
	C187.262512,167.390854 186.604034,167.264847 185.531830,167.132339 
	C183.883224,167.125854 182.648346,167.125854 181.566391,167.125854 
	C181.027161,168.598816 180.577637,169.826706 179.796661,170.933960 
	C178.981369,170.728714 178.466843,170.491333 178.018127,170.581482 
	C160.035187,174.193909 141.946686,177.378265 124.139709,181.717346 
	C117.728737,183.279526 110.241257,182.508820 105.029129,187.618317 
	C105.707329,184.488846 106.386200,181.748245 107.433548,178.932495 
	C111.236717,178.057785 114.657913,177.193848 118.108551,176.470291 
	C130.215775,173.931534 142.334442,171.447357 154.446182,168.930115 
	C162.299774,167.297882 170.148880,165.644119 178.365234,163.958893 
	C183.907196,161.123734 188.423904,162.153366 189.670181,165.435608 
	C192.038681,164.252014 194.300964,162.667572 196.810562,161.958603 
	C202.659943,160.306107 208.621613,159.045685 214.550262,157.680588 
	C221.451981,156.091385 228.341537,154.434113 235.281830,153.031265 
	C247.393250,150.583191 259.550201,148.361160 271.667877,145.943237 
	C282.945862,143.692856 294.254791,141.549957 305.434692,138.877014 
	C310.390228,137.692215 316.257874,138.794952 320.324829,133.970734 
	C321.012909,133.973267 321.406097,133.977936 321.799255,133.982605 
M186.517120,164.410507 
	C186.517120,164.410507 186.584061,164.522583 186.517120,164.410507 
z"/>
<path fill="#A7B4C0" opacity="1.000000" stroke="none" 
	d="
M303.983887,198.994354 
	C302.660522,204.242447 301.337128,209.490524 299.483887,214.993942 
	C288.645721,217.329819 278.337219,219.409683 268.029022,221.491043 
	C254.001923,224.323303 239.975052,227.156708 225.938629,229.618011 
	C225.980743,228.504669 226.032303,227.762939 226.427185,226.952484 
	C227.136353,225.867874 227.502197,224.851990 227.857086,223.613235 
	C227.846115,223.390350 227.889755,222.946167 228.153595,222.947998 
	C228.666473,222.843597 228.915527,222.737381 229.164581,222.631149 
	C228.751663,222.430954 228.338745,222.230759 227.970825,221.661926 
	C228.635696,219.200455 229.255569,217.107605 230.229858,214.966278 
	C234.769669,212.878296 238.766220,210.137970 243.180634,208.948517 
	C251.760284,206.636780 260.504395,204.637878 269.308838,203.531677 
	C280.875305,202.078415 291.850159,195.969025 303.983887,198.994354 
z"/>
<path fill="#9FADBA" opacity="1.000000" stroke="none" 
	d="
M220.000656,238.976044 
	C216.164520,240.315048 212.415237,242.045029 208.476028,242.920120 
	C196.400085,245.602783 184.254044,247.971100 172.129868,250.435150 
	C162.912613,252.308441 153.676941,254.092300 144.468964,256.009613 
	C138.510986,257.250244 132.611252,258.775299 126.644211,259.966492 
	C117.749023,261.742218 108.786865,263.192413 99.918320,265.086090 
	C96.886185,265.733551 93.992233,267.173218 91.141487,268.482452 
	C88.531845,269.680969 88.112968,271.427429 90.768143,273.647949 
	C90.076752,273.871094 89.174675,273.819244 88.002625,273.130798 
	C86.728928,271.615936 85.725212,270.737671 84.743332,269.457214 
	C85.442268,266.058441 86.119377,263.061829 87.149307,259.922577 
	C95.529388,254.818192 104.932098,255.122757 113.704857,253.102661 
	C130.445038,249.247925 147.314560,245.954071 164.134201,242.445587 
	C171.402863,240.929413 178.748291,239.719803 185.929581,237.869263 
	C190.264893,236.752090 195.963867,237.893036 198.253998,231.952545 
	C198.501282,231.968307 198.995834,231.998489 199.185028,231.931763 
	C199.617462,231.741669 199.806473,231.561462 200.233551,231.303955 
	C200.916122,231.266785 201.306381,231.250076 201.799698,231.503311 
	C202.264084,232.205475 202.625397,232.637680 203.023865,233.356735 
	C203.711304,233.751221 204.361588,233.858871 205.395462,233.974060 
	C207.524536,234.604507 209.270004,235.227402 211.047699,236.169907 
	C213.230164,236.276718 215.380402,236.063904 217.580566,235.732971 
	C217.630508,235.614838 217.969009,235.304352 218.179581,235.667953 
	C218.926987,237.013046 219.463821,237.994537 220.000656,238.976044 
z"/>
<path fill="#C6CFD9" opacity="1.000000" stroke="none" 
	d="
M315.000000,146.000000 
	C315.866547,145.952606 316.733093,145.905212 317.860046,145.958633 
	C316.810059,151.138687 315.499664,156.217911 313.632477,161.648071 
	C309.901825,162.557465 306.714691,163.050049 303.556335,163.685623 
	C289.003510,166.614182 274.433411,169.464920 259.921021,172.583282 
	C251.911072,174.304413 243.987167,176.440002 236.067337,178.549637 
	C235.016891,178.829453 234.220123,180.061508 232.953400,180.906281 
	C227.065628,179.250748 221.530319,177.541489 215.997253,175.414246 
	C216.089462,173.540573 216.179428,172.084885 216.301086,170.116470 
	C223.349075,168.657898 230.261215,167.307526 237.136002,165.788101 
	C251.469498,162.620163 265.746582,159.186066 280.117828,156.203430 
	C289.945099,154.163834 299.881561,152.636002 309.792450,151.022202 
	C312.844971,150.525146 314.632721,149.095276 315.000000,146.000000 
z"/>
<path fill="#B4BECA" opacity="1.000000" stroke="none" 
	d="
M304.287079,198.755905 
	C291.850159,195.969025 280.875305,202.078415 269.308838,203.531677 
	C260.504395,204.637878 251.760284,206.636780 243.180634,208.948517 
	C238.766220,210.137970 234.769669,212.878296 230.027557,214.848846 
	C229.233261,214.562424 229.064194,214.300690 229.244156,213.768372 
	C230.732361,209.356995 231.940018,205.171921 233.369476,200.799728 
	C233.712448,200.050995 233.833603,199.489365 234.072357,198.637054 
	C234.441696,197.560699 234.693466,196.775024 235.331223,195.987762 
	C240.541870,195.322632 245.417984,194.912750 250.181198,193.946411 
	C262.791809,191.387970 275.320587,188.419876 287.947937,185.952789 
	C294.816284,184.610901 301.819122,183.957428 308.761322,182.993454 
	C307.370972,188.168121 305.980621,193.342789 304.287079,198.755905 
z"/>
<path fill="#F6F7F9" opacity="1.000000" stroke="none" 
	d="
M257.602051,113.070541 
	C255.757446,114.413101 253.659683,116.294235 251.256607,116.846291 
	C239.062073,119.647682 226.817307,122.252831 214.535568,124.646828 
	C196.160706,128.228531 177.737213,131.560181 159.341980,135.038239 
	C155.612549,135.743362 151.906952,136.583801 148.207382,137.435791 
	C138.747253,139.614426 129.296722,141.834747 118.980125,144.239349 
	C119.393929,141.199768 119.691704,139.012405 119.988693,136.419647 
	C130.544540,134.217072 141.155243,132.686600 151.645355,130.561127 
	C167.970322,127.253387 184.203430,123.494759 200.495636,120.021790 
	C207.744766,118.476517 215.123917,117.478279 222.294479,115.646286 
	C228.533432,114.052307 234.561920,111.634506 240.865662,109.237823 
	C246.434616,110.262001 251.821350,111.629089 257.602051,113.070541 
z"/>
<path fill="#BAC4CF" opacity="1.000000" stroke="none" 
	d="
M308.877258,182.600998 
	C301.819122,183.957428 294.816284,184.610901 287.947937,185.952789 
	C275.320587,188.419876 262.791809,191.387970 250.181198,193.946411 
	C245.417984,194.912750 240.541870,195.322632 235.331268,195.614594 
	C234.973068,194.496750 235.000793,193.750473 235.358246,192.954910 
	C236.088470,192.207626 236.488983,191.509628 236.924301,190.477600 
	C237.270187,189.084976 237.581284,188.026398 238.258865,186.923935 
	C239.756409,186.255875 240.818314,185.336441 242.029114,185.052902 
	C255.141495,181.982254 268.258209,178.924530 281.412903,176.042007 
	C291.293671,173.876877 301.231445,171.971817 311.143829,169.950958 
	C310.426941,174.036819 309.710052,178.122681 308.877258,182.600998 
z"/>
<path fill="#9FADBA" opacity="1.000000" stroke="none" 
	d="
M225.948090,229.989624 
	C239.975052,227.156708 254.001923,224.323303 268.029022,221.491043 
	C278.337219,219.409683 288.645721,217.329819 299.405426,215.354492 
	C298.839478,219.518555 297.822205,223.577377 296.480133,227.844879 
	C290.269867,225.238922 284.792694,228.537430 279.304535,229.546371 
	C267.000916,231.808258 254.860214,234.945633 242.625916,237.600937 
	C237.482285,238.717285 232.284149,239.614212 227.076675,240.378647 
	C225.991699,240.537918 224.756332,239.672684 223.442032,238.825775 
	C223.788895,237.174423 224.283997,235.976868 224.846085,234.436081 
	C225.258087,232.725113 225.603104,231.357376 225.948090,229.989624 
z"/>
<path fill="#C1CAD4" opacity="1.000000" stroke="none" 
	d="
M311.206116,169.599213 
	C301.231445,171.971817 291.293671,173.876877 281.412903,176.042007 
	C268.258209,178.924530 255.141495,181.982254 242.029114,185.052902 
	C240.818314,185.336441 239.756409,186.255875 238.256363,186.571854 
	C236.983261,184.854691 236.079163,183.445709 235.067657,181.820877 
	C234.408783,181.354202 233.857315,181.103363 233.305878,180.852539 
	C234.220123,180.061508 235.016891,178.829453 236.067337,178.549637 
	C243.987167,176.440002 251.911072,174.304413 259.921021,172.583282 
	C274.433411,169.464920 289.003510,166.614182 303.556335,163.685623 
	C306.714691,163.050049 309.901825,162.557465 313.458069,161.996857 
	C312.983093,164.412292 312.125763,166.829880 311.206116,169.599213 
z"/>
<path fill="#F6F7F9" opacity="1.000000" stroke="none" 
	d="
M107.065063,179.007645 
	C106.386200,181.748245 105.707329,184.488846 104.760498,187.818756 
	C104.340515,189.274994 104.188484,190.141907 103.740616,191.150101 
	C102.626228,195.191833 101.807686,199.092300 100.883835,203.253357 
	C100.510735,204.007065 100.242928,204.500183 99.628342,204.990662 
	C98.820114,204.960312 98.358658,204.932602 97.897209,204.904892 
	C100.398048,194.958008 102.889313,185.008682 105.404663,175.065475 
	C106.345757,171.345322 107.342941,167.639359 108.604744,163.738174 
	C109.495720,164.457687 110.096512,165.365936 110.855446,166.644104 
	C111.013596,167.013992 111.008301,167.034790 110.786064,167.128204 
	C110.285034,167.414307 110.110062,167.676331 109.757286,168.272858 
	C108.672119,172.027908 107.868591,175.517776 107.065063,179.007645 
z"/>
<path fill="#E2E6EC" opacity="1.000000" stroke="none" 
	d="
M86.796486,260.065247 
	C86.119377,263.061829 85.442268,266.058441 84.518700,269.660797 
	C84.177979,270.850586 84.083725,271.434601 83.989471,272.018616 
	C81.244202,272.009369 79.291679,272.177582 80.662643,267.946716 
	C83.256592,259.941772 84.932922,251.639465 87.615150,243.195343 
	C88.560913,242.978241 88.882050,243.026520 89.190224,243.516785 
	C88.383675,249.327621 87.590080,254.696426 86.796486,260.065247 
z"/>
<path fill="#EDF0F4" opacity="1.000000" stroke="none" 
	d="
M89.203178,243.074783 
	C88.882050,243.026520 88.560913,242.978241 87.759583,242.848114 
	C90.512749,230.747620 93.746124,218.729004 97.255913,206.215515 
	C97.754921,205.480652 97.886841,205.198288 97.928085,204.873535 
	C97.928085,204.873535 97.950752,204.926727 97.923981,204.915802 
	C98.358658,204.932602 98.820114,204.960312 99.642029,205.366547 
	C100.002892,206.496918 100.003296,207.248764 99.732758,208.225800 
	C98.978874,210.300232 98.495949,212.149506 97.744812,214.204971 
	C97.330322,215.288193 97.184052,216.165222 96.885788,217.385010 
	C96.126366,220.822525 95.518936,223.917267 94.601547,227.187759 
	C93.262428,230.645844 92.233261,233.928162 91.180222,237.561218 
	C90.808067,238.972839 90.459778,240.033737 89.861763,241.176376 
	C89.484673,241.568130 89.357307,241.878113 89.235405,242.410141 
	C89.240868,242.632172 89.203178,243.074783 89.203178,243.074783 
z"/>
<path fill="#EDF0F4" opacity="1.000000" stroke="none" 
	d="
M321.880615,133.566986 
	C321.406097,133.977936 321.012909,133.973267 320.276550,133.655014 
	C318.962097,132.572693 317.990875,131.803925 316.768188,130.930161 
	C315.676453,130.885788 314.836151,130.946426 313.746765,130.728180 
	C309.997284,129.637329 306.496857,128.825378 302.689087,127.689911 
	C301.228241,126.423485 300.074707,125.480568 298.921143,124.537643 
	C306.040375,126.351295 313.182678,128.083847 320.246918,130.091049 
	C321.044098,130.317551 321.400970,132.093781 321.880615,133.566986 
z"/>
<path fill="#F6F7F9" opacity="1.000000" stroke="none" 
	d="
M112.760101,148.282608 
	C113.463928,148.002197 113.899452,147.996033 114.667435,147.994873 
	C114.999901,147.999893 115.011902,148.011169 115.011902,148.011169 
	C114.278793,150.821487 113.545677,153.631821 112.919548,156.731140 
	C111.998436,158.701889 110.970345,160.383652 109.535698,162.097549 
	C110.250031,157.605423 111.370911,153.081131 112.760101,148.282608 
z"/>
<path fill="#E2E6EC" opacity="1.000000" stroke="none" 
	d="
M298.881409,124.553970 
	C300.074707,125.480568 301.228241,126.423485 302.465942,127.953506 
	C300.700867,128.030518 298.851654,127.520409 297.002472,127.010307 
	C297.406952,126.324600 297.811401,125.638901 298.474182,124.639847 
	C298.732513,124.326492 298.841644,124.570305 298.881409,124.553970 
z"/>
<path fill="#F6F7F9" opacity="1.000000" stroke="none" 
	d="
M280.887512,119.533020 
	C278.883972,120.475166 276.529266,122.096802 275.040405,118.456551 
	C276.910492,118.488457 278.816132,118.842545 280.887512,119.533020 
z"/>
<path fill="#96A6B4" opacity="1.000000" stroke="none" 
	d="
M83.951096,272.009186 
	C84.083725,271.434601 84.177979,270.850586 84.496864,270.062988 
	C85.725212,270.737671 86.728928,271.615936 87.840118,272.828491 
	C87.502525,273.109802 87.057472,273.056793 86.094772,272.701630 
	C85.011978,272.290466 84.446823,272.181458 83.881668,272.072449 
	C83.881668,272.072449 83.912712,271.999756 83.951096,272.009186 
z"/>
<path fill="#A7B4C0" opacity="1.000000" stroke="none" 
	d="
M84.018387,272.357605 
	C84.446823,272.181458 85.011978,272.290466 85.767548,272.623108 
	C85.357002,272.778778 84.756058,272.710785 84.018387,272.357605 
z"/>
<path fill="#F6F7F9" opacity="1.000000" stroke="none" 
	d="
M97.671120,204.960907 
	C97.886841,205.198288 97.754921,205.480652 97.334343,205.850479 
	C97.228966,205.669632 97.321556,205.358948 97.671120,204.960907 
z"/>
<path fill="#F6F7F9" opacity="1.000000" stroke="none" 
	d="
M109.799393,162.334045 
	C109.922508,162.613663 110.012230,162.908478 110.101959,163.203308 
	C110.005653,163.117157 109.909355,163.031006 109.807816,162.678757 
	C109.802567,162.412659 109.765991,162.349274 109.799393,162.334045 
z"/>
<path fill="#F6F7F9" opacity="1.000000" stroke="none" 
	d="
M237.179169,107.617249 
	C236.973862,107.776741 236.656937,107.671432 236.177490,107.368805 
	C236.365845,107.231812 236.716705,107.292130 237.179169,107.617249 
z"/>
<path fill="#B4BECA" opacity="1.000000" stroke="none" 
	d="
M224.779083,234.779327 
	C224.283997,235.976868 223.788895,237.174423 223.131348,238.670731 
	C222.227066,238.974777 221.485229,238.980042 220.372009,238.980682 
	C219.463821,237.994537 218.926987,237.013046 218.596939,235.506714 
	C219.093018,235.021591 219.382294,235.061325 219.775848,235.458588 
	C221.513107,235.470505 223.146103,235.124924 224.779083,234.779327 
z"/>
<path fill="#D8DEE6" opacity="1.000000" stroke="none" 
	d="
M296.651794,127.009827 
	C298.851654,127.520409 300.700867,128.030518 302.773224,128.277023 
	C306.496857,128.825378 309.997284,129.637329 313.783691,131.067200 
	C314.642944,132.332901 315.216278,132.980682 315.789612,133.628448 
	C316.199615,132.764023 316.609619,131.899597 317.019592,131.035156 
	C317.990875,131.803925 318.962097,132.572693 319.981628,133.657166 
	C316.257874,138.794952 310.390228,137.692215 305.434692,138.877014 
	C294.254791,141.549957 282.945862,143.692856 271.667877,145.943237 
	C259.550201,148.361160 247.393250,150.583191 235.281830,153.031265 
	C228.341537,154.434113 221.451981,156.091385 214.550262,157.680588 
	C208.621613,159.045685 202.659943,160.306107 196.810562,161.958603 
	C194.300964,162.667572 192.038681,164.252014 189.670181,165.435608 
	C188.423904,162.153366 183.907196,161.123734 178.311691,163.820862 
	C177.807678,163.674667 177.722458,163.625412 177.637238,163.576172 
	C177.758163,163.717453 177.879074,163.858719 178.000000,164.000000 
	C170.148880,165.644119 162.299774,167.297882 154.446182,168.930115 
	C142.334442,171.447357 130.215775,173.931534 118.108551,176.470291 
	C114.657913,177.193848 111.236717,178.057785 107.433540,178.932495 
	C107.868591,175.517776 108.672119,172.027908 109.966354,168.163391 
	C110.718056,167.593933 110.901810,167.342606 111.008301,167.034790 
	C111.008301,167.034790 111.013596,167.013992 111.028580,167.017303 
	C117.885384,165.982742 124.772446,165.177719 131.559616,163.858643 
	C145.804642,161.090164 160.002609,158.077530 174.209900,155.117203 
	C193.399139,151.118805 212.575745,147.059708 231.763809,143.055603 
	C251.139755,139.012283 270.536987,135.067703 289.871643,130.836624 
	C291.146637,130.557602 291.969116,128.210724 293.001617,126.422462 
	C294.101166,126.349289 295.201141,126.679321 296.651794,127.009827 
z"/>
<path fill="#F6F7F9" opacity="1.000000" stroke="none" 
	d="
M114.994110,147.993927 
	C115.469315,146.737320 115.950302,145.486679 116.431282,144.236053 
	C116.854889,144.447662 117.278488,144.659256 117.702087,144.870850 
	C117.025444,145.884064 116.348801,146.897278 115.342026,147.960831 
	C115.011902,148.011169 114.999901,147.999893 114.994110,147.993927 
z"/>
<path fill="#F6F7F9" opacity="1.000000" stroke="none" 
	d="
M263.449219,118.531242 
	C263.415619,118.474922 263.482788,118.587563 263.449219,118.531242 
z"/>
<path fill="#010202" opacity="1.000000" stroke="none" 
	d="
M219.671600,235.101074 
	C219.382294,235.061325 219.093018,235.021591 218.386368,235.143097 
	C217.969009,235.304352 217.630508,235.614838 217.515945,235.672318 
	C217.401382,235.729797 217.238022,235.658615 217.600739,235.584808 
	C217.647903,235.034958 217.332336,234.558929 216.665726,234.001556 
	C215.598022,233.854141 214.881348,233.788071 213.934601,233.415970 
	C210.313095,232.330353 206.921646,231.550781 203.261810,230.463898 
	C202.056854,229.963593 201.108124,229.816315 200.185608,229.570602 
	C190.470169,226.982849 180.758926,224.379364 170.844391,221.434082 
	C168.460785,221.213013 167.387451,220.444611 167.996964,218.057404 
	C168.498795,216.091965 168.833755,214.083908 169.550446,211.846008 
	C170.257278,208.771393 170.656326,205.945496 171.396500,202.951553 
	C172.465378,199.854874 173.193146,196.926239 174.184631,193.713608 
	C175.907715,187.618164 177.367065,181.806717 178.970123,175.649704 
	C179.451935,173.887619 179.790024,172.471100 180.128113,171.054596 
	C180.577637,169.826706 181.027161,168.598816 181.566391,167.125854 
	C182.648346,167.125854 183.883224,167.125854 185.645538,167.419830 
	C186.765671,167.855011 187.358353,167.996201 187.951050,168.137375 
	C190.038589,168.760025 192.126114,169.382675 194.812668,170.344193 
	C202.272797,172.399445 209.133896,174.115829 215.995010,175.832230 
	C221.530319,177.541489 227.065628,179.250748 232.953400,180.906281 
	C233.857315,181.103363 234.408783,181.354202 234.966278,182.199066 
	C232.022308,193.527100 229.072327,204.261093 226.046234,215.314056 
	C225.931366,216.067673 225.892609,216.502350 225.562576,217.057648 
	C225.221619,217.783554 225.171951,218.388840 225.046677,219.390625 
	C224.634705,220.838577 224.322250,221.898392 223.957733,222.939957 
	C222.537979,226.996811 221.101715,231.047867 219.671600,235.101074 
z"/>
<path fill="#CDD5DE" opacity="1.000000" stroke="none" 
	d="
M215.997253,175.414246 
	C209.133896,174.115829 202.272797,172.399445 195.202454,170.355026 
	C196.068130,169.007294 197.003036,167.336716 198.240067,167.070602 
	C208.369125,164.891739 218.580460,163.097092 228.716202,160.947159 
	C241.615921,158.210938 254.448959,155.160110 267.349518,152.428009 
	C273.467804,151.132248 279.697998,150.373215 285.837921,149.169159 
	C293.289642,147.707855 300.672302,145.880188 308.145325,144.551132 
	C310.196045,144.186417 312.463104,145.038071 314.815430,145.665771 
	C314.632721,149.095276 312.844971,150.525146 309.792450,151.022202 
	C299.881561,152.636002 289.945099,154.163834 280.117828,156.203430 
	C265.746582,159.186066 251.469498,162.620163 237.136002,165.788101 
	C230.261215,167.307526 223.349075,168.657898 216.301086,170.116470 
	C216.179428,172.084885 216.089462,173.540573 215.997253,175.414246 
z"/>
<path fill="#CDD5DE" opacity="1.000000" stroke="none" 
	d="
M179.796661,170.933960 
	C179.790024,172.471100 179.451935,173.887619 178.624176,175.727509 
	C175.512665,177.433990 173.014526,179.268478 170.244263,179.889984 
	C163.670609,181.364731 156.914551,182.019806 150.330444,183.456375 
	C141.335129,185.418991 132.469955,187.978348 123.474167,189.938522 
	C117.384064,191.265579 111.165237,192.001907 104.982788,192.707428 
	C104.653221,191.944565 104.344841,191.476700 104.036461,191.008835 
	C104.188484,190.141907 104.340515,189.274994 104.761169,188.207642 
	C110.241257,182.508820 117.728737,183.279526 124.139709,181.717346 
	C141.946686,177.378265 160.035187,174.193909 178.018127,170.581482 
	C178.466843,170.491333 178.981369,170.728714 179.796661,170.933960 
z"/>
<path fill="#D8DEE6" opacity="1.000000" stroke="none" 
	d="
M187.936005,167.827118 
	C187.358353,167.996201 186.765671,167.855011 186.059265,167.426331 
	C186.604034,167.264847 187.262512,167.390854 187.936005,167.827118 
z"/>
<path fill="#D8DEE6" opacity="1.000000" stroke="none" 
	d="
M186.550598,164.466553 
	C186.584061,164.522583 186.517120,164.410507 186.550598,164.466553 
z"/>
<path fill="#E2E6EC" opacity="1.000000" stroke="none" 
	d="
M225.853867,216.937012 
	C225.892609,216.502350 225.931366,216.067673 226.351715,215.294708 
	C227.476761,214.635834 228.220184,214.315277 228.963623,213.994690 
	C229.064194,214.300690 229.233261,214.562424 229.673126,214.897308 
	C229.255569,217.107605 228.635696,219.200455 227.953857,221.890320 
	C227.891907,222.487320 227.889755,222.946167 227.889755,222.946167 
	C227.889755,222.946167 227.846115,223.390350 227.588577,223.793564 
	C226.915314,225.138260 226.499588,226.079727 226.083862,227.021210 
	C226.032303,227.762939 225.980743,228.504669 225.938629,229.618011 
	C225.603104,231.357376 225.258087,232.725113 224.846085,234.436096 
	C223.146103,235.124924 221.513107,235.470505 219.775848,235.458588 
	C221.101715,231.047867 222.537979,226.996811 223.957733,222.939957 
	C224.322250,221.898392 224.634705,220.838577 225.340057,219.356598 
	C225.757309,218.263046 225.805588,217.600037 225.853867,216.937012 
z"/>
<path fill="#B4BECA" opacity="1.000000" stroke="none" 
	d="
M226.427185,226.952484 
	C226.499588,226.079727 226.915314,225.138260 227.599548,224.016449 
	C227.502197,224.851990 227.136353,225.867874 226.427185,226.952484 
z"/>
<path fill="#B4BECA" opacity="1.000000" stroke="none" 
	d="
M228.153595,222.947998 
	C227.889755,222.946167 227.891907,222.487320 227.908875,222.258942 
	C228.338745,222.230759 228.751663,222.430954 229.164581,222.631149 
	C228.915527,222.737381 228.666473,222.843597 228.153595,222.947998 
z"/>
<path fill="#A7B4C0" opacity="1.000000" stroke="none" 
	d="
M90.111488,241.094620 
	C90.459778,240.033737 90.808067,238.972839 91.455383,237.484741 
	C92.199677,236.717621 92.644936,236.377701 93.506599,236.028442 
	C97.117249,235.346939 100.301323,234.621246 103.507622,234.012543 
	C113.354118,232.143265 123.230583,230.425552 133.055450,228.450165 
	C145.576523,225.932663 157.911667,221.971802 171.307709,224.048645 
	C172.763458,224.403961 173.871918,224.730835 175.032806,225.381653 
	C175.774399,226.098022 176.463562,226.490448 177.568314,226.888855 
	C179.647079,226.956833 181.310226,227.018829 183.013824,227.366425 
	C183.705673,227.756485 184.357056,227.860962 185.391754,228.023376 
	C189.852264,229.366455 193.929504,230.651611 198.006729,231.936783 
	C195.963867,237.893036 190.264893,236.752090 185.929581,237.869263 
	C178.748291,239.719803 171.402863,240.929413 164.134201,242.445587 
	C147.314560,245.954071 130.445038,249.247925 113.704857,253.102661 
	C104.932098,255.122757 95.529388,254.818192 87.149323,259.922577 
	C87.590080,254.696426 88.383675,249.327621 89.190224,243.516785 
	C89.203178,243.074783 89.240868,242.632172 89.416351,242.257385 
	C89.821106,241.656921 89.994324,241.394257 90.111488,241.094620 
z"/>
<path fill="#D8DEE6" opacity="1.000000" stroke="none" 
	d="
M182.973389,227.080841 
	C181.310226,227.018829 179.647079,226.956833 177.486069,226.581284 
	C176.318939,225.864380 175.649673,225.461044 174.980392,225.057693 
	C173.871918,224.730835 172.763458,224.403961 171.308441,223.674042 
	C170.990112,222.774063 171.018311,222.277145 171.046524,221.780228 
	C180.758926,224.379364 190.470169,226.982849 200.185608,229.570602 
	C201.108124,229.816315 202.056854,229.963593 202.801910,230.573486 
	C202.305817,231.071381 202.001221,231.152374 201.696625,231.233353 
	C201.306381,231.250076 200.916122,231.266785 200.017853,231.303513 
	C199.228683,231.464722 199.057343,231.689697 198.995834,231.998489 
	C198.995834,231.998489 198.501282,231.968307 198.253998,231.952545 
	C193.929504,230.651611 189.852264,229.366455 185.217422,227.783661 
	C184.097672,227.350952 183.535522,227.215897 182.973389,227.080841 
z"/>
<path fill="#CDD5DE" opacity="1.000000" stroke="none" 
	d="
M201.799698,231.503311 
	C202.001221,231.152374 202.305817,231.071381 203.070312,230.880798 
	C206.921646,231.550781 210.313095,232.330353 213.774109,233.709824 
	C212.900940,234.823227 211.958206,235.336761 211.015472,235.850281 
	C209.270004,235.227402 207.524536,234.604507 205.222549,233.734436 
	C204.106262,233.348145 203.546478,233.209015 202.986710,233.069885 
	C202.625397,232.637680 202.264084,232.205475 201.799698,231.503311 
z"/>
<path fill="#B4BECA" opacity="1.000000" stroke="none" 
	d="
M211.047699,236.169891 
	C211.958206,235.336761 212.900940,234.823227 214.004181,234.015854 
	C214.881348,233.788071 215.598022,233.854141 216.672028,234.402374 
	C217.098907,235.142548 217.168457,235.400574 217.238022,235.658615 
	C217.238022,235.658615 217.401382,235.729797 217.466003,235.790436 
	C215.380402,236.063904 213.230164,236.276718 211.047699,236.169891 
z"/>
<path fill="#A7B4C0" opacity="1.000000" stroke="none" 
	d="
M203.023865,233.356735 
	C203.546478,233.209015 204.106262,233.348145 204.838943,233.726898 
	C204.361588,233.858871 203.711304,233.751221 203.023865,233.356735 
z"/>
<path fill="#A7B4C0" opacity="1.000000" stroke="none" 
	d="
M199.185028,231.931763 
	C199.057343,231.689697 199.228683,231.464722 199.725540,231.323975 
	C199.806473,231.561462 199.617462,231.741669 199.185028,231.931763 
z"/>
<path fill="#EDF0F4" opacity="1.000000" stroke="none" 
	d="
M229.244171,213.768372 
	C228.220184,214.315277 227.476761,214.635834 226.427841,214.975739 
	C229.072327,204.261093 232.022308,193.527100 235.073685,182.414917 
	C236.079163,183.445709 236.983261,184.854691 237.889862,186.615753 
	C237.581284,188.026398 237.270187,189.084976 236.615341,190.568817 
	C235.857239,191.664124 235.442886,192.334152 235.028534,193.004196 
	C235.000793,193.750473 234.973068,194.496750 234.945282,195.616180 
	C234.693466,196.775024 234.441696,197.560699 233.810593,198.671112 
	C233.336716,199.659531 233.242188,200.323196 233.147675,200.986847 
	C231.940018,205.171921 230.732361,209.356995 229.244171,213.768372 
z"/>
<path fill="#C1CAD4" opacity="1.000000" stroke="none" 
	d="
M233.369476,200.799728 
	C233.242188,200.323196 233.336716,199.659531 233.692993,198.961823 
	C233.833603,199.489365 233.712448,200.050995 233.369476,200.799728 
z"/>
<path fill="#C1CAD4" opacity="1.000000" stroke="none" 
	d="
M235.358231,192.954910 
	C235.442886,192.334152 235.857239,191.664124 236.580551,190.902863 
	C236.488983,191.509628 236.088470,192.207626 235.358231,192.954910 
z"/>
<path fill="#C6CFD9" opacity="1.000000" stroke="none" 
	d="
M105.003998,193.002441 
	C111.165237,192.001907 117.384064,191.265579 123.474167,189.938522 
	C132.469955,187.978348 141.335129,185.418991 150.330444,183.456375 
	C156.914551,182.019806 163.670609,181.364731 170.244263,179.889984 
	C173.014526,179.268478 175.512665,177.433990 178.480469,176.073090 
	C177.367065,181.806717 175.907715,187.618164 173.849243,193.750122 
	C172.119873,194.648773 170.989578,195.226883 169.476715,196.000671 
	C169.476715,194.536819 169.476715,193.512039 169.476715,192.491013 
	C167.387421,193.036087 165.568954,193.684265 163.695236,193.969376 
	C155.406403,195.230606 147.045456,196.091934 138.817017,197.657288 
	C128.655563,199.590363 118.603645,202.096359 108.495316,204.313354 
	C105.410667,204.989883 101.998032,204.841095 100.003700,208.000626 
	C100.003296,207.248764 100.002892,206.496918 99.988800,205.369171 
	C100.242928,204.500183 100.510735,204.007065 101.244400,203.188187 
	C102.808174,199.575760 103.906082,196.289108 105.003998,193.002441 
z"/>
<path fill="#D8DEE6" opacity="1.000000" stroke="none" 
	d="
M104.982796,192.707428 
	C103.906082,196.289108 102.808174,199.575760 101.349701,202.927597 
	C101.807686,199.092300 102.626228,195.191833 103.740616,191.150101 
	C104.344841,191.476700 104.653221,191.944565 104.982796,192.707428 
z"/>
<path fill="#E2E6EC" opacity="1.000000" stroke="none" 
	d="
M110.786064,167.128204 
	C110.901810,167.342606 110.718056,167.593933 110.247986,167.898224 
	C110.110062,167.676331 110.285034,167.414307 110.786064,167.128204 
z"/>
<path fill="#C1CAD4" opacity="1.000000" stroke="none" 
	d="
M99.732758,208.225800 
	C101.998032,204.841095 105.410667,204.989883 108.495316,204.313354 
	C118.603645,202.096359 128.655563,199.590363 138.817017,197.657288 
	C147.045456,196.091934 155.406403,195.230606 163.695236,193.969376 
	C165.568954,193.684265 167.387421,193.036087 169.476715,192.491013 
	C169.476715,193.512039 169.476715,194.536819 169.476715,196.000671 
	C170.989578,195.226883 172.119873,194.648773 173.585541,194.034119 
	C173.193146,196.926239 172.465378,199.854874 171.152908,202.649719 
	C170.102280,202.362579 169.600525,202.009171 169.175705,202.085236 
	C159.610046,203.798447 150.025909,205.426971 140.506104,207.369598 
	C136.181992,208.251984 132.050812,210.092300 127.722878,210.941025 
	C118.179367,212.812546 108.566513,214.330490 98.961258,215.697723 
	C98.631386,214.934738 98.322205,214.466751 98.013016,213.998764 
	C98.495949,212.149506 98.978874,210.300232 99.732758,208.225800 
z"/>
<path fill="#BAC4CF" opacity="1.000000" stroke="none" 
	d="
M98.981949,215.992706 
	C108.566513,214.330490 118.179367,212.812546 127.722878,210.941025 
	C132.050812,210.092300 136.181992,208.251984 140.506104,207.369598 
	C150.025909,205.426971 159.610046,203.798447 169.175705,202.085236 
	C169.600525,202.009171 170.102280,202.362579 170.811783,202.817780 
	C170.656326,205.945496 170.257278,208.771393 169.182312,211.820984 
	C166.454941,212.067780 164.335968,211.761398 162.362564,212.165588 
	C145.090561,215.703323 127.830307,219.302368 110.599785,223.036484 
	C105.666504,224.105606 100.841576,225.674683 95.703102,227.011734 
	C95.263329,227.009979 95.087410,227.010986 94.911499,227.012009 
	C95.518936,223.917267 96.126366,220.822525 97.177177,217.351654 
	C98.074356,216.647919 98.528152,216.320312 98.981949,215.992706 
z"/>
<path fill="#D2DAE2" opacity="1.000000" stroke="none" 
	d="
M94.601547,227.187759 
	C95.087410,227.010986 95.263329,227.009979 95.665054,227.373260 
	C94.957306,230.504288 94.023750,233.271027 93.090195,236.037766 
	C92.644936,236.377701 92.199677,236.717621 91.479256,237.134018 
	C92.233261,233.928162 93.262428,230.645844 94.601547,227.187759 
z"/>
<path fill="#D8DEE6" opacity="1.000000" stroke="none" 
	d="
M98.961258,215.697723 
	C98.528152,216.320312 98.074356,216.647919 97.329163,217.008881 
	C97.184052,216.165222 97.330322,215.288193 97.744804,214.204971 
	C98.322205,214.466751 98.631386,214.934738 98.961258,215.697723 
z"/>
<path fill="#D2DAE2" opacity="1.000000" stroke="none" 
	d="
M89.861763,241.176376 
	C89.994324,241.394257 89.821106,241.656921 89.410889,242.035370 
	C89.357307,241.878113 89.484673,241.568130 89.861763,241.176376 
z"/>
<path fill="#E2E6EC" opacity="1.000000" stroke="none" 
	d="
M316.768188,130.930145 
	C316.609619,131.899597 316.199615,132.764023 315.789612,133.628448 
	C315.216278,132.980682 314.642944,132.332901 314.032715,131.346100 
	C314.836151,130.946426 315.676453,130.885788 316.768188,130.930145 
z"/>
<path fill="#D2DAE2" opacity="1.000000" stroke="none" 
	d="
M177.946442,163.861954 
	C177.879074,163.858719 177.758163,163.717453 177.637238,163.576172 
	C177.722458,163.625412 177.807678,163.674667 177.946442,163.861954 
z"/>
<path fill="#B4BECA" opacity="1.000000" stroke="none" 
	d="
M93.506599,236.028442 
	C94.023750,233.271027 94.957306,230.504288 95.928909,227.376038 
	C100.841576,225.674683 105.666504,224.105606 110.599785,223.036484 
	C127.830307,219.302368 145.090561,215.703323 162.362564,212.165588 
	C164.335968,211.761398 166.454941,212.067780 168.874542,212.069702 
	C168.833755,214.083908 168.498795,216.091965 167.996964,218.057404 
	C167.387451,220.444611 168.460785,221.213013 170.844391,221.434082 
	C171.018311,222.277145 170.990112,222.774063 170.961182,223.645584 
	C157.911667,221.971802 145.576523,225.932663 133.055450,228.450165 
	C123.230583,230.425552 113.354118,232.143265 103.507622,234.012543 
	C100.301323,234.621246 97.117249,235.346939 93.506599,236.028442 
z"/>
<path fill="#EDF0F4" opacity="1.000000" stroke="none" 
	d="
M225.562576,217.057648 
	C225.805588,217.600037 225.757309,218.263046 225.415665,218.960098 
	C225.171951,218.388840 225.221619,217.783554 225.562576,217.057648 
z"/>
<path fill="#E2E6EC" opacity="1.000000" stroke="none" 
	d="
M217.600739,235.584808 
	C217.168457,235.400574 217.098907,235.142548 217.023071,234.483704 
	C217.332336,234.558929 217.647903,235.034958 217.600739,235.584808 
z"/>
<path fill="#B4BECA" opacity="1.000000" stroke="none" 
	d="
M183.013824,227.366425 
	C183.535522,227.215897 184.097672,227.350952 184.834137,227.725723 
	C184.357056,227.860962 183.705673,227.756485 183.013824,227.366425 
z"/>
<path fill="#B4BECA" opacity="1.000000" stroke="none" 
	d="
M175.032806,225.381653 
	C175.649673,225.461044 176.318939,225.864380 177.070465,226.575287 
	C176.463562,226.490448 175.774399,226.098022 175.032806,225.381653 
z"/>
</svg>