<?xml version="1.0" standalone="no"?>
<!DOCTYPE svg PUBLIC "-//W3C//DTD SVG 20010904//EN"
 "http://www.w3.org/TR/2001/REC-SVG-20010904/DTD/svg10.dtd">
<svg version="1.0" xmlns="http://www.w3.org/2000/svg"
 width="342.000000pt" height="342.000000pt" viewBox="0 0 342.000000 342.000000"
 preserveAspectRatio="xMidYMid meet">

<g transform="translate(0.000000,342.000000) scale(0.100000,-0.100000)"
fill="#000000" stroke="none">
<path d="M544 2382 c-4 -15 -13 -35 -22 -44 -8 -10 -15 -28 -16 -40 -1 -17 -8
-24 -26 -26 -39 -6 -49 -22 -12 -22 25 0 32 -4 32 -20 0 -14 -7 -20 -21 -20
-14 0 -19 -5 -16 -14 6 -16 -26 -50 -36 -39 -4 3 -7 1 -7 -5 0 -7 7 -12 15
-12 10 0 15 -11 15 -35 0 -24 -5 -35 -15 -35 -9 0 -15 -9 -15 -21 0 -12 -8
-23 -20 -26 -16 -4 -17 -8 -6 -18 7 -7 21 -15 32 -17 22 -4 32 -38 11 -38 -8
0 -20 -7 -27 -15 -10 -13 -9 -15 9 -15 27 0 27 -18 -1 -42 -19 -16 -20 -21 -8
-28 23 -15 -1 -44 -39 -48 -27 -3 -46 -22 -21 -22 5 0 12 -11 16 -25 3 -14 9
-25 13 -25 4 0 7 -19 6 -42 0 -40 -2 -43 -30 -46 -34 -4 -52 -17 -36 -26 6 -4
11 -2 11 3 0 6 7 11 15 11 8 0 15 -9 15 -20 0 -11 -4 -20 -10 -20 -5 0 -10 -7
-10 -15 0 -8 -5 -15 -10 -15 -6 0 -10 -6 -9 -12 3 -27 -2 -38 -16 -38 -24 0
-17 -20 10 -30 29 -11 30 -14 9 -34 -23 -23 -7 -39 32 -31 27 5 34 3 34 -10 0
-8 -6 -15 -13 -15 -7 0 -23 -9 -35 -20 -24 -23 -43 -25 -60 -8 -9 9 -12 9 -12
0 0 -7 13 -15 29 -18 45 -9 64 -74 21 -74 -28 0 -51 -11 -44 -21 3 -5 18 -9
35 -9 16 0 29 -4 29 -10 0 -5 24 -10 53 -10 43 0 58 -5 86 -29 34 -29 34 -30
28 -93 -7 -60 -6 -64 17 -74 14 -6 28 -8 33 -4 4 5 19 10 33 12 19 2 24 8 21
23 -2 11 -5 41 -8 67 -5 46 -4 48 31 65 20 9 36 20 36 25 0 4 22 8 49 8 28 0
53 5 56 10 3 6 22 10 41 10 19 0 34 4 34 9 0 11 -67 24 -80 16 -6 -4 -10 7
-10 24 0 20 5 31 14 31 16 0 27 22 18 37 -4 6 -16 12 -27 14 -30 6 -31 35 -1
43 20 5 26 13 26 35 0 23 6 31 28 39 l27 9 -27 13 c-29 14 -37 30 -15 30 6 0
4 5 -5 11 -10 5 -18 17 -18 26 0 10 -6 14 -20 10 -13 -3 -20 0 -20 8 0 8 14
15 33 17 43 4 37 22 -10 28 l-38 5 3 47 c2 25 -2 49 -8 53 -18 11 -1 25 33 26
26 1 27 3 8 6 -13 3 -32 13 -43 23 -16 15 -18 22 -9 39 10 18 8 21 -14 27 -14
3 -25 12 -25 20 0 14 8 17 43 17 9 0 17 3 17 8 0 11 -21 23 -40 24 -20 0 -26
35 -6 35 9 0 23 11 32 26 18 27 11 43 -22 48 -16 2 -20 13 -22 59 -2 32 -8 57
-14 57 -7 0 -6 6 2 15 13 15 8 29 -11 31 -5 1 -11 2 -14 3 -2 0 -1 11 4 23 6
18 4 25 -13 33 -15 8 -21 20 -20 43 0 18 -4 32 -8 32 -4 0 -8 10 -8 23 0 12
-9 28 -20 35 -17 11 -20 9 -26 -16z"/>
<path d="M1085 2340 c-3 -5 -15 -10 -25 -10 -33 0 -110 -73 -110 -103 0 -10 5
-15 10 -12 6 4 8 11 5 16 -4 5 -1 9 4 9 6 0 11 5 11 10 0 17 51 60 71 60 10 0
21 5 24 10 8 12 145 13 145 1 0 -5 12 -11 28 -14 15 -3 45 -21 66 -40 l40 -34
-39 -36 c-22 -20 -42 -37 -45 -37 -4 0 -17 11 -30 25 -13 14 -31 25 -41 25
-10 0 -21 5 -24 10 -10 16 -48 11 -71 -8 -49 -40 -30 -83 34 -81 l37 2 -40 6
c-27 4 -41 12 -43 23 -5 24 21 48 51 48 27 0 87 -27 87 -39 0 -10 50 -33 50
-23 0 4 21 21 45 37 25 17 45 36 45 43 0 18 -60 71 -87 78 -13 4 -23 9 -23 13
0 22 -162 42 -175 21z"/>
<path d="M1595 2340 c-3 -5 -15 -10 -26 -10 -10 0 -19 -4 -19 -10 0 -5 -6 -10
-13 -10 -18 0 -67 -48 -67 -66 0 -9 12 -2 33 19 17 18 47 41 66 50 44 22 138
22 181 1 40 -20 110 -89 110 -107 0 -8 -17 -22 -37 -33 -21 -10 -39 -22 -41
-26 -6 -13 -22 -9 -22 5 -1 19 -32 51 -64 65 -22 10 -35 10 -60 1 -40 -14 -79
-69 -73 -101 l4 -23 2 24 c1 30 63 91 91 91 22 0 61 -19 72 -35 34 -50 32 -49
71 -30 20 9 37 21 37 26 0 5 7 9 15 9 27 0 16 45 -21 88 -19 23 -42 42 -50 42
-8 0 -14 5 -14 10 0 6 -9 10 -20 10 -11 0 -20 5 -20 10 0 6 -28 10 -64 10 -36
0 -68 -4 -71 -10z"/>
<path d="M1902 2058 l3 -273 68 -2 67 -1 0 274 0 274 -70 0 -70 0 2 -272z
m128 -3 l0 -255 -55 0 -55 0 0 63 c0 34 -1 149 -3 255 l-2 192 58 0 57 0 0
-255z"/>
<path d="M2145 2317 c-3 -7 -4 -129 -3 -272 l3 -260 72 -2 72 -2 3 82 3 82 80
6 c84 6 125 16 125 30 0 5 6 9 13 9 20 0 59 66 54 92 l-4 23 -2 -22 c0 -13 -5
-23 -11 -23 -5 0 -10 -7 -10 -15 0 -8 -16 -27 -35 -42 -31 -25 -45 -29 -127
-33 l-93 -5 -3 -82 -3 -83 -64 0 -65 0 0 255 0 256 163 -3 c89 -2 169 -5 177
-8 21 -7 50 -40 50 -57 0 -8 4 -12 9 -8 5 3 13 -25 17 -61 5 -51 9 -63 16 -49
7 11 7 25 -1 42 -6 13 -11 34 -11 47 0 29 -57 96 -82 96 -10 0 -16 5 -13 10 4
7 -52 10 -160 10 -124 0 -167 -3 -170 -13z"/>
<path d="M2606 2312 c-8 -23 1 -509 9 -522 3 -5 37 -10 76 -10 l69 0 0 79 c0
49 4 83 11 87 7 4 45 6 85 5 47 -2 74 2 74 8 0 6 9 11 20 11 11 0 20 4 20 9 0
5 8 12 18 15 35 11 57 73 56 156 0 72 -3 81 -33 119 -18 22 -41 41 -52 41 -10
0 -19 5 -19 10 0 6 -61 10 -164 10 -148 0 -165 -2 -170 -18z m372 -27 c34 -30
57 -84 56 -135 0 -63 -7 -99 -16 -94 -4 3 -8 -1 -8 -9 0 -16 -34 -48 -70 -65
-14 -6 -61 -13 -105 -14 l-80 -3 -3 -82 -3 -83 -64 0 -65 0 0 256 0 255 168
-3 c150 -3 169 -5 190 -23z"/>
<path d="M2750 2140 l0 -80 50 0 c70 0 98 16 106 58 10 53 -5 87 -41 89 l-30
2 28 -12 c15 -6 30 -21 33 -34 8 -32 -4 -73 -21 -73 -8 0 -15 -5 -15 -11 0 -6
-19 -9 -47 -7 l-48 3 0 65 0 65 35 6 35 6 -42 2 -43 1 0 -80z"/>
<path d="M1437 2188 c-13 -28 -18 -67 -18 -128 -1 -121 13 -167 72 -228 48
-51 62 -56 149 -58 61 -1 67 0 20 3 -36 2 -69 8 -75 14 -5 5 -16 9 -25 9 -18
0 -80 53 -80 69 0 6 -4 11 -9 11 -5 0 -13 15 -16 33 -4 17 -12 35 -17 38 -12
8 -11 183 1 208 6 12 15 30 21 41 5 10 6 21 2 24 -4 2 -16 -14 -25 -36z"/>
<path d="M2280 2138 l0 -81 67 6 c80 6 107 30 99 86 -8 51 -25 62 -100 67
l-66 3 0 -81z m109 61 c33 -12 47 -42 37 -81 -9 -36 -76 -59 -120 -42 -20 8
-23 119 -3 127 21 9 53 7 86 -4z"/>
<path d="M944 2144 c2 -33 10 -71 17 -83 23 -36 109 -73 160 -68 l44 4 -47 1
c-27 1 -48 7 -48 12 0 6 -9 10 -20 10 -11 0 -20 4 -20 9 0 5 -10 11 -22 15
-31 7 -50 41 -59 106 l-8 55 3 -61z"/>
<path d="M1198 2113 c12 -2 30 -2 40 0 9 3 -1 5 -23 4 -22 0 -30 -2 -17 -4z"/>
<path d="M1260 2100 c0 -5 8 -10 18 -10 21 -1 55 -28 71 -57 14 -27 15 -143 1
-143 -5 0 -10 -6 -10 -14 0 -20 -67 -76 -90 -76 -11 0 -20 -4 -20 -10 0 -38
101 28 124 81 17 37 23 169 8 169 -5 0 -14 10 -21 23 -17 31 -81 61 -81 37z"/>
<path d="M1552 2065 c-2 -66 16 -119 48 -148 29 -25 39 -29 77 -24 42 4 50 10
85 61 11 16 98 -27 98 -49 0 -21 -90 -105 -114 -105 -14 0 -17 -3 -10 -10 18
-18 87 26 117 72 24 39 21 62 -10 79 -16 8 -30 17 -33 20 -3 4 -14 9 -25 13
-16 4 -29 -4 -55 -34 -27 -32 -41 -40 -68 -40 -20 0 -31 4 -27 10 3 6 -1 10
-9 10 -25 0 -54 53 -64 115 -5 33 -10 47 -10 30z"/>
<path d="M1170 1980 c0 -5 11 -10 24 -10 32 0 42 -28 17 -52 -22 -19 -111 -26
-111 -8 0 6 -6 10 -14 10 -7 0 -25 11 -40 25 -27 25 -46 32 -46 17 0 -4 -15
-16 -32 -27 -37 -21 -52 -35 -55 -52 -2 -11 59 -70 96 -91 29 -17 136 -29 181
-21 24 4 9 7 -47 8 -48 0 -83 5 -83 11 0 6 -7 10 -15 10 -26 0 -85 33 -91 52
-3 10 -10 18 -15 18 -13 0 -11 19 4 33 7 7 26 20 43 29 29 16 31 16 55 -5 27
-24 37 -28 87 -35 56 -7 101 6 108 33 8 33 -12 65 -41 65 -14 0 -25 -4 -25
-10z"/>
<path d="M1625 1688 c-11 -6 -23 -16 -27 -22 -15 -21 -8 -73 11 -90 23 -21 65
-18 69 5 2 12 -4 15 -28 11 -29 -4 -30 -3 -30 31 0 36 23 67 35 47 8 -13 25
-13 25 0 0 18 -34 29 -55 18z"/>
<path d="M999 1668 c-10 -18 -8 -24 12 -39 13 -10 30 -19 37 -19 6 0 12 -4 12
-10 0 -11 -10 -13 -55 -10 -29 2 -29 1 -10 -14 27 -21 58 -20 80 4 23 26 14
46 -30 60 -29 10 -34 15 -24 26 8 10 16 11 29 4 18 -10 36 1 23 14 -15 15 -63
5 -74 -16z"/>
<path d="M1132 1661 c-7 -16 -16 -47 -19 -68 -6 -36 -6 -37 11 -20 22 21 34
22 58 0 17 -15 18 -14 18 20 0 21 -4 37 -9 37 -5 0 -11 14 -14 30 -8 38 -28
38 -45 1z m38 -43 c0 -5 -7 -8 -15 -8 -15 0 -20 21 -8 33 7 7 23 -11 23 -25z"/>
<path d="M1230 1624 c0 -41 4 -63 10 -59 6 3 10 20 10 37 0 26 2 29 15 18 8
-7 15 -17 15 -22 0 -14 27 -38 34 -31 10 11 7 123 -4 123 -5 0 -10 -13 -10
-30 0 -16 -4 -30 -9 -30 -5 0 -15 14 -23 30 -22 52 -38 37 -38 -36z"/>
<path d="M1340 1680 c0 -5 7 -10 15 -10 12 0 15 -13 15 -56 0 -49 2 -55 15
-44 9 8 15 29 15 56 0 30 5 46 18 53 13 8 7 10 -30 11 -27 0 -48 -4 -48 -10z"/>
<path d="M1454 1673 c-3 -10 -12 -35 -20 -56 -17 -46 -17 -47 1 -47 8 0 15 5
15 10 0 16 36 12 50 -5 21 -25 29 2 13 43 -7 20 -16 45 -20 55 -3 9 -12 17
-19 17 -8 0 -17 -8 -20 -17z m24 -62 c-15 -5 -21 7 -13 26 7 17 8 17 15 -2 4
-11 3 -22 -2 -24z"/>
<path d="M1711 1630 c1 -33 5 -63 10 -66 5 -3 9 6 9 20 0 33 23 34 40 1 16
-30 32 -23 24 12 -4 16 -2 28 7 33 10 7 10 14 1 34 -10 22 -18 26 -52 26 l-40
0 1 -60z m53 44 c23 -9 20 -44 -3 -44 -24 0 -33 13 -25 34 7 18 7 18 28 10z"/>
<path d="M1840 1639 c0 -52 15 -79 44 -79 29 0 46 30 46 81 0 51 -19 70 -21
22 -3 -64 -4 -68 -24 -68 -17 0 -20 8 -23 48 -4 63 -22 60 -22 -4z"/>
<path d="M1965 1680 c3 -5 13 -10 21 -10 22 0 17 -24 -11 -54 -14 -15 -25 -31
-25 -36 0 -12 42 -23 66 -18 29 5 29 28 0 28 -29 0 -32 5 -13 25 52 59 51 75
-4 75 -24 0 -38 -4 -34 -10z"/>
<path d="M2110 1630 c0 -33 4 -60 10 -60 6 0 10 27 10 60 0 33 -4 60 -10 60
-6 0 -10 -27 -10 -60z"/>
<path d="M2170 1629 c0 -44 3 -60 13 -57 6 3 13 15 13 27 2 34 11 35 25 2 23
-51 39 -39 39 29 0 33 -4 60 -9 60 -5 0 -9 -14 -9 -30 1 -44 -7 -46 -26 -5
-27 56 -46 46 -46 -26z"/>
<path d="M2309 1669 c-10 -19 -8 -25 12 -40 13 -10 30 -19 37 -19 6 0 12 -4
12 -10 0 -5 -16 -10 -36 -10 -31 0 -35 -2 -24 -15 18 -21 53 -19 73 6 24 27
15 48 -23 55 -36 8 -42 15 -30 34 8 13 13 13 31 2 18 -11 20 -11 17 0 -8 23
-55 22 -69 -3z"/>
<path d="M2423 1672 c10 -11 17 -36 17 -60 0 -23 5 -42 10 -42 6 0 10 20 10
45 0 31 5 47 15 51 29 11 15 24 -27 24 -39 0 -40 -1 -25 -18z"/>
<path d="M2510 1624 c0 -48 3 -65 13 -62 7 3 13 28 15 66 2 51 0 62 -13 62
-12 0 -15 -13 -15 -66z"/>
<path d="M2560 1681 c0 -5 7 -11 15 -15 11 -4 15 -21 15 -58 0 -38 3 -49 10
-38 5 8 10 30 10 49 0 19 7 43 17 53 15 17 14 18 -25 18 -23 0 -42 -4 -42 -9z"/>
<path d="M2657 1668 c-12 -46 18 -108 53 -108 30 0 50 34 50 83 0 35 -4 47
-15 47 -11 0 -15 -12 -15 -51 0 -47 -2 -50 -22 -47 -20 3 -23 10 -26 51 -3 50
-16 62 -25 25z"/>
<path d="M2788 1673 c17 -12 22 -25 22 -60 0 -27 4 -42 10 -38 6 3 10 22 10
42 0 20 7 45 17 55 15 17 14 18 -33 17 -47 0 -48 -1 -26 -16z"/>
<path d="M2882 1628 l3 -63 38 -3 c28 -2 37 0 37 12 0 11 -9 16 -30 16 -41 0
-39 27 3 39 l32 9 -32 1 c-18 1 -33 4 -33 9 0 15 18 34 27 29 5 -3 15 -2 23 4
11 6 2 9 -28 9 l-43 0 3 -62z"/>
<path d="M970 1410 c0 -47 3 -60 15 -60 9 0 15 9 15 25 0 18 5 25 19 25 11 0
23 5 26 10 3 6 -5 10 -19 10 -14 0 -27 4 -31 9 -8 14 30 32 49 25 9 -3 16 -1
16 5 0 6 -19 11 -45 11 l-45 0 0 -60z"/>
<path d="M1090 1451 c-12 -23 -13 -71 -2 -87 11 -16 42 -25 63 -19 24 8 39 62
26 98 -7 22 -15 27 -43 27 -23 0 -37 -6 -44 -19z m78 -44 c-4 -25 -30 -42 -52
-34 -21 8 -21 56 2 73 14 10 20 10 35 -4 10 -9 17 -25 15 -35z"/>
<path d="M1219 1443 c-4 -91 4 -129 17 -79 7 31 19 33 36 6 7 -11 19 -20 27
-20 11 0 11 3 1 15 -11 13 -10 20 1 41 18 35 2 58 -45 62 -33 3 -36 1 -37 -25z
m58 -3 c2 -25 -14 -35 -33 -20 -11 10 -12 16 -3 26 17 20 35 17 36 -6z"/>
<path d="M1381 1456 c-14 -17 -9 -92 8 -109 8 -8 11 -4 11 16 0 23 4 27 28 27
36 0 63 40 42 65 -16 19 -74 20 -89 1z m53 -2 c20 -8 21 -40 2 -47 -19 -8 -38
16 -30 37 7 18 7 18 28 10z"/>
<path d="M1495 1410 c-19 -64 -17 -81 8 -55 20 20 44 19 55 -1 19 -34 22 6 5
58 -25 75 -45 74 -68 -2z m43 -15 c-2 -10 -8 -12 -17 -6 -12 8 -12 11 0 24 15
16 23 8 17 -18z"/>
<path d="M1609 1455 c0 -8 -1 -33 -1 -55 0 -59 1 -62 12 -55 6 3 10 15 10 26
0 25 16 24 32 -1 7 -11 19 -20 25 -20 11 0 11 4 1 20 -10 15 -10 22 0 32 17
17 15 55 -4 62 -31 12 -74 7 -75 -9z m55 -8 c17 -17 9 -37 -15 -37 -19 0 -27
29 -12 43 9 10 13 9 27 -6z"/>
<path d="M1726 1455 c4 -8 10 -15 15 -15 5 0 9 -24 9 -52 1 -41 3 -49 11 -35
6 9 9 32 7 50 -2 22 3 37 17 49 19 17 19 17 -22 18 -34 0 -41 -3 -37 -15z"/>
<path d="M1820 1411 c0 -33 5 -63 10 -66 6 -4 10 18 10 59 0 37 -4 66 -10 66
-6 0 -10 -26 -10 -59z"/>
<path d="M1886 1454 c-39 -39 -2 -123 48 -110 38 9 34 34 -4 28 -28 -4 -30 -2
-30 31 0 36 23 67 35 47 3 -5 13 -10 22 -10 13 0 13 3 3 15 -16 20 -54 19 -74
-1z"/>
<path d="M2001 1470 c-7 -14 -10 -97 -4 -107 5 -6 21 -15 36 -18 21 -6 27 -4
27 9 0 10 -9 16 -24 16 -23 0 -25 4 -29 53 -2 28 -5 50 -6 47z"/>
<path d="M2089 1468 c0 -2 -2 -29 -4 -60 -2 -44 0 -58 11 -59 45 -5 68 -3 72
9 2 8 -7 12 -28 12 -25 0 -31 4 -28 18 2 10 13 17 26 18 36 2 39 14 4 14 -18
0 -32 2 -32 4 0 15 14 35 21 30 5 -3 17 0 26 5 14 8 9 10 -24 11 -24 0 -43 -1
-44 -2z"/>
<path d="M2239 1463 c-9 -58 -6 -103 6 -113 13 -10 15 -8 15 14 0 22 4 26 28
26 36 0 57 32 40 60 -9 14 -24 20 -50 20 -21 0 -39 -3 -39 -7z m61 -18 c15
-18 5 -35 -21 -35 -14 0 -19 7 -19 25 0 28 21 33 40 10z"/>
<path d="M2357 1463 c-2 -5 -2 -14 -1 -20 1 -7 2 -34 3 -59 1 -47 21 -54 21
-8 0 21 4 25 23 22 16 -2 23 -11 25 -30 6 -54 22 -27 22 37 0 66 -12 86 -24
40 -4 -16 -13 -25 -26 -25 -15 0 -20 7 -20 25 0 23 -14 34 -23 18z"/>
<path d="M2480 1459 c0 -6 7 -17 15 -25 8 -9 15 -31 15 -50 0 -24 5 -34 15
-34 10 0 15 10 15 34 0 18 7 39 15 46 17 14 20 40 5 40 -6 0 -13 -7 -16 -15
-4 -8 -12 -15 -20 -15 -8 0 -14 7 -14 15 0 8 -7 15 -15 15 -8 0 -15 -5 -15
-11z"/>
<path d="M2600 1450 c-14 -26 -8 -36 36 -50 26 -9 32 -15 25 -24 -6 -7 -24
-11 -41 -8 -37 5 -40 -13 -4 -22 35 -9 62 1 69 25 9 26 -11 49 -41 49 -17 0
-24 6 -24 20 0 11 7 20 15 20 8 0 15 -4 15 -10 0 -5 7 -10 16 -10 29 0 8 25
-24 28 -23 2 -33 -2 -42 -18z"/>
<path d="M2720 1411 c0 -33 5 -63 10 -66 6 -4 10 15 10 49 0 31 0 59 1 63 0 4
-4 9 -10 11 -7 2 -11 -18 -11 -57z"/>
<path d="M2780 1436 c-19 -60 17 -108 70 -91 30 10 26 37 -5 29 -49 -12 -70
43 -28 78 13 10 17 10 20 1 5 -15 33 -18 33 -4 0 11 -25 21 -55 21 -18 0 -26
-8 -35 -34z"/>
<path d="M2896 1454 c-11 -28 -7 -35 29 -50 45 -19 45 -34 -1 -34 -31 0 -35
-2 -24 -15 18 -22 57 -18 74 7 20 28 4 58 -29 58 -15 0 -25 6 -25 14 0 19 17
29 25 16 10 -16 35 -12 29 5 -8 21 -70 20 -78 -1z"/>
<path d="M1097 1219 c-32 -18 -20 -177 15 -186 10 -3 18 -9 18 -14 0 -5 16 -9
35 -9 19 0 35 5 35 10 0 6 7 10 15 10 8 0 15 6 15 14 0 8 8 17 18 20 14 5 17
14 14 41 -5 41 14 95 34 95 8 0 14 5 14 10 0 6 11 10 25 10 14 0 25 -4 25 -10
0 -5 6 -10 14 -10 18 0 30 -30 17 -43 -7 -7 -17 -5 -31 8 -15 14 -23 15 -34 6
-17 -14 -28 -51 -15 -51 5 0 9 6 9 14 0 23 22 31 35 13 13 -19 35 -23 35 -7 0
6 7 10 15 10 44 0 -7 68 -57 76 -27 5 -40 1 -65 -20 -31 -26 -44 -32 -42 -18
4 21 -3 32 -18 31 -11 0 -13 -3 -5 -6 19 -7 16 -147 -4 -167 -19 -20 -73 -20
-99 -1 -29 22 -35 140 -9 160 23 16 16 27 -9 14z"/>
<path d="M1520 1221 c0 -5 -8 -7 -19 -4 -23 6 -41 -40 -30 -77 12 -41 10 -60
-6 -60 -8 0 -15 -5 -15 -11 0 -14 25 -39 39 -39 6 0 11 -4 11 -10 0 -5 18 -10
40 -10 22 0 40 5 40 10 0 6 9 10 20 10 11 0 20 -4 20 -10 0 -19 42 -10 61 13
l19 22 19 -22 c27 -32 116 -34 126 -3 3 11 10 20 15 20 5 0 12 -9 15 -20 8
-25 43 -26 61 -2 8 9 14 43 14 76 0 51 2 57 15 46 12 -10 15 -10 15 4 0 9 -7
16 -15 16 -8 0 -15 5 -15 10 0 6 -1 13 -2 18 -1 4 11 10 28 14 19 4 8 6 -34 5
-70 0 -88 -15 -76 -62 9 -38 27 -30 22 10 -4 31 -1 35 19 35 22 0 23 -3 23
-85 0 -78 -2 -85 -20 -85 -13 0 -27 14 -42 43 l-23 42 -3 -43 c-3 -38 -6 -43
-25 -40 -20 3 -22 9 -25 84 -2 65 0 83 12 87 9 4 22 0 30 -9 8 -8 17 -11 20
-6 9 15 -9 28 -39 28 -29 -1 -30 -3 -33 -48 -3 -46 -22 -70 -22 -28 0 11 -4
20 -8 20 -4 0 -8 10 -9 22 -2 23 -29 56 -38 46 -3 -3 1 -13 10 -21 8 -9 15
-20 15 -25 0 -5 7 -23 15 -38 8 -16 15 -39 15 -51 0 -12 5 -25 10 -28 6 -3 10
-13 10 -21 0 -19 -39 -18 -46 1 -4 9 -19 15 -35 15 -19 0 -29 -5 -29 -15 0
-10 -10 -15 -26 -15 -20 0 -25 4 -21 18 11 35 30 88 38 104 5 10 9 25 9 33 0
8 5 15 10 15 6 0 10 5 10 10 0 27 -20 4 -41 -47 -12 -31 -25 -51 -27 -45 -2 7
-8 9 -13 6 -6 -4 -6 -11 1 -19 12 -15 -2 -52 -24 -67 -13 -9 -68 -10 -90 -2
-26 10 -20 44 8 44 13 0 26 -5 28 -11 5 -14 38 0 38 17 0 8 -10 14 -26 14 -44
0 -64 17 -64 55 0 31 5 37 43 54 32 15 36 20 20 21 -13 0 -23 -4 -23 -9z"/>
<path d="M2011 1214 c0 -11 3 -14 6 -6 3 7 2 16 -1 19 -3 4 -6 -2 -5 -13z"/>
<path d="M2057 1217 c-3 -9 -2 -17 3 -17 6 0 10 -7 10 -15 0 -14 -12 -19 -32
-16 -5 0 -8 -23 -8 -53 0 -30 -3 -61 -6 -70 -7 -17 -34 -22 -34 -6 0 6 -4 10
-9 10 -5 0 -7 -9 -4 -20 5 -17 14 -20 60 -20 44 0 58 4 72 22 l18 22 19 -22
c20 -24 60 -30 66 -10 6 17 -13 108 -22 108 -4 0 -10 18 -14 40 -7 47 -30 63
-74 51 -21 -6 -32 -6 -35 2 -2 6 -6 3 -10 -6z m113 -64 c0 -10 7 -31 15 -47
29 -55 10 -103 -25 -61 -7 8 -23 15 -37 15 -13 0 -26 -7 -29 -15 -4 -8 -13
-15 -21 -15 -13 0 -15 10 -10 53 3 28 3 44 0 35 -7 -27 -23 -21 -23 8 0 23 3
25 25 20 20 -5 25 -3 25 12 0 10 8 28 18 40 l17 21 23 -24 c12 -13 22 -32 22
-42z"/>
<path d="M2120 1120 c0 -11 7 -20 15 -20 13 0 14 4 5 20 -6 11 -13 20 -15 20
-3 0 -5 -9 -5 -20z"/>
<path d="M2308 1212 c-16 -9 -28 -25 -27 -37 0 -19 1 -19 11 3 6 12 17 22 25
22 7 0 13 5 13 10 0 19 41 10 67 -14 25 -24 24 -46 -2 -46 -8 0 -18 7 -22 15
-8 13 -11 13 -31 -1 -26 -18 -30 -67 -8 -90 17 -16 36 -19 36 -4 0 6 11 10 25
10 29 0 33 -17 8 -36 -35 -26 -113 -9 -113 25 0 6 -4 11 -8 11 -5 0 -9 16 -10
36 -2 49 -12 57 -12 10 0 -44 25 -96 45 -96 8 0 15 -4 15 -10 0 -5 16 -10 35
-10 19 0 35 5 35 10 0 6 9 10 19 10 11 0 23 -4 26 -10 10 -17 44 -11 54 9 6
10 7 21 4 25 -3 3 -1 6 5 6 7 0 12 -5 12 -11 0 -17 27 -39 49 -39 23 0 38 37
22 53 -14 14 -14 47 -1 47 6 0 10 -7 10 -15 0 -25 23 -65 37 -65 10 0 8 6 -7
22 -16 17 -20 35 -20 85 0 35 4 63 10 63 6 0 10 5 10 10 0 14 -27 12 -33 -2
-4 -10 -7 -10 -18 0 -16 14 -49 16 -49 2 0 -5 9 -10 20 -10 25 0 37 -43 22
-83 -8 -21 -8 -35 0 -53 6 -13 9 -27 5 -30 -13 -13 -46 9 -56 36 -14 41 -31
38 -31 -5 0 -27 -4 -35 -19 -35 -15 0 -19 10 -24 53 -6 49 4 121 18 135 3 4
11 0 16 -8 9 -13 10 -13 7 -1 -6 22 -24 24 -42 6 -14 -15 -18 -15 -38 -1 -29
20 -56 20 -90 -2z m70 -74 c8 -8 15 -8 27 2 13 11 15 9 15 -14 0 -25 -8 -31
-37 -27 -7 1 -13 -3 -13 -9 0 -19 -28 -10 -33 11 -11 41 14 64 41 37z"/>
<path d="M2696 1215 c-10 -10 -13 -26 -9 -50 6 -39 -3 -85 -17 -85 -6 0 -10
31 -10 70 0 59 -3 70 -17 70 -13 0 -14 -3 -5 -12 7 -7 12 -39 12 -74 0 -41 4
-64 13 -67 29 -10 37 6 37 69 0 35 4 64 8 64 5 0 9 7 9 15 0 19 -2 19 -21 0z"/>
<path d="M2758 1223 c-24 -4 -41 -23 -20 -23 12 0 13 -83 1 -120 -14 -41 -24
-50 -61 -50 -15 0 -30 -4 -33 -10 -4 -6 8 -10 29 -10 20 0 36 5 36 10 0 6 9
10 20 10 11 0 20 -4 20 -10 0 -6 31 -10 74 -10 71 0 74 1 80 25 8 33 1 45 -30
45 -31 0 -30 11 1 42 26 26 43 82 28 91 -5 3 -24 2 -43 -3 l-35 -8 38 -1 c47
-1 47 -14 -3 -71 -22 -25 -40 -48 -40 -51 0 -4 18 -9 41 -13 64 -10 44 -31
-34 -34 -63 -3 -67 -2 -67 19 0 12 16 39 35 60 43 48 45 63 6 54 -38 -8 -50
20 -20 46 12 11 18 18 13 18 -5 -1 -21 -4 -36 -6z m30 -90 c-5 -25 -28 -28
-28 -4 0 12 6 21 16 21 9 0 14 -7 12 -17z"/>
<path d="M1137 1163 c6 -81 12 -105 26 -100 8 2 12 27 13 68 l1 64 -4 -57 c-6
-82 -23 -72 -23 12 0 39 -4 70 -8 70 -5 0 -7 -26 -5 -57z"/>
<path d="M1185 1210 c-3 -5 -1 -10 4 -10 6 0 11 5 11 10 0 6 -2 10 -4 10 -3 0
-8 -4 -11 -10z"/>
<path d="M1565 1210 c-3 -5 3 -10 13 -10 24 0 37 -29 18 -36 -8 -3 -24 0 -36
6 -18 10 -24 9 -31 -1 -6 -10 -3 -15 11 -17 11 -2 20 -8 20 -13 0 -6 10 -9 22
-7 31 4 47 50 25 72 -18 18 -33 20 -42 6z"/>
<path d="M2492 1172 c-6 -2 -12 -12 -12 -23 0 -14 7 -19 25 -19 14 0 25 5 25
11 0 16 -24 36 -38 31z"/>
<path d="M1686 1115 c-4 -10 1 -15 14 -15 13 0 18 5 14 15 -4 8 -10 15 -14 15
-4 0 -10 -7 -14 -15z"/>
<path d="M1310 1102 c0 -20 32 -50 38 -34 4 14 52 17 52 3 0 -36 -85 -56 -110
-26 -7 8 -17 15 -24 15 -6 0 1 -11 16 -25 27 -25 88 -35 88 -15 0 6 6 10 13
10 21 0 40 39 26 56 -14 17 -56 18 -62 2 -3 -9 -10 -7 -21 7 -9 12 -15 15 -16
7z"/>
</g>
</svg>
