<?xml version="1.0" standalone="no"?>
<!DOCTYPE svg PUBLIC "-//W3C//DTD SVG 20010904//EN"
 "http://www.w3.org/TR/2001/REC-SVG-20010904/DTD/svg10.dtd">
<svg version="1.0" xmlns="http://www.w3.org/2000/svg"
 width="628.000000pt" height="630.000000pt" viewBox="0 0 628.000000 630.000000"
 preserveAspectRatio="xMidYMid meet">

<g transform="translate(0.000000,630.000000) scale(0.100000,-0.100000)"
fill="#000000" stroke="none">
<path d="M3215 6288 c-11 -6 -25 -18 -30 -25 -9 -12 -14 -11 -29 6 -25 27 -77
28 -101 1 l-18 -20 -22 20 c-30 28 -69 26 -95 -7 l-20 -26 -21 21 c-27 30 -65
28 -95 -5 -16 -17 -28 -23 -32 -17 -25 39 -94 35 -107 -5 -8 -25 -18 -26 -35
-6 -7 8 -28 15 -47 15 -27 0 -37 -6 -50 -29 l-17 -29 -27 20 c-35 26 -70 18
-89 -19 -8 -16 -15 -30 -17 -32 -1 -2 -9 4 -18 13 -34 34 -90 14 -109 -38 -6
-17 -8 -18 -24 -2 -36 32 -87 14 -105 -37 -6 -16 -8 -17 -31 -2 -35 23 -73 11
-87 -30 -12 -32 -12 -32 -41 -17 -32 15 -75 5 -82 -20 -15 -48 -14 -47 -44
-36 -40 15 -77 -8 -86 -53 -5 -25 -9 -30 -18 -21 -13 13 -57 16 -75 4 -6 -4
-17 -20 -23 -36 -8 -21 -14 -26 -28 -21 -56 24 -102 2 -102 -50 0 -22 -3 -24
-30 -19 -42 9 -80 -18 -80 -56 0 -27 -2 -28 -35 -23 -44 7 -75 -17 -75 -59 0
-27 -2 -29 -34 -23 -42 8 -76 -20 -76 -64 0 -28 -2 -29 -33 -24 -40 6 -70 -23
-70 -67 0 -28 -3 -30 -37 -30 -45 0 -60 -14 -60 -60 0 -35 -2 -36 -29 -32 -43
6 -75 -29 -67 -73 7 -34 6 -34 -26 -29 -46 8 -73 -22 -65 -71 6 -34 5 -35 -27
-35 -46 0 -70 -29 -62 -73 6 -33 5 -34 -19 -29 -18 3 -34 -3 -51 -19 -21 -20
-24 -29 -19 -61 7 -37 6 -38 -23 -38 -41 0 -56 -22 -49 -70 5 -38 4 -40 -22
-40 -40 0 -63 -30 -59 -76 3 -34 0 -39 -20 -42 -36 -5 -56 -45 -43 -83 14 -41
15 -39 -17 -39 -15 0 -33 -5 -40 -12 -15 -15 -16 -70 0 -86 6 -6 10 -13 7 -14
-2 -2 -17 -10 -34 -18 -23 -12 -31 -24 -33 -49 -2 -18 1 -38 7 -44 17 -17 13
-25 -16 -29 -17 -2 -33 -13 -42 -30 -13 -23 -13 -30 -1 -55 8 -15 16 -31 18
-35 2 -5 -5 -8 -16 -8 -43 0 -70 -73 -37 -100 22 -18 19 -26 -15 -40 -37 -15
-48 -51 -26 -85 21 -32 20 -34 -9 -45 -14 -5 -30 -21 -37 -35 -10 -22 -8 -30
10 -55 27 -36 27 -38 0 -42 -13 -2 -29 -15 -36 -31 -12 -24 -11 -32 6 -61 l19
-32 -28 -17 c-36 -20 -39 -67 -8 -98 11 -11 19 -22 17 -23 -1 -2 -13 -8 -24
-14 -33 -17 -36 -58 -8 -92 l24 -28 -25 -16 c-32 -21 -34 -74 -4 -101 20 -19
20 -19 0 -35 -34 -26 -37 -65 -6 -96 l26 -26 -20 -20 c-30 -27 -27 -72 6 -98
l26 -20 -21 -21 c-30 -28 -28 -62 7 -91 l28 -24 -23 -28 c-31 -36 -30 -52 6
-86 29 -27 29 -28 10 -45 -20 -18 -26 -60 -12 -81 4 -6 17 -16 30 -23 l23 -12
-21 -26 c-11 -14 -20 -34 -20 -44 0 -19 28 -53 50 -61 8 -2 7 -13 -7 -36 -16
-29 -17 -34 -3 -59 9 -16 26 -29 38 -31 26 -4 27 -10 7 -36 -29 -38 -12 -82
37 -99 16 -5 16 -9 2 -36 -21 -41 -2 -85 39 -89 31 -4 33 -13 10 -48 -15 -24
-15 -27 4 -52 11 -15 30 -28 42 -30 17 -3 21 -8 15 -20 -25 -60 -13 -96 37
-107 24 -6 27 -9 19 -25 -25 -46 1 -100 49 -100 19 0 21 -4 15 -22 -19 -57 3
-98 54 -98 20 0 22 -3 16 -22 -17 -53 0 -85 49 -90 23 -2 31 -7 28 -18 -13
-49 -12 -59 8 -79 12 -12 32 -21 46 -21 24 0 25 -3 20 -34 -9 -45 23 -80 66
-74 28 4 29 3 23 -31 -7 -49 11 -71 59 -73 34 -1 38 -4 33 -22 -12 -48 21 -86
74 -86 16 0 20 -7 20 -34 0 -43 22 -66 64 -66 30 0 33 -3 33 -30 0 -43 25 -65
69 -62 36 3 37 2 31 -28 -9 -43 21 -73 71 -68 34 3 37 1 43 -31 9 -43 25 -53
71 -46 37 5 38 5 38 -28 0 -44 15 -57 67 -57 39 0 43 -2 43 -24 0 -34 34 -56
76 -49 29 5 34 3 34 -14 0 -33 34 -55 77 -51 33 3 38 0 41 -19 5 -32 26 -45
69 -41 34 3 40 0 53 -27 14 -27 19 -30 61 -28 43 1 47 -1 60 -30 14 -33 38
-40 85 -24 16 6 23 2 32 -18 17 -38 53 -51 88 -32 28 14 29 14 46 -14 19 -31
61 -39 99 -19 16 9 21 7 29 -14 12 -33 55 -44 90 -24 25 14 27 14 43 -14 18
-31 60 -38 99 -17 16 9 23 7 34 -10 28 -39 51 -45 92 -21 23 14 38 18 40 11
14 -42 65 -53 103 -22 23 18 23 18 42 -5 23 -30 76 -33 102 -4 17 19 18 19 37
-5 24 -31 64 -32 95 -4 l22 22 18 -21 c29 -34 57 -36 91 -7 25 21 32 23 39 12
9 -16 46 -37 63 -37 6 0 22 12 37 26 23 23 27 24 42 10 25 -23 71 -20 98 6 21
20 24 20 41 5 28 -25 67 -21 91 9 19 24 21 25 43 10 34 -24 65 -20 89 14 20
27 24 28 43 15 11 -8 33 -15 48 -15 24 0 39 13 63 58 1 1 16 -5 33 -14 40 -20
68 -11 88 27 12 24 18 28 29 19 22 -19 76 -15 91 5 8 11 14 25 14 32 0 15 26
18 35 3 3 -5 19 -10 34 -10 28 0 53 20 64 53 5 14 11 16 26 7 47 -25 101 3
101 52 0 17 2 17 30 3 39 -20 79 -3 87 37 5 26 8 28 38 22 49 -9 74 3 83 39 8
30 11 32 49 29 47 -4 73 16 73 54 0 23 3 24 34 19 47 -9 74 8 78 48 2 22 7 31
18 28 56 -13 100 13 100 60 0 26 2 27 35 22 44 -7 75 17 75 58 0 24 3 27 34
26 45 -1 66 18 66 59 0 32 2 34 35 34 47 0 77 30 69 68 -5 27 -4 28 31 28 46
0 68 25 63 72 -4 30 -2 32 27 32 42 0 69 30 63 70 -4 28 -3 30 29 30 42 0 68
35 58 80 -6 29 -5 30 23 28 46 -3 65 18 59 69 -4 41 -3 43 23 43 40 0 64 32
57 75 -5 30 -3 35 14 35 49 0 81 49 59 90 -12 22 -10 23 42 34 33 7 46 46 30
88 -9 25 -8 28 9 28 10 0 28 9 40 21 20 20 21 41 4 81 -5 14 -2 18 14 18 12 0
30 9 42 21 21 21 22 45 4 90 -4 12 1 18 20 23 38 10 51 46 31 87 -20 40 -20
39 2 39 44 0 68 66 36 101 -15 17 -14 19 20 33 31 13 36 19 36 49 0 18 -6 42
-14 52 -12 17 -10 20 18 34 40 20 47 63 16 96 l-22 23 29 14 c38 18 44 70 12
104 -12 13 -17 24 -10 24 17 0 61 46 61 64 0 8 -12 28 -26 45 -18 22 -21 31
-11 31 21 0 47 33 47 60 0 13 -10 34 -22 47 l-21 23 26 21 c33 25 35 61 6 90
l-21 21 21 22 c28 30 28 80 -1 101 l-23 16 22 17 c32 25 39 66 15 90 -11 11
-25 21 -32 24 -9 3 -4 13 13 31 34 33 34 52 -1 87 -28 27 -28 29 -10 44 18 16
24 61 10 82 -4 6 -18 17 -30 23 l-24 13 21 19 c32 30 28 76 -9 97 -30 17 -39
32 -20 32 6 0 15 12 21 27 13 35 -2 70 -36 83 l-25 10 20 20 c35 35 21 93 -25
104 -28 7 -33 21 -10 30 37 14 2 106 -40 106 -18 0 -19 12 -4 27 6 6 9 26 7
44 -2 26 -10 37 -33 49 -28 14 -30 17 -18 40 7 14 13 33 13 42 0 19 -45 58
-67 58 -11 0 -11 5 2 29 25 49 -1 91 -56 91 -20 0 -26 15 -9 25 16 10 12 62
-6 79 -8 9 -27 16 -41 16 -20 0 -24 4 -18 18 16 39 17 53 2 76 -9 13 -30 26
-48 30 -25 5 -30 9 -21 18 18 18 14 63 -6 81 -15 14 -31 19 -71 26 -3 1 0 6 7
13 31 31 -4 98 -52 98 -22 0 -24 3 -19 34 8 51 -10 76 -56 76 l-39 0 5 39 c5
34 2 41 -20 56 -14 9 -36 15 -49 13 -21 -3 -22 0 -20 34 3 30 -1 40 -22 53
-17 11 -35 15 -52 11 -24 -6 -25 -5 -19 22 4 21 0 36 -16 56 -19 24 -27 27
-56 21 -32 -6 -33 -5 -27 20 4 16 0 34 -11 51 -14 22 -23 25 -56 22 -38 -3
-40 -2 -34 20 4 15 -1 34 -10 49 -14 21 -23 24 -56 21 -38 -3 -39 -3 -39 28 0
18 -8 38 -20 49 -17 15 -26 17 -55 8 l-35 -11 0 33 c0 49 -24 69 -76 61 -37
-5 -41 -3 -37 12 6 23 -26 63 -52 64 -11 1 -30 -2 -42 -6 -18 -6 -23 -4 -23
11 0 10 -7 29 -16 42 -14 20 -23 23 -60 18 -41 -4 -43 -3 -49 24 -4 16 -15 34
-25 39 -24 13 -60 13 -60 0 0 -24 -28 -7 -34 20 -7 39 -46 58 -85 43 -25 -9
-29 -8 -38 18 -15 38 -49 51 -90 33 -30 -12 -33 -11 -33 5 0 10 -8 25 -18 34
-20 19 -77 23 -87 7 -11 -17 -20 -11 -32 20 -14 38 -53 49 -90 25 -18 -12 -28
-14 -31 -7 -8 25 -45 62 -61 62 -10 0 -30 -9 -43 -20 l-25 -19 -11 25 c-7 13
-23 29 -37 36 -22 10 -30 8 -55 -10 -34 -26 -40 -27 -40 -8 0 19 -39 46 -66
46 -11 0 -29 -9 -39 -20 -17 -19 -18 -19 -45 10 -33 36 -56 38 -87 8 l-23 -21
-21 26 c-25 33 -71 36 -96 8 -16 -19 -17 -19 -44 10 -29 31 -43 35 -74 17z
m-245 -118 c13 0 34 9 46 21 l22 21 21 -21 c28 -28 75 -27 95 0 l15 22 27 -22
c34 -26 66 -27 89 -1 l18 20 27 -25 c31 -30 70 -32 95 -6 17 20 18 20 42 -10
29 -34 65 -38 90 -10 16 19 17 19 45 -11 23 -25 33 -29 56 -23 15 3 35 14 45
22 10 10 17 12 17 5 0 -20 39 -52 62 -52 12 0 29 7 39 16 17 15 20 14 45 -15
28 -34 59 -39 89 -17 18 13 21 11 37 -14 22 -36 51 -45 88 -27 27 14 30 14 35
-4 4 -10 13 -26 21 -34 17 -17 70 -20 79 -5 11 17 23 11 29 -15 9 -35 49 -52
87 -38 25 10 29 9 29 -6 0 -32 36 -54 79 -48 36 4 39 3 44 -23 7 -35 59 -60
88 -42 25 16 29 15 29 -8 0 -11 9 -29 21 -41 17 -17 29 -20 59 -15 36 6 38 4
44 -24 7 -40 46 -58 87 -43 28 11 29 10 29 -16 0 -40 32 -65 73 -58 32 5 34 4
34 -25 0 -41 36 -71 75 -63 25 6 28 4 28 -17 0 -42 27 -68 69 -68 34 0 38 -2
34 -23 -7 -37 27 -71 70 -69 35 1 36 0 31 -27 -5 -23 0 -32 22 -50 17 -14 38
-21 51 -18 21 4 23 0 23 -34 0 -30 6 -42 25 -55 14 -9 34 -14 45 -11 17 4 20
0 20 -34 0 -46 34 -75 74 -65 23 6 24 4 19 -29 -7 -44 17 -75 58 -75 27 0 28
-2 19 -26 -14 -36 7 -76 46 -89 28 -9 30 -13 22 -35 -12 -31 18 -74 55 -78 30
-4 31 -5 16 -34 -16 -30 7 -78 41 -85 26 -5 27 -8 23 -44 -7 -46 16 -79 53
-79 21 0 21 -2 11 -30 -14 -38 7 -83 41 -88 26 -4 26 -5 10 -49 -11 -29 -10
-35 12 -58 13 -14 29 -25 37 -25 16 0 16 -2 2 -34 -17 -37 -3 -75 32 -88 29
-10 29 -11 14 -35 -22 -33 -12 -69 24 -91 27 -16 28 -19 15 -42 -20 -37 -17
-49 17 -81 29 -27 30 -30 15 -51 -9 -12 -16 -30 -16 -40 0 -19 28 -52 51 -60
11 -4 11 -9 -3 -24 -32 -37 -27 -79 12 -102 29 -18 29 -19 10 -35 -29 -24 -26
-71 6 -96 l25 -20 -20 -20 c-32 -32 -22 -101 14 -101 21 0 19 -14 -5 -35 -27
-25 -25 -66 5 -95 l24 -23 -24 -19 c-31 -24 -33 -68 -5 -93 l20 -18 -25 -27
c-31 -32 -31 -49 -4 -84 l22 -27 -22 -15 c-30 -21 -29 -79 2 -105 12 -10 16
-18 10 -19 -22 0 -53 -39 -53 -65 0 -14 9 -34 19 -44 18 -18 18 -19 -10 -40
-35 -26 -39 -71 -8 -100 l21 -19 -29 -14 c-22 -10 -29 -21 -31 -49 -2 -23 2
-40 12 -48 14 -12 12 -16 -17 -35 -36 -24 -46 -61 -23 -91 13 -19 12 -21 -17
-35 -38 -19 -51 -59 -29 -91 11 -16 12 -24 4 -27 -6 -2 -23 -13 -37 -24 -27
-21 -30 -45 -10 -90 5 -12 3 -18 -6 -18 -37 0 -77 -78 -49 -95 18 -11 11 -23
-19 -33 -39 -14 -57 -47 -42 -79 15 -34 14 -43 -7 -43 -36 0 -65 -50 -51 -87
7 -20 5 -23 -14 -23 -29 0 -67 -35 -67 -61 0 -11 5 -29 10 -40 9 -17 7 -19
-18 -19 -48 0 -77 -47 -57 -93 6 -13 2 -17 -17 -17 -13 0 -34 -7 -47 -16 -19
-14 -22 -23 -18 -53 4 -34 3 -36 -25 -37 -40 -2 -62 -26 -62 -69 0 -31 -3 -35
-26 -35 -42 0 -64 -23 -63 -64 1 -33 -1 -36 -26 -36 -36 0 -64 -32 -63 -70 1
-27 -2 -30 -30 -30 -40 0 -68 -25 -68 -62 0 -25 -3 -28 -34 -28 -39 0 -66 -28
-66 -67 0 -20 -5 -23 -35 -23 -41 0 -75 -29 -75 -63 0 -20 -4 -22 -38 -19 -45
4 -65 -14 -65 -59 0 -23 -4 -28 -16 -23 -37 15 -48 14 -74 -6 -16 -13 -27 -31
-27 -46 0 -21 -3 -24 -25 -18 -44 11 -72 -3 -85 -41 -10 -31 -13 -33 -37 -24
-34 13 -77 -8 -81 -41 -5 -35 -16 -44 -39 -29 -32 20 -73 4 -80 -32 -4 -21
-10 -28 -20 -25 -48 19 -63 17 -87 -8 -15 -14 -26 -32 -26 -41 0 -12 -4 -14
-19 -5 -11 5 -34 10 -51 10 -24 0 -35 -7 -48 -30 -18 -32 -27 -36 -37 -20 -14
22 -64 11 -86 -20 -18 -23 -26 -27 -40 -20 -42 23 -85 5 -102 -43 -7 -18 -8
-17 -33 2 -36 28 -51 26 -84 -9 -27 -29 -29 -29 -58 -15 -35 18 -78 5 -88 -27
-6 -19 -7 -19 -25 -2 -28 25 -78 22 -101 -6 -17 -21 -20 -22 -36 -6 -27 24
-69 20 -96 -9 -23 -25 -23 -25 -41 -5 -23 26 -55 25 -88 0 l-26 -21 -21 21
c-26 26 -64 26 -91 -1 l-21 -21 -14 21 c-20 28 -89 30 -106 2 -12 -19 -13 -19
-35 5 -26 28 -59 31 -93 7 -22 -16 -24 -16 -38 5 -17 26 -67 30 -98 7 -19 -13
-23 -12 -43 10 -24 28 -57 32 -87 10 -19 -13 -23 -12 -43 15 -24 33 -70 41
-91 15 -15 -18 -30 -20 -30 -3 0 6 -7 20 -17 30 -17 19 -78 25 -88 8 -10 -16
-19 -12 -37 20 -13 23 -24 30 -47 30 -16 0 -33 -4 -36 -10 -11 -18 -30 -10
-47 20 -18 31 -56 40 -87 21 -10 -7 -20 0 -36 22 -18 27 -27 32 -61 31 -35 0
-43 4 -57 29 -15 25 -22 28 -58 26 -34 -3 -43 0 -49 17 -12 32 -37 46 -77 42
-33 -3 -38 0 -41 20 -4 28 -34 44 -75 40 -25 -2 -32 1 -35 17 -8 39 -34 57
-74 51 -35 -6 -38 -4 -38 17 0 37 -33 61 -75 54 -33 -5 -35 -4 -35 23 0 48
-50 81 -90 60 -18 -10 -20 -8 -20 19 0 40 -24 61 -70 61 -38 0 -39 1 -34 29 8
40 -26 75 -67 69 -26 -4 -29 -2 -29 25 0 40 -26 67 -65 67 -29 0 -31 2 -27 34
3 27 -1 37 -24 55 -19 15 -36 20 -52 16 -23 -6 -24 -4 -19 24 8 40 -24 81 -63
81 -27 0 -29 2 -24 29 8 41 -10 68 -50 75 -33 6 -34 8 -29 40 4 27 1 36 -21
53 -15 12 -35 19 -46 16 -18 -5 -19 -2 -14 39 6 40 3 47 -17 62 -13 9 -32 16
-42 16 -15 0 -17 5 -11 36 5 29 2 40 -17 60 -12 13 -31 24 -41 24 -15 0 -17 5
-12 25 10 42 -3 72 -37 84 -18 6 -29 16 -26 23 17 46 16 56 -4 81 -11 15 -29
27 -40 27 -16 0 -18 3 -9 19 24 46 5 90 -48 106 -22 6 -22 8 -8 24 32 35 8
101 -36 101 -22 0 -22 -1 -2 38 13 27 13 36 2 59 -7 16 -23 29 -36 31 -26 4
-27 10 -7 36 24 31 18 63 -15 87 -27 20 -28 24 -15 43 23 31 18 62 -14 88 -25
22 -27 27 -15 43 23 31 17 71 -13 94 l-26 21 21 23 c29 31 28 63 -5 93 l-26
24 21 23 c29 30 28 62 -2 88 l-25 22 20 27 c24 32 18 73 -14 95 l-21 15 22 23
c27 29 28 57 2 89 -19 25 -19 26 0 43 28 25 27 79 -2 99 l-22 15 27 21 c33 26
36 72 7 97 -20 17 -20 18 6 38 31 24 35 66 10 94 -19 21 -20 31 -4 31 20 0 48
32 48 55 0 13 -9 33 -19 46 -19 24 -19 24 10 36 37 15 48 56 26 95 -10 18 -12
28 -5 28 20 0 58 43 58 65 0 11 -7 30 -15 42 -14 20 -14 23 7 34 13 7 26 17
30 23 11 16 10 64 -2 71 -17 11 -11 25 15 35 39 15 53 55 33 91 -16 28 -16 29
2 29 11 0 29 9 40 20 21 21 27 74 10 85 -18 11 -11 22 18 28 36 7 56 46 42 83
-13 34 -13 34 10 34 11 0 29 9 41 21 17 17 20 29 15 59 -6 36 -4 39 21 42 37
4 60 49 44 84 -9 21 -8 24 12 24 12 0 33 7 46 16 20 14 22 23 18 55 -5 35 -3
39 17 39 36 0 70 43 63 80 -6 27 -4 30 17 30 55 0 84 37 66 84 -8 22 -7 24 25
23 45 -1 65 18 65 63 0 34 2 37 30 37 41 0 73 30 68 65 -4 25 -2 28 25 28 41
0 67 26 67 65 0 29 2 31 29 27 38 -5 71 27 71 68 0 27 2 30 25 24 39 -10 75
19 75 60 0 30 2 33 25 28 45 -8 74 6 83 41 7 29 12 32 45 32 42 0 68 22 70 59
2 23 5 25 38 20 31 -5 39 -2 57 21 12 15 22 34 22 42 0 10 4 11 19 3 46 -24
101 1 101 47 0 26 1 27 32 12 36 -16 77 4 84 40 6 28 8 29 36 19 39 -14 75 3
84 37 5 19 11 24 23 19 42 -17 63 -16 87 6 13 13 24 29 24 36 0 9 7 10 28 2
41 -16 80 -3 88 28 5 18 11 23 23 18 54 -22 96 -15 112 20 10 22 13 23 40 9
35 -17 64 -10 85 23 15 22 18 22 37 9 33 -23 73 -19 96 11 20 25 22 26 39 10
28 -24 67 -20 91 10 l20 25 29 -21 c23 -17 33 -19 55 -11 14 6 32 19 39 30 12
20 13 20 33 1 12 -11 32 -20 45 -20z"/>
<path d="M3040 6090 c-127 -5 -178 -12 -280 -38 -69 -18 -140 -39 -159 -47
-18 -9 -70 -21 -115 -27 -49 -6 -105 -22 -143 -39 -34 -16 -127 -45 -207 -64
-135 -32 -209 -59 -246 -90 -8 -7 -29 -17 -47 -23 -18 -6 -58 -28 -90 -50 -32
-21 -70 -42 -84 -45 -15 -4 -50 -23 -78 -42 -28 -19 -75 -51 -103 -71 -95 -65
-186 -145 -269 -235 -44 -48 -108 -108 -142 -133 -82 -58 -214 -195 -265 -274
-22 -34 -54 -96 -72 -138 -21 -51 -44 -86 -71 -111 -27 -25 -55 -68 -86 -132
-25 -53 -61 -121 -79 -151 -44 -73 -70 -149 -100 -300 -19 -97 -34 -144 -68
-210 -55 -106 -64 -140 -75 -265 -14 -152 4 -859 24 -965 28 -152 86 -329 152
-470 25 -52 54 -131 64 -174 38 -155 145 -342 321 -560 81 -101 198 -276 198
-297 0 -25 187 -197 325 -298 33 -25 101 -79 150 -121 50 -42 101 -84 115 -93
35 -22 217 -87 245 -87 27 0 78 21 120 50 17 11 38 20 47 20 24 0 48 -38 48
-76 0 -57 83 -148 170 -187 58 -26 196 -39 269 -25 60 11 61 11 291 -44 87
-20 157 -30 230 -32 58 -2 157 -9 220 -16 89 -10 128 -11 165 -2 126 29 184
45 235 68 67 30 141 44 227 44 53 0 76 6 122 30 102 55 154 100 186 165 27 54
33 60 64 63 21 2 49 -4 70 -16 71 -40 101 -38 190 8 44 23 93 56 109 74 15 17
47 43 72 58 25 14 92 60 150 103 57 42 141 99 187 126 104 63 167 133 261 288
48 79 113 166 186 249 171 194 220 264 265 377 43 107 85 257 97 340 3 28 26
100 50 161 81 208 153 485 157 602 1 26 -5 106 -12 177 -8 86 -10 183 -6 285
8 194 0 232 -99 469 -45 107 -89 231 -111 316 -66 252 -111 342 -280 556 -63
80 -126 172 -155 229 -108 208 -256 348 -570 537 -63 38 -169 105 -235 147
-271 175 -430 241 -635 265 -47 5 -130 24 -185 41 -55 17 -136 37 -180 45 -44
8 -123 23 -175 34 -128 26 -178 29 -360 21z m332 -45 c40 -8 129 -31 198 -50
69 -19 220 -55 335 -80 181 -38 229 -52 348 -104 162 -70 183 -82 284 -167 43
-36 148 -106 234 -156 148 -86 197 -121 331 -238 72 -63 182 -210 236 -315 42
-81 70 -119 175 -242 108 -125 193 -298 222 -448 13 -68 76 -261 174 -530 l36
-100 0 -200 c0 -110 4 -272 9 -360 8 -147 7 -169 -13 -265 -13 -58 -49 -172
-81 -255 -64 -164 -85 -234 -95 -310 -12 -99 -58 -271 -90 -342 -44 -95 -88
-160 -188 -276 -107 -125 -189 -237 -268 -366 -89 -144 -142 -200 -239 -251
-45 -23 -111 -64 -148 -92 -37 -28 -100 -71 -140 -95 -39 -25 -96 -66 -125
-92 -81 -74 -125 -101 -167 -101 -72 0 -109 49 -146 193 -19 75 -29 95 -71
143 -51 58 -93 121 -93 140 0 13 37 29 88 39 41 8 105 51 223 151 52 44 140
108 195 143 56 36 109 76 117 90 9 14 48 62 88 106 95 106 133 165 163 253 29
86 47 117 132 233 53 72 71 108 113 225 27 76 54 153 60 169 27 77 101 406
102 455 0 30 -4 87 -10 125 -6 39 -11 147 -11 241 0 152 -3 179 -25 253 -14
46 -29 118 -34 160 -15 119 -71 360 -96 416 -12 27 -49 87 -81 132 -95 132
-210 285 -248 329 -20 22 -48 63 -62 90 -15 27 -75 96 -133 154 -93 92 -116
109 -186 139 -52 22 -103 54 -148 93 -118 102 -192 143 -404 227 -248 98 -339
123 -616 172 l-68 12 -32 63 c-17 35 -35 64 -39 64 -4 0 -18 -19 -30 -41 -56
-102 -51 -99 -146 -99 -100 0 -244 -31 -442 -95 -91 -29 -192 -56 -225 -60
-91 -11 -145 -33 -197 -81 -60 -56 -158 -119 -278 -179 -52 -26 -124 -67 -160
-90 -70 -45 -307 -280 -333 -330 -8 -16 -45 -74 -81 -129 -62 -94 -126 -233
-126 -275 0 -11 -25 -57 -56 -102 -76 -110 -115 -198 -163 -359 -72 -244 -76
-275 -76 -646 l0 -331 43 -89 c44 -93 62 -169 62 -264 0 -63 29 -166 58 -207
10 -15 51 -92 91 -170 39 -78 93 -168 119 -201 286 -361 346 -423 460 -482 32
-16 104 -69 162 -117 58 -49 136 -106 173 -126 37 -21 67 -44 67 -51 0 -7 -18
-54 -40 -104 -21 -50 -55 -143 -75 -206 -53 -169 -92 -193 -230 -146 -110 38
-188 89 -330 215 -44 39 -116 96 -160 126 -121 82 -195 161 -249 265 -31 62
-79 128 -155 217 -144 167 -139 160 -261 382 -16 28 -37 85 -49 127 -11 42
-48 146 -82 230 -87 218 -105 272 -136 426 l-28 137 0 465 0 465 27 77 c15 42
41 99 58 127 24 38 38 84 61 198 32 159 53 211 143 362 31 52 56 101 56 109 0
7 24 39 54 70 38 40 60 75 74 114 46 130 165 277 329 404 44 35 109 96 143
134 103 116 338 296 433 332 29 11 61 28 72 38 11 11 60 38 109 61 49 23 109
54 133 69 26 17 66 31 96 35 82 11 161 33 245 69 47 21 110 38 162 46 46 6
107 21 135 31 103 41 250 71 370 79 204 12 291 11 367 -5z m-194 -678 c-2
-107 -7 -178 -13 -180 -5 -1 -29 27 -52 62 -32 49 -41 71 -36 90 13 57 86 222
95 213 5 -5 7 -88 6 -185z m-144 47 c21 -8 20 -43 -1 -66 -11 -12 -30 -18 -62
-18 -55 0 -240 -26 -248 -34 -11 -10 15 -49 103 -153 91 -110 91 -110 77 -221
-5 -47 -9 -54 -40 -69 -20 -9 -59 -48 -93 -92 -60 -77 -107 -111 -155 -111
-13 0 -26 4 -29 9 -4 5 57 73 134 151 77 79 141 150 142 158 2 9 -5 18 -14 20
-11 2 -60 -38 -135 -110 -65 -62 -150 -141 -189 -175 l-70 -61 -90 -11 c-49
-6 -93 -11 -97 -11 -23 0 10 26 148 119 282 189 400 276 400 296 0 10 -5 20
-12 22 -6 2 -71 -37 -145 -87 -73 -51 -220 -150 -326 -221 l-193 -129 -168 0
c-129 0 -171 -3 -180 -13 -8 -10 -12 -297 -13 -1022 -3 -858 -5 -1009 -17
-1013 -12 -4 -13 29 -7 225 3 126 6 585 6 1019 0 660 -2 791 -14 802 -8 8 -33
18 -56 22 -35 6 -45 4 -66 -14 -23 -20 -24 -27 -30 -223 l-7 -202 -24 -6 c-13
-3 -113 -62 -221 -132 -108 -69 -207 -132 -220 -139 -13 -9 -22 -24 -22 -39 0
-22 2 -24 26 -15 14 6 92 53 174 105 179 114 279 175 285 175 3 0 5 -63 5
-139 l0 -139 -84 -71 c-46 -40 -154 -147 -239 -239 -86 -93 -187 -198 -226
-234 -67 -63 -86 -98 -61 -113 5 -3 140 123 301 280 160 157 295 285 299 285
14 0 15 -32 12 -207 l-4 -173 -76 -86 c-43 -48 -102 -116 -133 -153 -31 -36
-122 -136 -203 -221 -128 -136 -146 -159 -146 -188 0 -19 4 -32 9 -30 14 5
333 338 390 408 87 105 148 169 155 163 3 -4 6 -99 6 -213 l0 -207 -41 -63
c-23 -35 -66 -97 -96 -138 -120 -162 -283 -406 -283 -424 0 -10 6 -18 14 -18
17 0 114 123 221 280 44 63 99 142 124 175 l45 59 8 -34 c9 -37 2 -149 -10
-166 -4 -5 -24 -20 -45 -33 -48 -29 -63 -59 -71 -146 -8 -86 -44 -166 -96
-220 -40 -42 -60 -81 -60 -118 1 -68 105 -237 146 -237 11 0 42 11 68 25 59
31 62 31 78 -2 9 -19 23 -30 43 -33 30 -5 30 -6 27 -61 -4 -57 14 -113 39
-121 14 -5 -20 -118 -35 -118 -31 0 -155 127 -266 274 -25 32 -70 91 -100 131
-30 40 -69 103 -87 141 -45 97 -125 262 -147 304 -13 24 -21 69 -26 145 -6 87
-14 126 -38 185 -47 117 -65 218 -57 330 4 52 2 157 -5 232 l-11 138 36 180
c19 99 47 219 61 267 30 106 98 250 150 317 23 30 49 84 66 135 48 142 125
268 255 417 67 77 83 87 83 54 0 -29 18 -26 180 31 80 27 334 115 565 193 403
138 464 165 398 174 -35 5 -612 -177 -967 -304 -82 -30 -150 -54 -153 -54 -2
0 1 9 7 20 17 32 143 121 290 205 74 43 163 97 197 121 69 49 73 51 73 27 0
-14 14 -15 148 -9 203 9 400 30 413 43 8 8 5 14 -10 23 -17 9 -65 8 -204 -4
-245 -21 -338 -24 -334 -11 7 20 84 55 157 70 41 9 161 43 265 76 210 66 386
100 429 83z m526 -51 c185 -42 325 -85 400 -123 30 -16 73 -34 95 -41 71 -21
114 -48 196 -124 67 -62 104 -86 215 -139 117 -57 142 -74 208 -140 41 -41 90
-104 110 -139 20 -36 43 -71 51 -77 35 -29 8 -27 -87 6 -57 20 -110 43 -119
50 -8 8 -32 14 -51 14 -20 0 -41 6 -47 14 -16 20 -235 111 -581 245 -157 60
-318 123 -357 140 -64 26 -73 28 -73 13 0 -20 29 -36 219 -122 178 -81 405
-176 571 -240 74 -28 139 -55 145 -61 15 -15 -57 -11 -109 7 -44 15 -62 15
-143 -2 -27 -5 -46 3 -138 61 -145 91 -511 295 -530 295 -12 0 -4 -39 11 -51
9 -7 52 -34 97 -59 170 -98 437 -262 437 -269 0 -20 -140 -28 -198 -12 -18 5
-71 45 -120 90 -87 80 -200 170 -214 171 -5 0 -8 -10 -8 -22 0 -15 32 -52 98
-114 53 -51 95 -94 92 -96 -3 -3 -40 0 -84 7 -61 9 -83 16 -97 34 -15 18 -22
20 -39 11 -11 -6 -20 -17 -20 -25 0 -19 -48 -31 -69 -18 -9 5 -27 32 -41 59
-17 33 -32 50 -47 52 -29 4 -30 -16 -3 -68 27 -52 25 -69 -7 -81 -33 -12 -49
5 -59 60 -18 109 -29 136 -53 139 -18 3 -22 0 -18 -12 3 -8 16 -64 27 -123
l21 -108 -52 -48 c-46 -43 -77 -56 -72 -31 11 63 33 289 29 301 -13 32 -31 -7
-56 -119 -14 -61 -31 -113 -37 -115 -7 -3 -24 7 -38 21 l-25 26 45 91 c43 85
45 90 23 84 -26 -8 -65 -49 -74 -80 -12 -36 -45 -75 -65 -75 -21 0 -25 21 -9
51 9 17 7 19 -18 19 -16 0 -37 -9 -47 -20 -22 -24 -73 -27 -82 -4 -6 17 104
137 118 128 5 -3 6 -18 2 -34 -4 -22 -2 -30 8 -30 8 0 66 29 129 65 63 36 126
68 139 72 18 4 58 -11 155 -60 130 -66 176 -85 176 -71 0 3 -13 71 -30 151
-16 79 -30 149 -30 156 0 6 24 34 53 62 29 27 79 81 112 118 62 73 63 87 3 87
-15 0 -80 7 -145 15 -122 16 -143 26 -143 68 0 17 5 19 48 12 26 -3 117 -22
202 -42z m-57 -73 c24 0 37 -4 35 -11 -3 -10 -319 -132 -325 -125 -7 6 60 127
75 136 10 7 49 9 97 5 44 -2 97 -5 118 -5z m-531 -96 c59 -24 117 -44 128 -44
11 0 23 -6 26 -14 8 -20 -177 -320 -189 -306 -5 7 9 159 18 192 6 24 0 35 -47
85 -148 159 -140 170 64 87z m498 -44 c-24 -45 -49 -51 -128 -32 -40 9 -73 22
-73 27 0 13 51 22 139 24 70 1 72 0 62 -19z m-210 -107 c79 -109 150 -216 150
-225 0 -16 -34 -7 -100 28 -103 54 -113 68 -120 172 -10 129 -6 130 70 25z
m-429 -437 c83 -18 138 -46 196 -99 42 -39 93 -117 75 -117 -4 0 -23 13 -42
30 -33 27 -70 39 -70 22 0 -4 27 -32 60 -62 90 -81 80 -99 -22 -44 -133 71
-161 83 -209 86 -33 2 -44 -1 -44 -11 0 -9 19 -18 55 -26 66 -13 149 -54 210
-103 55 -45 69 -62 70 -84 0 -16 -6 -15 -49 9 -79 44 -83 10 -6 -42 45 -30 64
-55 42 -55 -7 0 -25 9 -42 20 -16 11 -38 20 -47 20 -34 0 -28 -20 12 -40 23
-12 49 -34 58 -51 9 -16 20 -29 25 -29 4 0 7 -7 7 -15 0 -20 -9 -19 -45 5 -31
21 -85 27 -85 10 0 -5 15 -17 33 -26 45 -23 97 -74 97 -97 0 -14 -4 -17 -17
-12 -60 24 -75 27 -85 17 -8 -8 4 -20 38 -42 77 -48 89 -93 14 -51 -42 23 -80
25 -88 4 -2 -7 5 -16 15 -19 52 -17 71 -27 96 -50 15 -14 27 -31 27 -39 0 -19
-29 -19 -54 0 -22 16 -76 20 -76 6 0 -5 21 -19 48 -31 61 -29 82 -48 82 -77 0
-30 -11 -29 -60 3 -37 25 -70 27 -70 5 0 -6 15 -18 33 -27 55 -28 97 -64 97
-84 0 -18 -3 -17 -55 7 -37 16 -64 23 -81 19 -35 -9 -19 -27 45 -50 46 -16
101 -64 101 -86 0 -17 -17 -19 -46 -4 -34 19 -250 81 -311 90 -51 7 -101 -2
-86 -17 6 -6 28 -12 49 -15 66 -7 95 -14 211 -50 111 -34 173 -70 173 -101 0
-16 -23 -12 -72 13 -36 18 -78 18 -78 0 0 -8 10 -18 23 -21 12 -4 46 -18 75
-31 38 -18 52 -30 52 -45 0 -16 -4 -19 -17 -14 -65 28 -102 38 -117 32 -15 -6
-16 -10 -6 -22 7 -8 19 -15 27 -15 38 0 113 -56 113 -84 0 -11 -28 -6 -75 15
-53 24 -106 20 -85 -6 7 -8 21 -15 32 -15 32 0 118 -50 130 -75 17 -37 4 -41
-50 -17 -56 25 -207 60 -277 64 -40 2 -51 -1 -53 -14 -3 -13 8 -18 55 -23 189
-20 333 -75 333 -127 0 -23 -3 -23 -69 3 -58 22 -92 19 -72 -5 7 -8 24 -17 39
-21 42 -10 102 -53 102 -73 0 -30 -10 -32 -51 -12 -39 21 -89 27 -89 11 0 -13
21 -27 60 -40 42 -14 80 -48 80 -73 0 -23 -3 -22 -73 2 -67 24 -97 25 -97 6 0
-8 22 -22 53 -32 71 -23 103 -40 111 -60 11 -30 -5 -34 -56 -13 -54 21 -89 22
-95 2 -3 -7 14 -17 39 -23 77 -21 107 -38 114 -65 9 -38 0 -40 -55 -16 -27 11
-57 21 -65 21 -22 0 -20 -29 2 -37 72 -24 122 -54 122 -72 0 -31 -16 -34 -59
-11 -22 11 -49 20 -61 20 -35 0 -21 -26 22 -41 52 -17 98 -55 98 -80 0 -24
-11 -24 -57 1 -42 23 -107 27 -101 8 3 -7 20 -17 40 -23 53 -15 118 -62 118
-85 0 -25 -16 -25 -71 0 -48 21 -89 26 -89 9 0 -5 26 -21 58 -35 66 -30 102
-60 102 -86 0 -23 -5 -23 -64 7 -95 48 -105 22 -11 -28 58 -31 93 -73 75 -91
-5 -5 -33 3 -67 19 -101 47 -158 63 -272 76 -61 7 -111 17 -111 21 0 4 -43 39
-95 78 -146 108 -159 143 -56 155 39 4 61 12 61 20 0 20 -35 24 -106 13 -64
-10 -64 -9 -126 29 l-63 38 40 7 c22 4 81 7 132 5 95 -2 113 2 89 22 -21 17
-275 18 -302 1 -20 -12 -27 -9 -74 31 l-52 44 28 5 c41 7 38 34 -5 38 -24 2
-37 -2 -43 -12 -7 -13 -13 -14 -29 -6 -18 10 -19 20 -17 153 l3 142 33 3 c41
4 43 30 3 38 -38 8 -41 27 -41 281 l0 202 31 -9 c38 -11 206 -16 216 -7 18 18
-23 27 -130 30 l-117 2 2 585 3 585 145 7 c80 4 192 13 250 21 138 19 299 20
381 3z m823 -5 c260 -46 338 -48 534 -14 30 5 32 4 32 -26 0 -20 -7 -35 -20
-43 -11 -7 -20 -18 -20 -24 0 -7 9 -14 20 -17 30 -8 27 -55 -5 -67 -14 -5 -25
-16 -25 -25 0 -9 9 -15 25 -15 22 0 25 -4 25 -36 0 -29 -3 -35 -16 -30 -19 7
-47 -12 -38 -25 3 -5 16 -6 30 -3 l24 6 0 -91 c0 -85 -1 -91 -20 -91 -27 0
-80 -27 -80 -41 0 -7 17 -9 50 -4 l50 7 0 -60 c0 -52 -3 -63 -22 -77 l-23 -16
22 -17 c19 -15 22 -28 24 -96 2 -64 -1 -81 -14 -91 -22 -16 -21 -27 3 -43 19
-11 21 -21 18 -90 -3 -76 -3 -77 -32 -82 -40 -7 -46 -30 -8 -30 35 0 42 -13
42 -76 0 -38 -5 -50 -31 -74 -17 -15 -44 -31 -60 -34 -29 -5 -39 -29 -18 -42
7 -4 -4 -21 -27 -45 -34 -34 -42 -38 -71 -33 -25 5 -33 3 -33 -9 0 -8 7 -20
15 -27 8 -7 15 -21 15 -32 0 -17 -6 -19 -41 -16 -52 4 -65 -18 -20 -33 34 -12
36 -21 25 -116 -5 -39 -11 -53 -25 -56 -31 -8 -22 -24 19 -34 31 -7 37 -13 40
-38 3 -28 0 -30 -30 -30 -44 0 -43 -20 1 -21 36 0 49 -16 50 -61 1 -19 -5 -22
-46 -25 -62 -4 -62 -22 0 -26 41 -3 49 -7 57 -28 15 -38 12 -55 -10 -61 -33
-9 -17 -28 26 -31 21 -2 46 -10 54 -17 8 -7 34 -21 58 -30 39 -16 42 -20 42
-55 0 -43 -13 -58 -36 -40 -11 10 -12 16 -3 27 18 21 3 28 -66 29 -36 0 -70 6
-77 11 -7 6 -58 16 -113 22 -55 6 -127 20 -160 32 -46 16 -82 21 -152 21 -51
0 -95 4 -98 9 -9 13 -184 1 -268 -18 -37 -8 -71 -13 -74 -10 -3 3 -3 17 1 31
5 19 16 28 49 37 90 25 107 31 107 40 0 19 -31 21 -90 6 -62 -15 -72 -14 -63
9 10 26 86 57 152 63 36 3 66 11 68 17 7 21 -49 25 -134 9 -47 -9 -88 -13 -91
-10 -26 25 89 81 188 92 59 6 75 15 44 27 -28 11 -78 6 -149 -13 -76 -21 -101
-15 -71 18 26 29 79 51 153 65 38 7 69 18 71 26 6 18 -129 7 -182 -15 -42 -18
-60 -10 -54 21 5 29 66 53 151 60 59 5 77 10 77 22 0 13 -16 14 -110 9 -86 -5
-110 -4 -110 6 0 22 88 57 171 69 85 12 100 23 44 34 -42 7 -117 -2 -164 -22
-45 -19 -61 -18 -61 4 0 46 79 82 193 91 98 7 127 25 60 37 -40 7 -169 -10
-210 -29 -31 -14 -53 5 -37 31 20 33 74 50 175 58 98 6 124 17 73 30 -27 7
-138 0 -208 -12 -30 -6 -38 -4 -34 7 7 20 87 59 124 59 43 0 64 9 64 27 0 13
-9 14 -51 9 -29 -4 -70 -13 -93 -21 -43 -15 -63 -8 -52 20 7 20 76 51 145 66
31 6 50 15 48 22 -6 17 -63 13 -130 -8 -62 -19 -72 -17 -63 12 6 20 93 64 155
80 19 4 37 15 39 22 7 21 -86 8 -138 -19 -44 -22 -70 -21 -70 4 0 25 52 54
140 78 45 13 81 28 79 33 -6 14 -98 8 -149 -10 -53 -19 -60 -19 -60 1 0 18
100 66 178 84 31 7 51 17 49 24 -7 22 -51 17 -139 -14 -90 -32 -111 -33 -92
-2 19 31 74 61 132 72 96 18 102 20 102 30 0 5 -15 12 -34 16 -34 6 -155 -26
-183 -48 -9 -7 -15 -5 -19 6 -15 39 63 82 176 98 53 8 80 16 80 25 0 20 -88
16 -162 -7 -79 -25 -101 -25 -96 -3 5 27 105 72 191 85 56 8 77 16 77 26 0 21
-112 10 -191 -19 -45 -16 -63 -19 -71 -11 -29 29 85 91 184 100 60 5 81 17 57
34 -19 12 -100 1 -165 -23 -57 -22 -88 -20 -78 4 8 22 109 69 198 92 44 12 82
28 84 35 8 22 -108 4 -196 -30 -42 -16 -80 -30 -84 -30 -19 0 -6 41 17 56 30
20 33 44 5 44 -13 0 -20 7 -20 18 0 22 22 43 63 60 16 7 27 18 24 25 -5 13
-20 14 -54 3 -59 -19 11 67 89 109 57 31 173 70 221 73 16 1 79 -6 141 -17z
m650 -417 c4 -438 -2 -826 -14 -819 -4 2 -10 277 -13 611 -5 451 -4 610 4 621
7 7 13 12 15 10 2 -2 6 -192 8 -423z m252 404 c21 -33 9 -1386 -12 -1407 -2
-3 -12 3 -22 12 -16 16 -17 67 -16 703 0 585 2 687 15 695 19 12 26 11 35 -3z
m-2850 -6 c17 -11 26 -1009 13 -1542 -6 -250 -12 -465 -15 -478 -4 -17 -10
-22 -27 -20 l-22 3 1 1001 c2 1067 2 1069 50 1036z m2684 -570 c0 -541 -3
-642 -20 -642 -4 0 -11 262 -15 583 -7 575 -4 650 25 632 6 -4 10 -205 10
-573z m-2399 337 c4 -107 7 -548 8 -981 1 -629 -2 -788 -12 -788 -10 0 -13
191 -15 943 -1 518 -5 962 -8 986 -5 35 -4 43 7 39 11 -4 15 -46 20 -199z
m2473 -459 c-10 -607 -21 -584 -22 47 -1 320 1 590 6 600 14 35 22 -274 16
-647z m321 616 c147 -50 152 -54 266 -216 118 -167 126 -185 155 -320 14 -69
30 -156 35 -195 5 -38 24 -124 41 -190 28 -109 31 -133 29 -255 -1 -74 5 -187
12 -251 10 -82 11 -137 5 -184 -9 -70 -32 -129 -48 -123 -4 2 -25 24 -47 49
-21 26 -82 94 -137 153 -61 66 -96 111 -93 120 3 8 26 23 51 34 36 16 50 30
70 71 35 68 34 121 -5 206 -16 37 -28 70 -25 72 8 8 47 -20 115 -82 33 -31 65
-54 71 -50 26 16 5 48 -82 123 -51 43 -147 127 -213 187 -168 151 -290 252
-325 270 l-30 16 0 139 c0 90 4 140 10 140 6 0 21 -6 33 -14 12 -7 105 -65
207 -129 225 -140 295 -176 312 -159 8 8 8 15 -3 28 -20 25 -238 166 -407 264
-78 45 -145 87 -148 92 -17 27 -4 248 14 248 4 0 66 -20 137 -44z m-2943
-1413 c-3 -271 -9 -493 -14 -493 -10 0 -11 1509 0 1761 6 164 8 132 13 -296 3
-264 3 -702 1 -972z m74 444 c7 -792 4 -954 -16 -942 -5 3 -9 326 -10 751 0
410 -2 750 -5 755 -4 5 -3 77 1 161 15 310 24 93 30 -725z m2801 272 c38 -34
112 -97 165 -140 53 -44 100 -84 103 -90 4 -5 -1 -19 -11 -30 -13 -15 -18 -37
-19 -81 0 -56 2 -62 34 -88 40 -34 37 -53 -14 -70 -50 -17 -61 -9 -74 50 -13
62 -24 83 -66 132 -17 21 -38 56 -45 78 -17 50 -52 90 -80 90 -11 0 -32 -11
-46 -25 -14 -14 -27 -25 -29 -25 -3 0 -5 59 -5 130 0 78 4 130 10 130 5 0 40
-28 77 -61z m-1 -197 c25 -16 124 -281 124 -332 0 -47 14 -68 33 -52 8 7 39
21 69 31 133 46 149 74 77 140 -36 33 -41 41 -35 69 9 40 34 62 47 41 5 -8 6
-27 3 -42 -5 -22 1 -39 24 -70 40 -57 46 -82 32 -132 -10 -35 -21 -49 -64 -76
-28 -18 -93 -74 -143 -124 -102 -99 -145 -124 -214 -125 -77 0 -138 27 -201
91 -32 32 -58 64 -58 72 0 26 57 38 157 31 111 -8 113 -7 162 95 l34 69 -22
51 c-17 40 -20 62 -15 101 6 42 3 56 -20 94 -31 52 -25 91 10 68z m-6 -140 c0
-11 -7 -26 -16 -33 -14 -11 -20 -10 -40 14 -18 21 -24 40 -24 75 l1 47 39 -42
c22 -23 40 -51 40 -61z m-35 -128 c42 -32 48 -47 29 -81 -8 -16 -19 -40 -24
-56 -11 -32 -38 -46 -51 -26 -14 23 -7 189 8 189 2 0 19 -11 38 -26z m-256
-35 c50 -18 38 -36 -28 -44 -56 -6 -101 -31 -101 -56 0 -13 51 -93 61 -97 15
-6 10 -29 -7 -36 -9 -3 -39 -6 -67 -6 -29 0 -70 -9 -92 -19 -48 -22 -105 -83
-105 -114 0 -12 -4 -29 -10 -37 -7 -12 -12 -12 -29 4 -25 23 -26 43 -6 121 19
71 53 119 112 154 26 16 46 36 49 51 10 36 24 51 69 71 45 21 107 24 154 8z
m47 -103 c9 -36 -2 -46 -50 -46 -56 0 -97 29 -77 54 9 11 30 16 67 16 49 0 54
-2 60 -24z m732 -424 l76 -83 -12 -69 c-14 -82 -67 -232 -93 -263 l-19 -22
-20 25 c-13 17 -20 40 -20 71 0 74 -38 133 -154 245 -57 54 -117 109 -134 121
-35 27 -60 83 -36 83 8 0 48 35 90 78 l76 77 85 -90 c47 -49 119 -127 161
-173z m-769 188 c28 -35 31 -45 25 -73 -4 -18 -7 -53 -5 -79 1 -27 -2 -48 -7
-48 -16 0 -22 28 -22 107 0 66 -2 74 -17 71 -15 -3 -19 -18 -23 -97 -4 -68 -9
-96 -19 -99 -11 -4 -13 17 -9 114 5 160 18 177 77 104z m-119 -79 c0 -97 -8
-151 -21 -151 -10 0 -12 209 -3 234 14 36 24 0 24 -83z m-90 40 c0 -37 -2 -40
-32 -43 -47 -4 -51 -35 -6 -40 32 -3 33 -5 36 -50 2 -27 0 -48 -3 -48 -3 0
-19 7 -35 15 -34 17 -61 63 -55 91 2 10 6 31 10 47 7 34 39 67 65 67 17 0 20
-7 20 -39z m325 -86 c0 -47 -2 -50 -27 -53 -27 -3 -28 -2 -28 46 0 55 5 64 35
60 17 -3 20 -10 20 -53z m171 14 c10 -17 -7 -27 -58 -34 -43 -7 -48 -5 -48 12
0 11 3 23 7 26 11 11 91 8 99 -4z m-620 -64 c19 -30 45 -53 80 -71 47 -25 59
-27 124 -21 40 3 104 15 144 26 237 65 302 74 355 47 30 -16 111 -100 111
-116 0 -10 -9 -7 -82 24 -21 9 -61 16 -91 16 -49 0 -58 -4 -142 -66 -140 -104
-179 -119 -305 -119 -166 1 -184 17 -218 195 -31 162 -29 170 24 85z m693
-184 c51 -51 23 -241 -35 -241 -15 0 -104 154 -104 180 0 21 25 44 70 63 46
20 47 20 69 -2z m144 -26 c48 -29 82 -56 92 -75 33 -65 10 -206 -45 -265 -15
-16 -45 -61 -66 -99 -35 -61 -49 -75 -127 -127 l-88 -58 -97 1 c-53 0 -117 -5
-142 -11 -66 -16 -165 -13 -208 5 -72 31 -129 44 -285 63 -212 27 -308 53
-357 96 -38 34 -65 45 -109 45 l-39 0 1 68 c1 37 0 94 -2 126 -3 54 -1 62 23
82 68 60 205 57 353 -7 26 -11 91 -27 143 -36 52 -8 127 -27 165 -43 63 -25
87 -28 250 -35 320 -14 324 -14 379 19 87 51 116 167 71 279 -11 26 3 21 88
-28z m-2901 -64 c14 -5 47 -26 72 -45 25 -19 91 -58 147 -88 80 -41 112 -65
148 -107 57 -67 73 -84 139 -140 53 -46 94 -108 176 -267 25 -50 63 -110 82
-133 43 -50 138 -100 261 -138 81 -25 102 -27 263 -27 140 -1 186 3 231 16 66
21 111 65 130 128 15 49 37 57 87 33 58 -28 84 -82 79 -168 -4 -93 -34 -154
-116 -235 -78 -77 -182 -133 -292 -156 -123 -26 -320 -14 -496 30 -302 75
-387 127 -511 311 -37 56 -132 220 -193 334 -14 27 -56 88 -93 135 -71 91 -67
88 -283 186 -80 36 -100 41 -155 39 -101 -3 -230 -1 -235 5 -3 2 2 35 11 73 9
37 18 85 22 106 8 60 32 77 112 78 44 0 91 8 137 24 59 21 84 24 160 21 50 -3
102 -9 117 -15z m1438 -31 c13 -8 12 -12 -6 -31 -24 -23 -83 -38 -157 -39 -26
0 -64 -7 -84 -15 -47 -20 -53 -19 -53 5 0 27 70 57 170 75 96 16 112 17 130 5z
m1080 -42 c0 -77 -8 -100 -34 -96 -18 3 -21 11 -24 56 -2 32 -8 52 -15 52 -19
1 36 40 56 40 14 0 17 -9 17 -52z m-102 -35 c-6 -29 -15 -53 -19 -53 -16 0
-10 78 7 95 9 9 18 15 19 13 2 -2 -2 -27 -7 -55z m211 -1 c36 -57 38 -68 11
-75 -33 -8 -58 3 -64 30 -8 28 2 93 14 93 4 0 22 -22 39 -48z m-279 -10 c0 -9
-5 -24 -10 -32 -7 -12 -12 -12 -21 -3 -10 10 -10 18 -1 38 13 28 32 25 32 -3z
m-80 -17 c0 -14 -4 -25 -10 -25 -5 0 -10 11 -10 25 0 14 5 25 10 25 6 0 10
-11 10 -25z m-922 9 c58 -12 52 -64 -7 -64 -20 0 -64 -7 -96 -16 -100 -27
-105 -28 -105 -11 0 32 86 80 171 96 4 0 20 -2 37 -5z m1750 -111 c14 -27 -3
-75 -51 -145 -24 -35 -60 -88 -81 -118 -21 -30 -42 -56 -47 -58 -5 -2 -14 9
-21 23 -13 28 -12 30 33 103 8 13 28 39 45 58 16 19 43 61 59 94 29 61 47 74
63 43z m-1703 -3 c3 -6 3 -19 0 -30 -5 -15 -15 -20 -43 -20 -33 0 -131 -19
-189 -36 -33 -9 -30 20 5 44 59 43 210 70 227 42z m-5 -104 c0 -21 -21 -33
-75 -40 -27 -3 -78 -20 -113 -36 l-63 -30 3 27 c5 45 104 92 196 93 38 0 52
-4 52 -14z m-1710 -143 c3 -73 10 -136 15 -141 6 -6 96 -12 200 -15 105 -3
204 -10 220 -16 22 -7 -36 -10 -222 -8 -152 1 -256 6 -261 12 -6 6 -8 71 -5
158 6 143 6 148 27 145 20 -3 21 -10 26 -135z m-112 87 c5 -73 -40 -106 -80
-58 -24 28 -23 44 7 74 37 37 69 29 73 -16z m-136 -19 c9 -51 28 -76 81 -102
20 -11 37 -26 37 -33 0 -8 -20 -35 -45 -60 -64 -66 -93 -64 -141 9 -51 76 -57
139 -20 196 22 33 32 40 54 37 23 -3 28 -9 34 -47z m312 -13 c8 -70 7 -80 -4
-98 -16 -24 -30 6 -30 67 0 93 23 115 34 31z m66 -9 c0 -21 -4 -39 -9 -39 -11
0 -20 46 -14 71 8 31 23 11 23 -32z m1708 27 c15 -8 35 -23 46 -35 15 -17 17
-25 7 -52 -20 -58 -14 -77 45 -139 31 -32 53 -64 49 -69 -28 -46 -297 58 -335
130 -16 29 -7 95 17 121 46 51 121 70 171 44z m-213 -46 c-11 -21 -23 -30 -41
-30 -14 0 -45 -12 -70 -26 -42 -24 -44 -25 -44 -6 0 29 98 90 148 91 22 1 22
0 7 -29z m-443 -39 c60 -16 146 -66 135 -77 -2 -2 -49 14 -104 36 -61 24 -117
40 -142 40 -22 0 -41 5 -41 10 0 16 80 12 152 -9z m826 -7 c35 -10 26 -21 -25
-28 -51 -7 -58 -4 -50 19 7 16 36 19 75 9z m-1633 -24 c7 -12 -66 -12 -140 0
-45 7 -41 7 42 9 52 0 95 -3 98 -9z m1225 -55 c0 -11 7 -31 16 -43 23 -33 7
-41 -19 -11 -12 14 -35 34 -50 43 -32 20 -31 36 4 53 20 11 26 10 37 -4 6 -9
12 -26 12 -38z m-490 16 c0 -11 -49 -21 -55 -11 -2 4 -2 10 2 14 10 9 53 7 53
-3z m1283 -10 c7 -7 -51 -11 -196 -13 -202 -3 -265 4 -149 17 31 3 64 8 72 10
31 8 262 -3 273 -14z m800 -12 c9 -17 17 -42 17 -56 0 -40 -67 -149 -141 -228
-37 -40 -80 -92 -94 -115 -15 -24 -32 -40 -41 -38 -9 2 -32 46 -56 108 -55
146 -54 138 -24 146 25 6 26 10 26 69 0 70 3 75 65 86 65 12 168 40 185 49 27
16 45 10 63 -21z m-2773 1 c10 -7 -5 -9 -50 -8 -63 1 -64 1 -20 8 25 4 47 8
50 8 3 1 12 -3 20 -8z m830 -16 c12 -12 6 -12 -40 2 -70 20 -78 29 -20 20 25
-4 52 -14 60 -22z m241 -29 c19 -8 45 -23 59 -34 20 -16 22 -21 11 -35 -19
-22 -179 -23 -222 -1 -25 13 -28 19 -19 35 23 44 111 62 171 35z m1334 -16 c6
-6 6 -15 0 -25 -9 -13 -43 -15 -245 -14 -129 1 -298 5 -375 9 -121 5 -140 8
-143 23 -3 15 9 18 105 21 174 6 647 -4 658 -14z m-1655 1 c11 -7 0 -10 -37
-10 -29 0 -53 5 -53 10 0 13 70 13 90 0z m-619 -116 c48 -72 159 -287 159
-308 0 -12 -9 -64 -20 -116 -11 -52 -20 -96 -20 -97 0 -10 -28 1 -63 26 -70
47 -126 72 -169 74 -34 1 -44 -3 -64 -28 -17 -21 -24 -25 -24 -14 0 31 41 149
51 149 6 0 20 -12 32 -26 18 -24 25 -26 67 -21 91 11 129 49 100 102 -19 36
-50 46 -82 27 -34 -20 -39 -57 -7 -47 17 6 20 3 17 -12 -4 -23 -47 -24 -61 -1
-8 12 -7 28 3 58 12 35 12 47 0 73 -7 18 -14 48 -14 67 0 42 42 142 58 137 6
-2 23 -21 37 -43z m-298 17 c5 -5 12 -34 15 -63 5 -62 15 -78 48 -78 53 0 124
-43 124 -74 0 -21 -146 17 -177 46 -12 12 -24 20 -26 17 -21 -26 -57 -102 -57
-119 0 -11 15 -35 34 -53 67 -65 96 -127 58 -127 -28 0 -52 32 -45 58 4 19 1
22 -21 22 -15 0 -38 11 -51 25 -20 19 -25 34 -25 77 -1 66 -14 90 -76 137 -41
31 -50 43 -52 73 -2 21 2 46 8 58 10 19 18 20 122 15 61 -2 116 -9 121 -14z
m1039 -8 c100 -37 202 -38 274 -3 45 22 58 24 130 19 119 -9 234 -32 234 -46
0 -78 -113 -123 -310 -123 -160 0 -279 26 -400 87 -107 54 -125 79 -63 86 21
2 43 4 50 5 6 1 45 -10 85 -25z m-884 -5 c2 -9 -2 -35 -8 -58 -10 -38 -13 -41
-43 -38 -28 3 -32 7 -35 34 -2 16 2 43 8 58 8 23 15 27 42 24 21 -2 34 -9 36
-20z m1848 -3 c12 -8 24 -29 27 -47 11 -61 75 -323 86 -351 16 -40 -11 -62
-85 -72 -78 -9 -150 -41 -176 -77 -21 -30 -21 -78 -2 -145 8 -28 -25 -43 -97
-43 -57 0 -62 7 -74 106 l-7 61 67 53 c178 141 252 316 196 458 -12 29 -21 57
-21 62 0 15 63 12 86 -5z m509 -25 c23 -45 86 -220 91 -255 5 -27 0 -33 -54
-68 -33 -20 -99 -73 -147 -117 -48 -44 -94 -80 -103 -80 -10 0 -26 18 -37 43
-12 23 -35 51 -53 62 -35 23 -42 39 -98 267 -20 81 -34 154 -31 163 6 13 36
15 211 15 l205 0 16 -30z m-2684 -251 c8 -71 22 -96 65 -114 19 -8 37 -21 40
-30 13 -33 -7 -26 -55 18 -28 26 -54 47 -60 47 -5 0 -23 11 -39 25 l-30 25 25
46 c14 25 30 43 37 41 6 -2 14 -28 17 -58z m215 39 c45 -12 45 -13 39 -48 -4
-19 -12 -41 -20 -48 -10 -12 -19 -5 -49 41 -50 75 -49 76 30 55z m510 -170
c29 -32 158 -114 212 -134 26 -9 50 -20 54 -23 3 -3 -1 -58 -11 -121 -13 -91
-19 -114 -31 -112 -8 2 -49 12 -90 23 -41 10 -111 20 -155 21 l-80 3 2 35 c1
19 2 66 3 103 0 59 19 166 36 211 9 23 38 20 60 -6z m-268 -100 c72 -41 112
-76 112 -98 0 -22 -31 -34 -60 -25 -39 13 -67 -18 -75 -82 -16 -131 -35 -197
-80 -269 -52 -82 -66 -97 -89 -88 -35 14 -10 127 61 268 56 112 65 172 34 241
-45 103 -17 118 97 53z m-250 7 c14 -29 4 -32 -38 -10 -38 20 -38 35 -2 35 21
0 32 -7 40 -25z m2140 0 c2 -12 -12 -37 -31 -60 -19 -22 -39 -50 -46 -62 -21
-41 4 -103 82 -201 41 -52 54 -78 69 -140 23 -97 23 -109 -2 -117 -16 -5 -31
5 -65 42 -61 65 -88 120 -116 233 -26 110 -58 150 -137 173 -41 12 -47 17 -47
42 0 41 37 63 133 79 45 7 88 18 95 25 19 19 62 9 65 -14z m-2033 -55 c18 -36
19 -40 2 -40 -21 0 -57 39 -51 55 10 24 32 17 49 -15z m2083 -4 c5 -22 -16
-46 -39 -46 -23 0 -24 13 -3 46 18 27 37 27 42 0z m-1164 -57 c83 -17 153 -32
155 -34 2 -2 0 -49 -4 -104 -6 -84 -10 -101 -25 -106 -21 -7 -211 11 -282 26
-55 12 -55 12 -38 132 15 103 19 117 32 117 6 0 79 -14 162 -31z m566 -20 c10
-65 0 -99 -29 -105 -14 -4 -79 -29 -144 -56 -65 -27 -134 -52 -153 -55 l-35
-6 3 104 3 104 60 6 c94 11 207 28 240 38 42 13 49 9 55 -30z m310 -48 c0 -14
-32 -23 -43 -12 -5 5 -7 17 -3 26 4 13 10 14 26 5 11 -6 20 -15 20 -19z
m-1572 13 c25 -7 29 -26 8 -43 -10 -9 -19 -7 -36 7 -13 11 -20 24 -16 30 8 14
12 14 44 6z m1631 -76 c5 -13 16 -58 26 -100 17 -81 74 -208 119 -267 40 -53
35 -81 -26 -136 -73 -65 -97 -76 -217 -91 -58 -7 -133 -22 -166 -33 -33 -11
-85 -25 -116 -31 -31 -6 -80 -20 -110 -31 -44 -17 -76 -21 -174 -21 -66 1
-161 6 -210 11 -50 6 -135 15 -189 21 -54 6 -142 22 -195 36 -84 23 -109 26
-200 21 -180 -9 -301 21 -361 90 -26 29 -30 41 -30 93 0 49 6 69 40 132 65
118 92 179 103 241 10 50 14 57 35 57 13 0 37 -7 55 -17 21 -10 65 -17 127
-20 65 -3 136 -15 225 -38 231 -60 289 -69 450 -69 l150 -1 95 47 c108 54 188
73 363 87 77 6 125 14 140 24 32 23 56 20 66 -5z"/>
<path d="M2966 5918 c-15 -51 -40 -111 -56 -130 l-18 -22 -36 27 c-19 15 -49
45 -66 66 -29 36 -33 38 -71 31 -54 -10 -56 -14 -17 -38 19 -12 64 -52 100
-90 68 -70 96 -130 83 -172 -6 -18 -1 -20 34 -20 43 0 59 13 42 34 -6 7 -14
33 -17 58 -6 41 -1 56 48 157 l55 111 -39 0 c-22 0 -40 -5 -42 -12z"/>
<path d="M2405 5827 c-125 -38 -140 -44 -143 -66 -6 -38 10 -43 59 -22 24 12
49 21 55 21 18 0 52 -82 72 -173 17 -79 19 -82 48 -85 50 -4 57 7 36 69 -10
30 -27 87 -38 128 -18 72 -18 73 1 87 11 8 37 17 57 21 45 7 53 15 38 43 -14
26 -21 25 -185 -23z"/>
<path d="M3748 5850 c-42 -13 -94 -48 -113 -76 -19 -29 -31 -119 -21 -158 16
-64 114 -137 186 -138 47 0 116 32 155 72 25 26 30 40 33 96 6 97 -16 146 -81
184 -54 31 -103 37 -159 20z m122 -65 c55 -29 77 -113 45 -175 -47 -91 -177
-104 -220 -20 -61 119 60 254 175 195z"/>
<path d="M3302 5788 c-18 -18 -14 -46 9 -58 26 -14 49 3 49 35 0 32 -35 46
-58 23z"/>
<path d="M2086 5710 c-26 -11 -50 -21 -52 -23 -3 -2 11 -20 29 -38 21 -22 46
-65 66 -119 18 -47 37 -89 42 -94 5 -6 9 -20 9 -33 0 -27 1 -27 45 -9 36 15
42 25 26 42 -25 25 -102 198 -108 242 l-8 50 -49 -18z"/>
<path d="M4192 5693 c1 -31 -74 -197 -116 -259 l-26 -38 23 -13 c35 -20 40
-16 71 47 16 33 33 60 39 60 19 0 94 -40 112 -60 18 -20 19 -20 37 7 23 35 23
53 1 53 -21 0 -123 57 -123 68 0 19 33 52 51 52 23 0 102 -43 137 -74 23 -21
24 -21 38 -2 28 39 18 50 -115 120 l-130 67 1 -28z"/>
<path d="M1819 5598 c-87 -45 -131 -103 -127 -167 3 -42 6 -48 40 -66 l38 -20
62 24 c80 30 128 36 152 18 49 -36 -54 -117 -153 -120 -28 -1 -51 -4 -51 -7 0
-3 9 -19 19 -37 19 -30 21 -31 58 -21 60 16 143 60 164 86 26 34 40 89 29 117
-21 55 -84 69 -180 41 -61 -18 -106 -21 -115 -6 -3 5 1 23 9 39 18 33 105 81
149 81 l29 0 -19 32 c-10 17 -23 33 -29 35 -6 2 -40 -11 -75 -29z"/>
<path d="M1414 5311 c-32 -21 -81 -61 -108 -89 -45 -47 -47 -51 -29 -61 31
-16 176 -169 192 -202 18 -36 34 -37 68 -3 l26 26 -37 30 c-41 34 -44 47 -16
73 18 16 24 16 92 2 66 -13 76 -13 102 2 46 25 42 38 -14 45 -63 8 -100 25
-100 44 0 9 5 30 11 47 16 45 4 82 -34 105 -48 30 -86 25 -153 -19z m111 -47
c11 -11 14 -26 10 -43 -7 -30 -77 -101 -99 -101 -8 0 -27 15 -41 34 -25 33
-26 36 -10 60 21 32 73 66 102 66 12 0 29 -7 38 -16z"/>
<path d="M4567 5282 c-22 -24 -21 -35 1 -55 38 -35 72 -17 72 38 0 37 -46 47
-73 17z"/>
<path d="M4920 5120 c-84 -15 -132 -72 -138 -165 -6 -88 31 -153 119 -209 25
-15 27 -15 53 5 l28 22 -48 23 c-92 44 -129 150 -74 209 84 90 197 69 237 -46
10 -27 20 -49 24 -49 3 0 16 11 29 25 l24 25 -41 58 c-59 83 -128 117 -213
102z"/>
<path d="M1078 4998 c-70 -84 -138 -176 -138 -187 0 -6 9 -11 20 -11 23 0 224
-151 234 -175 3 -8 10 -15 15 -15 8 0 174 194 194 227 7 11 -28 53 -44 53 -4
0 -9 -10 -13 -22 -9 -38 -107 -148 -132 -148 -23 0 -54 29 -54 50 0 8 21 36
48 63 l47 48 -28 25 c-32 27 -47 31 -47 10 0 -16 -67 -106 -79 -106 -5 0 -19
8 -32 19 -21 17 -22 22 -11 45 16 36 101 126 118 126 21 0 17 17 -8 34 -34 24
-42 21 -90 -36z"/>
<path d="M5315 4725 c-22 -15 -263 -75 -301 -75 -26 0 -25 -9 8 -53 12 -17 15
-17 46 -1 30 14 35 14 56 0 27 -17 76 -100 76 -128 0 -10 -12 -30 -26 -43
l-26 -24 18 -32 c24 -41 40 -46 50 -17 14 46 114 196 155 232 38 35 40 40 29
64 -6 15 -23 41 -38 59 -24 28 -29 30 -47 18z m-15 -99 c0 -8 -12 -29 -26 -46
l-27 -31 -23 22 c-30 28 -30 47 -1 59 35 14 77 12 77 -4z"/>
<path d="M850 4678 c-21 -35 -25 -54 -12 -60 13 -5 122 -171 122 -185 0 -24
-175 -30 -245 -8 -17 5 -25 -2 -43 -33 -12 -22 -22 -44 -22 -48 0 -5 78 -9
173 -9 94 0 180 -4 189 -8 14 -7 22 1 42 42 30 59 31 61 11 61 -16 0 -175 233
-175 256 0 28 -21 23 -40 -8z"/>
<path d="M5526 4355 c-3 -8 -56 -40 -117 -71 -84 -42 -120 -55 -145 -52 l-32
4 28 -56 c15 -30 42 -92 60 -137 34 -87 46 -96 92 -72 20 11 20 11 -2 34 -24
25 -73 151 -65 165 11 18 169 102 201 107 38 6 40 10 20 58 -16 37 -30 44 -40
20z"/>
<path d="M602 4223 c-25 -65 -25 -73 0 -73 36 0 220 -69 255 -96 17 -13 34
-24 38 -24 8 0 35 65 35 84 0 9 -24 20 -70 31 -39 10 -110 37 -157 61 -47 24
-87 44 -88 44 -1 0 -7 -12 -13 -27z"/>
<path d="M510 3984 c-6 -14 -10 -35 -10 -47 0 -19 6 -22 43 -23 48 -1 157 -31
157 -43 0 -4 -52 -37 -115 -72 -133 -73 -155 -90 -155 -124 0 -13 -3 -31 -7
-41 -5 -14 -3 -16 18 -10 13 4 42 7 64 7 69 -2 219 -33 238 -49 22 -19 25 -16
33 37 l7 43 -32 -7 c-33 -7 -176 19 -186 34 -5 8 53 46 175 115 87 49 100 60
100 85 0 11 -2 21 -4 21 -30 0 -258 66 -278 80 -35 25 -37 25 -48 -6z"/>
<path d="M5675 3940 c-25 -24 -163 -69 -238 -77 -46 -5 -57 -9 -53 -22 3 -9 8
-28 12 -43 6 -29 18 -36 29 -18 8 13 187 68 248 76 l49 7 -6 41 c-9 53 -17 60
-41 36z"/>
<path d="M5753 3689 c-12 -12 -230 -58 -275 -59 -25 0 -28 -4 -28 -35 0 -38 5
-40 46 -25 15 6 40 8 55 5 23 -5 29 -14 38 -53 5 -26 7 -59 4 -74 -5 -25 -2
-28 20 -28 52 0 55 5 40 66 -19 74 -12 100 29 109 24 6 35 3 44 -10 19 -25 29
-124 16 -157 -12 -33 -3 -41 34 -32 l27 7 -6 111 c-7 121 -16 186 -26 186 -4
0 -12 -5 -18 -11z"/>
<path d="M406 3459 c-4 -23 -4 -44 -1 -48 4 -3 48 -7 98 -8 158 -3 181 -14
193 -90 6 -38 3 -45 -24 -73 -30 -29 -33 -30 -129 -30 -70 0 -105 4 -119 15
-12 8 -24 11 -28 8 -8 -9 -8 -133 1 -133 3 0 14 7 24 16 13 12 43 16 123 18
117 2 140 11 184 76 27 40 30 134 7 185 -22 45 -54 57 -173 65 -73 5 -107 12
-120 24 -26 23 -29 21 -36 -25z"/>
<path d="M5601 3279 c-60 -15 -126 -81 -136 -138 -22 -130 46 -231 162 -239
53 -4 63 -1 108 30 60 41 85 80 92 152 7 69 -21 132 -76 170 -45 31 -89 39
-150 25z m107 -73 c60 -33 78 -110 40 -177 -17 -30 -32 -42 -70 -55 -45 -15
-50 -14 -85 3 -20 10 -45 30 -56 45 -25 33 -26 98 -3 133 37 57 120 81 174 51z"/>
<path d="M568 2892 c-21 -4 -33 -41 -23 -71 8 -25 56 -29 74 -7 31 37 -4 89
-51 78z"/>
<path d="M5445 2767 c-4 -17 -8 -39 -11 -48 -3 -13 5 -15 46 -15 33 1 54 -4
59 -13 9 -13 0 -68 -14 -91 -11 -18 -91 -51 -107 -45 -10 4 -18 -6 -26 -33
-18 -60 -16 -61 46 -31 31 16 62 29 68 29 7 0 19 -18 28 -40 31 -77 96 -87
156 -25 24 25 37 53 56 126 13 52 24 108 24 124 0 29 -1 30 -47 30 -67 1 -221
31 -249 49 -22 15 -23 14 -29 -17z m236 -97 c39 -22 16 -127 -37 -169 l-29
-22 -17 21 c-22 27 -22 48 -2 122 14 50 20 58 41 58 13 0 33 -5 44 -10z"/>
<path d="M743 2532 c-8 -5 -2 -27 22 -77 19 -39 37 -82 41 -98 6 -24 2 -29
-31 -43 -41 -17 -41 -17 -70 36 -7 14 -16 42 -20 63 -8 39 -21 45 -56 27 -17
-10 -17 -13 -5 -33 21 -33 48 -125 41 -137 -9 -15 -51 -12 -64 4 -16 18 -61
135 -61 157 0 12 -6 15 -25 11 -14 -2 -27 -8 -30 -11 -5 -10 29 -125 67 -225
30 -77 31 -78 47 -58 22 29 160 91 232 105 32 6 59 15 59 21 0 6 -19 68 -42
138 -40 119 -44 128 -68 128 -14 0 -30 -4 -37 -8z"/>
<path d="M5315 2300 c-4 -6 -10 -24 -15 -40 -8 -28 -7 -30 19 -30 33 0 128
-36 154 -59 17 -14 16 -16 -15 -33 -18 -9 -82 -34 -143 -54 -104 -35 -128 -48
-122 -67 1 -4 66 -41 144 -82 l142 -74 16 22 c20 28 19 47 -2 47 -28 0 -153
62 -153 76 0 21 39 41 125 64 94 26 137 50 153 85 17 37 15 45 -13 45 -31 0
-173 52 -232 85 -52 29 -50 28 -58 15z"/>
<path d="M935 2116 c-6 -8 -64 -44 -129 -80 -89 -49 -126 -64 -144 -59 l-24 6
21 -41 c27 -54 35 -57 75 -33 59 37 81 29 126 -41 22 -34 39 -67 37 -72 -6
-19 -69 -56 -94 -56 -24 0 -24 -1 -8 -27 31 -53 46 -68 53 -57 13 19 230 164
246 164 21 0 20 29 -2 58 l-18 24 -49 -31 c-27 -17 -56 -31 -65 -31 -17 0 -72
77 -84 117 -5 17 0 27 26 46 18 14 45 29 61 32 32 8 33 19 7 63 -23 37 -22 36
-35 18z"/>
<path d="M5088 1847 l-16 -34 63 -31 c87 -42 205 -119 212 -137 7 -19 28 -4
48 36 15 28 11 39 -14 39 -20 0 -233 128 -244 147 -14 22 -33 14 -49 -20z"/>
<path d="M4976 1683 c-19 -26 -19 -27 2 -41 35 -23 28 -62 -19 -116 -43 -48
-70 -57 -112 -35 -18 10 -25 7 -51 -22 l-30 -34 29 -3 c17 -2 68 -14 115 -27
47 -13 102 -26 124 -30 21 -3 49 -17 61 -30 21 -20 26 -21 42 -10 11 8 32 32
47 54 27 38 28 61 3 61 -13 0 -146 186 -168 233 -15 33 -19 33 -43 0z m92
-180 c11 -16 23 -39 27 -52 7 -23 6 -23 -30 -17 -50 10 -85 24 -85 34 0 16 41
62 55 62 8 0 22 -12 33 -27z"/>
<path d="M1193 1595 c-29 -30 -76 -70 -105 -90 l-53 -36 -28 33 c-16 18 -33
44 -38 57 l-10 24 -24 -23 c-14 -13 -25 -28 -25 -33 0 -9 102 -142 162 -211
29 -33 38 -38 61 -32 42 10 42 29 -3 73 -22 22 -40 46 -40 51 0 15 109 105
168 138 26 15 49 29 51 30 5 4 -50 74 -58 74 -3 -1 -29 -25 -58 -55z"/>
<path d="M1495 1147 c-12 -19 -13 -30 -5 -51 8 -23 15 -27 42 -24 61 6 65 89
5 96 -18 2 -30 -4 -42 -21z"/>
<path d="M4602 1128 c-19 -19 -14 -46 12 -63 29 -19 54 -10 62 21 11 43 -42
74 -74 42z"/>
<path d="M3582 5103 c3 -14 15 -19 63 -21 33 -1 140 -9 238 -17 230 -19 297
-20 297 -1 0 8 -7 17 -16 20 -27 10 -371 36 -482 36 -93 0 -103 -2 -100 -17z"/>
<path d="M2637 4549 c-30 -18 -8 -29 57 -29 68 0 82 6 65 27 -13 15 -96 17
-122 2z"/>
<path d="M2453 4543 c-26 -10 -13 -33 18 -33 36 0 72 17 64 31 -6 9 -61 11
-82 2z"/>
<path d="M2826 4529 c9 -15 135 -71 143 -64 8 8 -36 43 -76 61 -39 17 -77 19
-67 3z"/>
<path d="M2192 4508 c3 -7 23 -16 46 -19 55 -7 124 3 130 19 3 9 -19 12 -88
12 -69 0 -91 -3 -88 -12z"/>
<path d="M2532 4439 c-35 -13 -25 -29 18 -29 27 0 40 4 40 14 0 18 -30 25 -58
15z"/>
<path d="M2660 4426 c0 -9 16 -17 41 -21 45 -8 54 -4 46 20 -8 20 -87 21 -87
1z"/>
<path d="M2124 4407 c-2 -7 -3 -87 -2 -177 l3 -165 120 0 c66 0 128 3 138 7
15 7 17 24 17 162 0 85 -3 161 -6 170 -5 13 -27 16 -135 16 -97 0 -131 -3
-135 -13z m224 -156 c2 -75 -1 -118 -9 -127 -17 -21 -169 -20 -169 1 0 9 9 15
22 15 12 0 30 8 40 17 16 14 22 15 36 5 58 -42 68 -25 47 80 -18 90 -32 114
-62 104 -24 -8 -37 -34 -53 -109 -6 -31 -15 -57 -20 -57 -13 0 -23 102 -15
149 l7 42 86 -3 87 -3 3 -114z"/>
<path d="M2423 4408 c2 -7 12 -13 22 -13 10 0 20 6 23 13 2 7 -6 12 -23 12
-17 0 -25 -5 -22 -12z"/>
<path d="M2565 4326 c-18 -13 -18 -15 -3 -21 25 -10 53 -2 53 15 0 20 -26 24
-50 6z"/>
<path d="M2685 4321 c-8 -14 39 -35 60 -27 9 3 15 12 13 19 -6 15 -64 22 -73
8z"/>
<path d="M2834 4288 c-3 -5 -4 -12 0 -15 11 -11 136 -41 136 -33 0 25 -123 69
-136 48z"/>
<path d="M2515 4219 c-10 -15 1 -23 20 -15 9 3 13 10 10 16 -8 13 -22 13 -30
-1z"/>
<path d="M2630 4215 c-10 -12 -7 -15 14 -21 77 -19 134 5 59 25 -50 14 -58 14
-73 -4z"/>
<path d="M2800 4200 c-20 -12 -11 -18 41 -29 24 -5 59 -14 76 -19 18 -6 35 -7
38 -2 7 11 -34 36 -81 49 -47 13 -55 13 -74 1z"/>
<path d="M2453 4108 c2 -9 25 -13 67 -13 42 0 65 4 68 13 3 9 -15 12 -68 12
-53 0 -71 -3 -67 -12z"/>
<path d="M2660 4110 c-13 -9 -13 -11 0 -20 19 -13 110 -13 110 0 0 25 -79 40
-110 20z"/>
<path d="M2830 4082 c0 -11 39 -28 88 -37 36 -7 44 8 13 24 -29 16 -101 25
-101 13z"/>
<path d="M2477 3993 c-14 -13 -6 -23 18 -23 16 0 25 6 25 15 0 15 -31 21 -43
8z"/>
<path d="M2597 3993 c-18 -17 -1 -23 63 -23 66 0 90 10 54 24 -21 8 -109 8
-117 -1z"/>
<path d="M2202 3978 c5 -15 93 -22 156 -13 72 11 36 25 -64 25 -72 0 -95 -3
-92 -12z"/>
<path d="M2786 3971 c-8 -12 18 -21 57 -21 18 -1 43 -7 57 -15 31 -18 73 -20
68 -2 -11 30 -167 63 -182 38z"/>
<path d="M2617 3893 c-14 -13 -6 -21 28 -27 45 -9 65 2 40 21 -20 14 -57 18
-68 6z"/>
<path d="M2116 3882 c-7 -12 17 -22 51 -22 36 0 24 24 -14 28 -17 2 -34 -1
-37 -6z"/>
<path d="M2270 3875 c0 -17 1 -17 120 -15 93 1 130 7 130 21 0 5 -56 9 -125 9
-104 0 -125 -2 -125 -15z"/>
<path d="M2770 3881 c-17 -12 -15 -12 68 -30 64 -13 102 -14 102 -2 0 23 -143
49 -170 32z"/>
<path d="M2102 3788 c5 -15 37 -18 41 -3 1 6 -9 12 -22 13 -16 3 -22 -1 -19
-10z"/>
<path d="M2478 3793 c-20 -5 -23 -18 -8 -28 15 -9 52 5 47 18 -4 13 -16 16
-39 10z"/>
<path d="M2628 3793 c-10 -2 -18 -11 -18 -19 0 -10 13 -14 45 -14 32 0 45 4
45 14 0 22 -31 30 -72 19z"/>
<path d="M2210 3776 c0 -11 16 -15 63 -18 75 -4 128 3 127 17 0 6 -40 11 -95
13 -78 2 -95 0 -95 -12z"/>
<path d="M2761 3781 c-17 -11 -6 -17 49 -26 25 -3 67 -13 93 -22 53 -16 74
-10 42 13 -44 32 -155 54 -184 35z"/>
<path d="M2102 3689 c6 -18 41 -27 115 -28 53 -1 85 10 71 25 -3 2 -47 7 -98
11 -76 5 -92 4 -88 -8z"/>
<path d="M2365 3691 c-17 -16 5 -21 78 -19 102 4 102 23 -1 24 -40 0 -75 -2
-77 -5z"/>
<path d="M2587 3694 c-16 -16 -5 -24 34 -24 28 0 39 4 37 13 -5 13 -60 22 -71
11z"/>
<path d="M2753 3682 c-13 -2 -23 -8 -23 -13 0 -5 1 -9 3 -10 1 0 36 -4 77 -9
41 -5 87 -12 103 -16 17 -4 27 -2 27 5 0 23 -127 52 -187 43z"/>
<path d="M2086 3591 c-8 -13 33 -31 70 -31 23 0 33 14 16 24 -19 12 -80 17
-86 7z"/>
<path d="M2244 3588 c-7 -11 14 -19 70 -25 77 -8 166 5 166 23 0 13 -19 15
-116 12 -64 -2 -118 -6 -120 -10z"/>
<path d="M2553 3593 c-22 -8 -14 -21 17 -25 38 -6 62 8 40 22 -16 10 -37 12
-57 3z"/>
<path d="M2721 3571 c-11 -7 -6 -11 20 -15 147 -23 181 -27 187 -21 28 27
-167 61 -207 36z"/>
<path d="M2082 3498 c5 -14 81 -28 110 -20 29 7 20 19 -19 26 -62 10 -95 7
-91 -6z"/>
<path d="M2270 3484 c0 -8 27 -15 75 -19 79 -8 145 -1 145 15 0 12 -8 13 -127
15 -67 1 -93 -3 -93 -11z"/>
<path d="M2540 3481 c0 -10 40 -22 52 -15 18 11 6 24 -22 24 -16 0 -30 -4 -30
-9z"/>
<path d="M2513 3390 c-36 -14 -27 -30 16 -30 42 0 63 16 40 31 -17 11 -27 10
-56 -1z"/>
<path d="M2350 3364 c0 -11 8 -14 32 -12 46 4 49 28 4 28 -26 0 -36 -4 -36
-16z"/>
<path d="M2630 3372 c0 -9 260 -45 268 -37 12 12 -16 24 -78 34 -77 13 -190
14 -190 3z"/>
<path d="M2245 3290 c-10 -16 13 -20 123 -27 80 -4 111 -3 117 6 4 7 5 14 4
15 -10 8 -239 13 -244 6z"/>
<path d="M2583 3293 c-7 -2 -13 -10 -13 -17 0 -9 18 -13 60 -14 33 0 60 3 60
8 0 23 -71 38 -107 23z"/>
<path d="M2110 3280 c0 -5 14 -10 30 -10 17 0 30 5 30 10 0 6 -13 10 -30 10
-16 0 -30 -4 -30 -10z"/>
<path d="M2772 3281 c-43 -11 -23 -26 45 -33 38 -3 84 -10 103 -14 31 -6 34
-5 22 9 -23 27 -124 50 -170 38z"/>
<path d="M2070 3186 c0 -11 9 -16 26 -16 31 0 28 23 -4 28 -15 2 -22 -2 -22
-12z"/>
<path d="M2521 3191 c-22 -14 -3 -31 34 -31 43 0 54 17 20 30 -32 12 -36 12
-54 1z"/>
<path d="M2673 3192 c-13 -2 -23 -10 -23 -18 0 -11 16 -14 69 -14 66 0 147
-11 184 -25 35 -14 16 16 -20 32 -38 15 -168 31 -210 25z"/>
<path d="M2180 3176 c0 -29 258 -28 268 2 3 9 -28 12 -132 12 -109 0 -136 -3
-136 -14z"/>
<path d="M2103 3093 c-13 -2 -23 -8 -23 -13 0 -12 39 -20 103 -20 44 0 57 3
57 15 0 10 -10 15 -29 15 -16 0 -41 2 -57 4 -16 2 -39 2 -51 -1z"/>
<path d="M2535 3088 c-19 -11 -19 -11 0 -19 29 -11 145 -11 145 1 0 28 -105
41 -145 18z"/>
<path d="M2280 3081 c0 -13 38 -21 102 -21 60 0 88 7 88 21 0 5 -43 9 -95 9
-52 0 -95 -4 -95 -9z"/>
<path d="M2080 2989 c0 -16 24 -21 102 -21 79 0 98 5 84 19 -10 11 -186 12
-186 2z"/>
<path d="M2358 2993 c-10 -2 -18 -11 -18 -19 0 -17 95 -20 106 -3 14 23 -38
35 -88 22z"/>
<path d="M2523 2994 c-7 -3 -13 -12 -13 -19 0 -9 18 -14 56 -17 55 -3 75 5 58
22 -11 11 -85 21 -101 14z"/>
<path d="M2675 2971 c-3 -5 21 -12 52 -16 32 -3 89 -10 128 -15 72 -9 81 -8
71 9 -15 24 -237 44 -251 22z"/>
<path d="M2175 2891 c-9 -16 6 -19 134 -22 86 -3 125 -1 128 7 2 6 -6 14 -19
18 -37 9 -236 7 -243 -3z"/>
<path d="M2533 2890 c-39 -16 -26 -30 27 -30 54 0 66 15 24 30 -14 6 -26 10
-27 9 -1 0 -12 -4 -24 -9z"/>
<path d="M2713 2883 c-18 -3 -33 -8 -33 -14 0 -5 1 -9 3 -9 1 -1 45 -5 97 -10
52 -6 110 -13 128 -16 47 -9 40 11 -10 29 -47 17 -134 26 -185 20z"/>
<path d="M2075 2790 c-3 -6 1 -13 10 -16 19 -8 30 0 20 15 -8 14 -22 14 -30 1z"/>
<path d="M2188 2789 c-28 -18 10 -29 97 -29 94 0 125 5 125 20 0 10 -207 18
-222 9z"/>
<path d="M2492 2771 c-13 -3 -23 -10 -23 -16 1 -13 81 -13 82 0 1 13 -32 23
-59 16z"/>
<path d="M2615 2761 c-4 -7 -5 -14 -4 -15 2 -2 58 -8 124 -14 66 -7 130 -15
143 -18 37 -10 26 15 -14 32 -48 20 -238 31 -249 15z"/>
<path d="M2096 2691 c-10 -15 27 -31 73 -31 37 0 53 11 34 23 -19 12 -101 18
-107 8z"/>
<path d="M2296 2682 c-16 -4 -31 -12 -33 -18 -4 -13 253 -26 276 -14 44 23
-167 50 -243 32z"/>
<path d="M2618 2674 c-17 -17 -6 -24 35 -24 46 0 201 -18 230 -26 9 -3 17 -1
17 5 0 25 -261 68 -282 45z"/>
<path d="M2261 2582 c-14 -4 -26 -13 -29 -20 -3 -9 29 -12 130 -12 73 0 149
-3 168 -5 36 -6 71 8 56 22 -4 4 -33 9 -64 9 -32 1 -97 4 -147 7 -49 4 -101 3
-114 -1z"/>
<path d="M2667 2563 c-17 -16 0 -21 96 -26 56 -3 117 -9 135 -13 54 -11 37 13
-22 30 -54 16 -197 22 -209 9z"/>
<path d="M2616 2461 c-10 -16 6 -19 134 -25 63 -3 130 -8 148 -12 19 -4 32 -2
32 4 0 20 -68 35 -186 39 -84 4 -124 2 -128 -6z"/>
<path d="M2659 2364 c-8 -9 6 -14 58 -19 37 -4 95 -11 128 -16 84 -13 90 -12
75 5 -18 23 -67 34 -163 38 -61 3 -91 1 -98 -8z"/>
<path d="M2534 2255 c-9 -22 -3 -26 29 -17 34 9 35 26 2 30 -16 2 -27 -2 -31
-13z"/>
<path d="M2677 2263 c-16 -15 -4 -23 36 -23 23 -1 76 -7 117 -14 75 -14 117
-6 68 13 -63 24 -206 40 -221 24z"/>
<path d="M2663 2163 c-34 -13 -3 -21 100 -26 61 -2 123 -8 136 -12 18 -6 23
-5 19 6 -3 8 -27 19 -54 26 -50 11 -179 16 -201 6z"/>
<path d="M3395 4519 c-59 -13 -115 -40 -115 -56 0 -17 5 -17 73 7 31 11 64 20
72 20 9 0 26 5 37 11 17 9 18 13 7 20 -16 10 -21 10 -74 -2z"/>
<path d="M3532 4508 c5 -15 97 -18 101 -3 1 6 -22 11 -52 13 -40 2 -52 0 -49
-10z"/>
<path d="M3715 4499 c-7 -10 36 -29 63 -29 9 0 24 4 32 10 13 8 13 9 0 14 -35
11 -90 14 -95 5z"/>
<path d="M4057 4493 c-35 -5 -30 -27 7 -31 33 -4 64 17 44 29 -7 5 -15 8 -18
7 -3 0 -18 -3 -33 -5z"/>
<path d="M3882 4478 c3 -8 26 -14 56 -16 42 -2 52 0 52 12 0 13 -12 16 -56 16
-40 0 -55 -4 -52 -12z"/>
<path d="M3373 4410 c-49 -10 -103 -36 -103 -50 0 -15 24 -12 82 10 29 11 65
20 81 20 15 0 27 5 27 10 0 6 -4 10 -9 10 -5 0 -15 2 -23 4 -7 2 -32 0 -55 -4z"/>
<path d="M3510 4391 c0 -13 26 -21 66 -21 24 0 34 5 34 15 0 11 -12 15 -50 15
-27 0 -50 -4 -50 -9z"/>
<path d="M4046 4382 c-15 -14 -3 -22 34 -22 28 0 40 4 40 14 0 14 -62 21 -74
8z"/>
<path d="M3692 4368 c5 -14 61 -23 86 -13 14 5 14 7 2 15 -23 15 -92 12 -88
-2z"/>
<path d="M3885 4364 c23 -17 86 -15 93 4 3 9 -12 12 -55 12 -54 -1 -57 -2 -38
-16z"/>
<path d="M3527 4284 c-12 -12 4 -24 34 -24 31 0 39 14 13 24 -20 8 -39 8 -47
0z"/>
<path d="M4008 4273 c-24 -6 -23 -20 3 -28 31 -10 89 3 89 20 0 15 -51 19 -92
8z"/>
<path d="M3682 4258 c5 -15 67 -18 71 -3 1 6 -15 11 -37 13 -28 3 -37 0 -34
-10z"/>
<path d="M3827 4254 c-13 -14 5 -24 42 -24 22 0 44 6 51 15 11 13 6 15 -37 15
-27 0 -53 -3 -56 -6z"/>
<path d="M4131 4181 c-23 -15 -3 -29 31 -22 41 8 50 31 11 31 -15 0 -34 -4
-42 -9z"/>
<path d="M3464 4169 c-10 -18 17 -29 61 -25 54 5 53 5 31 21 -23 18 -82 20
-92 4z"/>
<path d="M3630 4162 c0 -13 25 -22 57 -22 15 0 23 5 21 13 -5 14 -78 23 -78 9z"/>
<path d="M3957 4163 c-16 -15 -5 -23 32 -23 46 0 73 9 65 21 -6 10 -87 12 -97
2z"/>
<path d="M3795 4150 c-3 -5 0 -13 8 -16 23 -8 82 0 82 11 0 14 -82 19 -90 5z"/>
<path d="M3482 4068 c5 -15 67 -18 71 -3 1 6 -15 11 -37 13 -28 3 -37 0 -34
-10z"/>
<path d="M3627 4064 c-13 -13 5 -24 39 -24 24 0 34 5 34 15 0 10 -10 15 -33
15 -19 0 -37 -3 -40 -6z"/>
<path d="M3778 4063 c-41 -10 -9 -33 45 -33 34 0 65 14 51 22 -15 9 -78 16
-96 11z"/>
<path d="M3943 4063 c-31 -12 -9 -24 39 -21 65 4 80 28 16 27 -23 0 -49 -3
-55 -6z"/>
<path d="M4101 3991 c-61 -8 -67 -31 -8 -31 25 0 52 3 61 6 19 7 22 35 4 32
-7 0 -33 -4 -57 -7z"/>
<path d="M3487 3974 c-15 -15 7 -24 59 -24 40 0 55 4 52 13 -5 13 -99 23 -111
11z"/>
<path d="M3870 3971 c-34 -9 -10 -24 40 -24 46 0 69 11 49 24 -16 10 -53 10
-89 0z"/>
<path d="M3692 3958 c5 -16 41 -22 74 -14 42 11 26 26 -27 26 -36 0 -49 -4
-47 -12z"/>
<path d="M4057 3893 c-15 -14 -5 -23 27 -23 18 0 39 7 46 15 11 13 7 15 -27
15 -22 0 -43 -3 -46 -7z"/>
<path d="M3430 3876 c0 -12 10 -16 36 -16 45 0 42 24 -4 28 -24 2 -32 -1 -32
-12z"/>
<path d="M3560 3880 c-21 -13 -5 -24 35 -24 38 0 50 7 40 23 -8 13 -55 14 -75
1z"/>
<path d="M3910 3882 c-50 -7 -44 -22 8 -22 29 0 52 4 52 9 0 11 -28 18 -60 13z"/>
<path d="M3722 3868 c3 -7 19 -14 37 -16 24 -3 32 0 29 10 -3 7 -19 14 -37 16
-24 3 -32 0 -29 -10z"/>
<path d="M4163 3813 c-7 -3 -13 -11 -13 -20 0 -17 41 -14 47 3 4 13 -16 23
-34 17z"/>
<path d="M3435 3790 c-3 -5 0 -13 8 -16 23 -8 92 0 92 11 0 14 -92 19 -100 5z"/>
<path d="M3610 3786 c0 -8 7 -17 16 -20 25 -10 92 -7 99 4 8 12 -5 16 -67 24
-37 4 -48 2 -48 -8z"/>
<path d="M3833 3793 c-43 -6 -42 -20 1 -28 40 -8 79 2 73 18 -4 13 -26 16 -74
10z"/>
<path d="M3975 3790 c-11 -17 15 -31 45 -24 44 10 42 20 -7 30 -19 4 -33 2
-38 -6z"/>
<path d="M3433 3703 c-29 -11 -10 -23 37 -23 52 0 67 13 28 24 -26 7 -48 7
-65 -1z"/>
<path d="M3615 3690 c-3 -5 0 -13 9 -16 21 -8 71 -1 71 11 0 14 -72 19 -80 5z"/>
<path d="M3782 3678 c3 -7 17 -14 32 -16 20 -3 27 0 24 10 -3 7 -17 14 -32 16
-20 3 -27 0 -24 -10z"/>
<path d="M3903 3677 c-9 -14 18 -28 52 -25 46 4 40 33 -8 34 -21 1 -40 -3 -44
-9z"/>
<path d="M4060 3665 c0 -13 8 -16 38 -13 20 2 37 8 37 13 0 6 -17 11 -37 13
-30 3 -38 0 -38 -13z"/>
<path d="M3440 3591 c-12 -9 -12 -11 2 -16 23 -9 73 -2 73 10 0 13 -56 18 -75
6z"/>
<path d="M3597 3593 c-17 -16 -4 -23 42 -23 50 0 74 13 45 24 -21 8 -79 8 -87
-1z"/>
<path d="M3765 3580 c-7 -12 39 -24 61 -16 8 3 12 10 9 16 -8 13 -62 13 -70 0z"/>
<path d="M3931 3571 c-18 -12 -4 -19 46 -22 51 -4 66 7 29 21 -33 12 -56 13
-75 1z"/>
<path d="M4138 3573 c-40 -4 -51 -18 -20 -25 25 -6 76 5 75 17 -2 12 -8 13
-55 8z"/>
<path d="M3422 3488 c5 -15 87 -18 91 -3 1 6 -20 11 -47 13 -36 2 -47 0 -44
-10z"/>
<path d="M3618 3493 c-33 -9 -18 -23 23 -23 28 0 39 4 37 13 -5 13 -32 18 -60
10z"/>
<path d="M3785 3480 c-8 -14 43 -32 67 -24 11 3 16 9 12 14 -15 13 -73 20 -79
10z"/>
<path d="M3950 3461 c0 -12 26 -21 60 -21 34 0 60 9 60 21 0 5 -27 9 -60 9
-33 0 -60 -4 -60 -9z"/>
<path d="M3420 3391 c0 -14 37 -23 60 -16 34 11 22 25 -20 25 -22 0 -40 -4
-40 -9z"/>
<path d="M3557 3394 c-14 -15 6 -24 54 -24 36 0 49 4 47 13 -5 13 -89 23 -101
11z"/>
<path d="M3742 3378 c5 -15 78 -24 78 -10 0 13 -25 22 -57 22 -15 0 -23 -5
-21 -12z"/>
<path d="M3929 3369 c-20 -13 6 -29 48 -29 27 0 53 15 42 24 -11 9 -78 13 -90
5z"/>
<path d="M4118 3373 c-20 -5 -23 -18 -7 -28 16 -10 61 4 56 18 -4 13 -23 17
-49 10z"/>
<path d="M3490 3301 c0 -12 26 -21 61 -21 19 0 29 5 29 15 0 11 -12 15 -45 15
-25 0 -45 -4 -45 -9z"/>
<path d="M3660 3300 c-19 -12 -13 -16 36 -25 28 -4 44 -3 49 5 15 25 -52 41
-85 20z"/>
<path d="M3820 3271 c0 -11 36 -21 78 -21 34 0 43 14 16 24 -24 9 -94 7 -94
-3z"/>
<path d="M3975 3250 c-8 -12 40 -24 62 -16 15 6 15 8 3 16 -20 13 -57 13 -65
0z"/>
<path d="M3527 3214 c-17 -17 -4 -24 44 -24 36 0 49 4 47 13 -5 13 -79 22 -91
11z"/>
<path d="M3705 3200 c-18 -7 -18 -9 8 -19 37 -15 70 -14 65 1 -6 16 -49 27
-73 18z"/>
<path d="M3842 3168 c5 -15 78 -24 78 -10 0 13 -25 22 -57 22 -15 0 -23 -5
-21 -12z"/>
<path d="M3523 3113 c-24 -9 -13 -23 18 -23 20 0 29 4 27 13 -5 13 -26 18 -45
10z"/>
<path d="M3657 3103 c-4 -3 -7 -10 -7 -14 0 -12 67 -22 87 -14 15 6 13 9 -12
21 -33 15 -58 17 -68 7z"/>
<path d="M3822 3078 c3 -7 19 -14 37 -16 24 -3 32 0 29 10 -3 7 -19 14 -37 16
-24 3 -32 0 -29 -10z"/>
<path d="M3447 3014 c-12 -12 4 -24 31 -24 39 0 73 11 66 21 -6 10 -87 12 -97
3z"/>
<path d="M3629 2996 c16 -19 85 -22 79 -3 -3 6 -24 13 -48 15 -39 3 -42 2 -31
-12z"/>
<path d="M3787 2993 c-14 -13 -6 -21 29 -28 47 -8 69 10 30 25 -32 12 -50 13
-59 3z"/>
<path d="M3923 2955 c11 -7 25 -11 33 -8 22 8 6 23 -24 23 -25 -1 -26 -2 -9
-15z"/>
<path d="M3452 2898 c5 -15 79 -23 117 -13 41 10 5 25 -62 25 -43 0 -58 -3
-55 -12z"/>
<path d="M3654 2889 c-6 -10 3 -15 48 -27 39 -11 58 -2 35 16 -16 13 -77 21
-83 11z"/>
<path d="M3796 2873 c-13 -14 -4 -22 29 -29 39 -7 74 2 59 15 -12 11 -80 21
-88 14z"/>
<path d="M3465 2811 c-6 -11 16 -19 69 -23 43 -3 61 16 24 26 -35 9 -86 7 -93
-3z"/>
<path d="M3640 2790 c0 -16 75 -34 96 -22 18 10 17 11 -9 21 -35 14 -87 14
-87 1z"/>
<path d="M3815 2780 c-6 -10 26 -30 49 -30 9 0 16 4 16 9 0 13 -58 32 -65 21z"/>
<path d="M3444 2705 c22 -16 101 -20 110 -6 9 13 -20 21 -77 21 -48 -1 -50 -2
-33 -15z"/>
<path d="M3620 2692 c0 -11 34 -22 68 -22 15 0 22 5 20 13 -5 14 -88 23 -88 9z"/>
<path d="M3790 2672 c0 -13 25 -22 57 -22 15 0 23 5 21 13 -5 14 -78 23 -78 9z"/>
<path d="M3365 2610 c-3 -6 0 -13 8 -16 24 -9 80 0 85 14 5 15 -84 17 -93 2z"/>
<path d="M3512 2598 c5 -15 118 -24 118 -10 0 11 -48 22 -92 22 -19 0 -28 -4
-26 -12z"/>
<path d="M3690 2581 c0 -11 25 -21 52 -21 17 0 18 3 8 15 -13 16 -60 21 -60 6z"/>
<path d="M3855 2561 c-8 -14 28 -31 64 -31 45 0 47 17 4 29 -47 13 -60 14 -68
2z"/>
<path d="M3871 2333 c-26 -94 -44 -204 -34 -214 11 -11 139 -36 147 -28 2 2 7
16 11 30 6 24 4 27 -35 33 -25 4 -43 13 -47 23 -4 10 1 53 10 97 17 84 14 95
-25 96 -11 0 -21 -13 -27 -37z"/>
<path d="M4065 2298 c-10 -31 -25 -136 -25 -180 0 -44 2 -48 23 -48 22 0 24 5
35 103 7 56 12 110 12 120 0 20 -38 24 -45 5z"/>
<path d="M4213 2260 c-18 -10 -40 -31 -49 -45 -23 -36 -24 -104 -1 -139 21
-31 88 -65 128 -66 34 0 48 17 55 71 5 38 3 47 -18 66 -34 31 -62 33 -66 5 -2
-13 4 -32 13 -42 18 -20 13 -40 -10 -40 -21 0 -55 50 -55 81 0 32 31 69 58 69
9 -1 28 -7 42 -15 34 -20 50 -18 50 4 0 26 -56 71 -88 71 -15 0 -41 -9 -59
-20z"/>
<path d="M4730 2255 c-30 -7 -67 -14 -82 -14 -24 -1 -28 -5 -28 -30 0 -25 4
-30 28 -33 25 -3 28 -8 37 -65 12 -71 16 -77 45 -68 20 6 21 11 15 79 -7 71
-6 72 19 84 18 8 26 19 26 37 0 14 -1 24 -2 24 -2 -1 -28 -7 -58 -14z"/>
<path d="M4402 2128 c3 -109 4 -113 26 -116 19 -3 22 1 22 31 0 65 62 76 78
14 6 -25 14 -32 33 -32 24 0 24 0 22 97 -1 105 -5 118 -33 118 -22 0 -30 -18
-23 -52 4 -19 0 -29 -15 -37 -27 -15 -50 6 -54 49 -3 30 -7 35 -31 38 l-28 3
3 -113z"/>
<path d="M1970 2454 c-6 -14 -10 -32 -10 -41 0 -9 -16 -44 -35 -79 -19 -34
-35 -66 -35 -71 0 -4 26 -21 57 -37 54 -27 57 -27 70 -10 18 25 17 30 -16 53
l-29 21 20 52 c11 29 28 67 39 85 20 32 20 32 0 42 -32 17 -51 13 -61 -15z"/>
<path d="M2105 2289 c-26 -44 -48 -86 -49 -93 -1 -17 91 -116 109 -116 8 0 19
9 26 21 9 19 6 25 -25 51 -20 16 -36 38 -36 49 0 23 13 25 30 4 18 -21 37 -19
51 7 10 19 9 24 -10 36 -20 14 -29 42 -13 42 4 0 24 -11 44 -25 34 -23 58 -32
58 -21 0 2 3 11 6 19 6 18 -98 107 -125 107 -12 0 -35 -28 -66 -81z"/>
<path d="M2332 2208 c-15 -15 -15 -41 -1 -55 17 -17 -3 -46 -61 -88 -52 -38
-60 -54 -35 -75 17 -14 19 -12 88 47 45 40 53 40 79 7 19 -24 21 -24 39 -8 11
9 19 23 19 30 0 19 -93 154 -105 154 -6 0 -16 -5 -23 -12z"/>
<path d="M2512 1937 c-7 -8 -9 -27 -6 -44 5 -27 0 -35 -50 -78 -53 -46 -68
-76 -46 -90 5 -3 35 12 67 34 64 47 73 49 97 22 10 -11 24 -17 32 -14 32 12
10 -21 -56 -85 -38 -37 -70 -76 -70 -85 0 -30 29 -31 59 -3 33 32 45 33 65 5
17 -24 12 -44 -18 -77 -16 -18 -18 -27 -10 -40 21 -32 39 -21 99 60 33 45 64
87 70 94 7 10 5 19 -7 31 -16 16 -19 15 -42 -10 -26 -28 -50 -28 -61 0 -3 10
4 27 20 43 14 14 25 33 25 41 0 20 -20 39 -42 39 -12 0 -18 8 -18 23 0 30 -63
141 -82 145 -8 2 -20 -3 -26 -11z"/>
<path d="M2748 1562 c-58 -78 -82 -126 -75 -145 6 -17 72 -54 119 -68 23 -6
30 -4 39 13 6 11 9 21 7 23 -2 1 -22 14 -45 29 -54 33 -56 51 -7 41 50 -9 62
11 28 46 -31 33 -18 45 30 28 18 -7 41 -9 50 -6 32 12 15 37 -44 67 l-60 30
-42 -58z"/>
<path d="M3602 1568 l-52 -41 21 -36 c37 -64 84 -120 99 -121 20 0 110 78 110
96 0 26 -29 26 -61 0 -32 -27 -41 -31 -53 -19 -3 4 5 16 19 27 23 19 24 23 12
40 -12 16 -16 17 -35 5 -39 -24 -37 2 2 35 24 20 36 37 32 44 -12 20 -39 12
-94 -30z"/>
<path d="M2931 1506 c-46 -170 -47 -177 -26 -192 18 -14 21 -13 34 5 19 29 36
26 51 -8 7 -18 22 -32 37 -36 33 -8 37 -2 25 33 -9 26 -7 34 18 63 41 48 40
91 -4 135 -29 29 -41 34 -80 34 -43 0 -46 -2 -55 -34z m97 -38 c18 -18 14 -46
-7 -58 -37 -19 -51 -12 -51 23 0 19 3 37 7 40 10 11 38 8 51 -5z"/>
<path d="M3413 1500 c-13 -5 -23 -18 -23 -29 0 -35 41 -196 54 -209 17 -17
103 12 134 45 30 33 28 61 -9 99 -17 18 -34 47 -38 66 -6 31 -9 33 -51 35 -25
1 -55 -2 -67 -7z m70 -36 c9 -10 -4 -34 -19 -34 -8 0 -14 9 -14 20 0 19 19 27
33 14z m41 -90 c25 -10 19 -43 -8 -50 -31 -7 -46 1 -46 26 0 24 24 35 54 24z"/>
<path d="M3153 1479 c-10 -14 -43 -163 -43 -199 0 -23 24 -31 96 -33 36 -2 49
2 49 12 0 16 -18 27 -58 36 -39 8 -33 39 8 43 28 4 44 16 45 34 0 4 -14 15
-30 23 -37 19 -29 39 11 31 22 -4 31 -1 40 15 15 29 0 41 -58 46 -34 4 -52 1
-60 -8z"/>
<path d="M2325 863 c16 -39 17 -68 5 -153 -12 -81 -11 -91 6 -126 52 -106 251
-114 282 -12 6 18 21 70 33 116 12 46 28 86 35 89 23 8 16 20 -17 32 -46 16
-59 14 -59 -9 0 -30 -29 -170 -42 -203 -13 -33 -36 -47 -78 -47 -45 0 -89 26
-96 57 -9 35 24 209 42 224 23 19 17 26 -30 38 -67 17 -90 15 -81 -6z"/>
<path d="M3663 823 c-61 -14 -62 -15 -49 -36 11 -18 12 -44 5 -136 -5 -62 -13
-131 -18 -153 -8 -33 -7 -39 6 -34 8 3 24 6 35 6 16 0 19 5 14 28 -10 44 11
62 88 75 66 11 69 11 87 -12 10 -13 19 -29 19 -37 0 -15 75 -20 84 -6 3 5 -8
24 -23 43 -59 72 -161 235 -161 256 0 26 -3 26 -87 6z m75 -135 c18 -23 32
-45 32 -49 0 -5 -18 -14 -41 -20 -58 -18 -68 4 -43 94 8 25 16 21 52 -25z"/>
<path d="M2839 757 c-93 -63 -113 -183 -43 -267 40 -47 79 -62 154 -62 91 1
120 13 120 51 l0 30 -46 -21 c-65 -28 -126 -18 -172 28 -33 33 -34 37 -30 89
5 65 30 96 93 120 38 15 45 15 86 0 64 -23 64 -23 67 11 4 38 -10 44 -119 44
-63 0 -82 -4 -110 -23z"/>
<path d="M3213 773 c-18 -3 -21 -8 -14 -21 15 -28 25 -278 12 -286 -32 -20 0
-26 133 -26 155 0 156 0 156 56 0 21 -3 23 -19 14 -29 -15 -164 -13 -186 4
-16 12 -19 29 -21 137 -2 134 -2 134 -61 122z"/>
</g>
</svg>
