<?xml version="1.0" standalone="no"?>
<!DOCTYPE svg PUBLIC "-//W3C//DTD SVG 20010904//EN"
 "http://www.w3.org/TR/2001/REC-SVG-20010904/DTD/svg10.dtd">
<svg version="1.0" xmlns="http://www.w3.org/2000/svg"
 width="175.000000pt" height="181.000000pt" viewBox="0 0 175.000000 181.000000"
 preserveAspectRatio="xMidYMid meet">

<g transform="translate(0.000000,181.000000) scale(0.100000,-0.100000)"
fill="#000000" stroke="none">
<path d="M755 1770 c-4 -6 -3 -16 3 -22 6 -6 12 -6 17 2 4 6 3 16 -3 22 -6 6
-12 6 -17 -2z"/>
<path d="M805 1771 c-3 -5 -1 -12 5 -16 12 -7 30 2 30 16 0 12 -27 12 -35 0z"/>
<path d="M870 1764 c0 -17 22 -14 28 4 2 7 -3 12 -12 12 -9 0 -16 -7 -16 -16z"/>
<path d="M937 1774 c-8 -8 1 -24 14 -24 5 0 9 7 9 15 0 15 -12 20 -23 9z"/>
<path d="M995 1770 c-9 -15 -1 -23 21 -18 15 3 16 4 1 16 -11 9 -17 10 -22 2z"/>
<path d="M697 1763 c-12 -11 -8 -23 8 -23 8 0 15 7 15 15 0 16 -12 20 -23 8z"/>
<path d="M1052 1748 c6 -18 28 -21 28 -4 0 9 -7 16 -16 16 -9 0 -14 -5 -12
-12z"/>
<path d="M632 1738 c6 -18 28 -21 28 -4 0 9 -7 16 -16 16 -9 0 -14 -5 -12 -12z"/>
<path d="M1115 1740 c-4 -6 -3 -16 3 -22 6 -6 12 -6 17 2 4 6 3 16 -3 22 -6 6
-12 6 -17 -2z"/>
<path d="M582 1726 c1 -10 8 -17 13 -17 15 1 12 24 -3 29 -9 3 -13 -2 -10 -12z"/>
<path d="M1167 1724 c-8 -8 1 -24 14 -24 5 0 9 7 9 15 0 15 -12 20 -23 9z"/>
<path d="M725 1710 c-104 -24 -204 -69 -297 -133 -166 -116 -230 -195 -299
-369 l-41 -103 -2 -165 c-2 -228 20 -316 109 -450 25 -37 45 -71 45 -75 0 -16
55 -77 89 -97 20 -12 62 -46 93 -76 43 -41 65 -54 90 -55 25 -2 35 3 43 21 12
26 30 24 31 -5 2 -40 13 -51 71 -74 50 -19 78 -22 203 -23 150 -1 207 8 283
46 29 14 37 24 37 46 l0 27 19 -25 c19 -24 20 -24 53 -8 18 8 63 40 99 69 37
30 83 66 102 81 64 50 181 254 197 344 5 33 15 82 20 109 7 31 8 101 4 185 -6
117 -11 145 -37 210 -72 181 -141 272 -287 374 -171 120 -250 147 -445 152
-77 2 -158 -1 -180 -6z m353 -24 c84 -24 150 -58 263 -134 192 -131 293 -305
318 -547 13 -115 12 -125 -13 -254 -17 -90 -34 -147 -51 -175 -114 -187 -132
-212 -185 -249 -30 -21 -64 -46 -76 -56 -28 -24 -97 -71 -105 -71 -3 0 -23 28
-44 61 l-38 62 43 36 c23 20 59 51 80 69 54 47 164 216 190 292 31 91 37 220
16 312 -29 122 -47 171 -77 206 -16 18 -38 49 -48 70 -26 49 -50 73 -122 123
-80 54 -148 83 -246 105 -64 15 -83 23 -88 39 -6 20 -6 20 -17 -1 -8 -18 -28
-25 -102 -40 -115 -22 -261 -94 -332 -163 -81 -80 -175 -282 -173 -373 0 -22
7 -6 19 50 26 115 98 249 169 313 81 75 122 93 211 92 l75 0 -65 6 c-64 6 -64
6 -35 20 42 19 156 51 182 51 41 0 25 -26 -22 -36 l-46 -9 32 -38 c17 -21 34
-36 37 -32 3 3 -5 16 -18 30 -13 14 -18 25 -12 25 9 0 58 -18 70 -26 3 -2 -21
-45 -36 -64 -1 -2 -7 2 -11 9 -6 9 -10 3 -13 -18 -5 -35 1 -37 44 -15 17 9 39
13 50 11 19 -5 19 -5 3 13 -9 10 -15 27 -13 37 3 13 9 8 24 -22 10 -22 24 -43
31 -48 21 -13 43 -38 43 -48 0 -14 -28 -11 -33 4 -3 7 -6 5 -6 -5 -1 -29 -17
-21 -29 15 l-10 32 1 -39 c1 -23 -3 -41 -10 -43 -9 -3 -14 10 -15 44 l-2 48
-3 -47 c-2 -27 -8 -48 -13 -48 -15 0 -24 23 -22 55 1 25 0 27 -7 10 -5 -11 -7
-23 -5 -27 3 -4 -1 -10 -7 -13 -6 -5 2 -15 20 -26 l31 -19 0 -331 0 -331 -22
6 c-13 4 -42 10 -65 13 -39 5 -44 9 -42 29 0 4 -10 12 -22 18 -29 14 -35 33
-12 39 12 3 9 5 -9 6 -34 1 -58 11 -58 22 0 5 8 10 18 11 9 0 -5 4 -33 7 l-50
6 -3 268 c-2 226 0 267 12 267 8 0 16 4 18 8 2 5 43 38 92 75 49 37 86 67 82
67 -9 0 -44 -24 -141 -96 -67 -50 -72 -52 -122 -48 l-53 5 0 -44 c0 -42 -2
-44 -75 -97 -41 -30 -73 -56 -70 -58 2 -2 33 17 68 42 36 25 67 46 71 46 3 0
6 -23 6 -51 0 -51 -1 -53 -86 -145 -102 -112 -102 -126 1 -19 39 41 75 75 78
75 4 0 7 -38 7 -85 0 -79 -2 -88 -33 -137 -61 -96 -79 -128 -73 -128 3 0 26
32 52 70 25 39 50 68 55 64 5 -3 9 -23 9 -44 0 -32 -4 -39 -22 -42 -16 -2 -26
-14 -34 -43 -7 -22 -21 -57 -33 -78 l-20 -39 -30 59 c-40 80 -63 162 -71 258
l-7 80 -2 -81 c-3 -187 104 -382 268 -489 33 -22 61 -44 61 -48 0 -17 -53
-142 -63 -149 -15 -9 -33 3 -93 59 -28 26 -72 63 -97 80 -26 18 -56 47 -67 65
-10 18 -36 59 -57 92 -21 32 -46 71 -56 86 -19 30 -30 78 -52 220 -18 116 -10
300 15 349 4 9 16 36 25 61 63 164 126 242 278 346 109 75 212 121 320 144 59
13 271 3 335 -14z m-194 -187 c1 -37 -10 -48 -19 -19 -7 21 3 65 13 56 3 -3 6
-20 6 -37z m174 1 c119 -41 243 -126 271 -186 11 -23 34 -58 49 -76 35 -40 60
-86 66 -124 3 -16 11 -54 18 -84 23 -105 14 -218 -27 -329 -27 -73 -114 -198
-180 -258 -60 -56 -65 -58 -116 -58 -48 0 -54 3 -50 20 2 11 4 41 5 68 l1 47
62 0 c53 0 64 -3 79 -22 12 -17 15 -18 10 -5 -4 14 0 20 14 24 13 3 20 14 20
29 0 14 6 24 15 24 22 0 79 54 92 89 10 28 8 36 -29 97 -22 36 -38 67 -36 68
2 1 18 8 36 16 18 7 40 26 48 42 15 29 16 30 37 11 22 -18 22 -18 5 3 -10 12
-18 37 -18 58 0 26 -4 36 -12 33 -8 -2 -12 -17 -10 -35 4 -36 -20 -87 -47
-102 -25 -13 -77 -13 -102 0 -21 12 -26 32 -6 24 8 -3 25 0 40 5 19 7 28 20
33 47 5 25 9 32 15 22 6 -9 9 -6 9 12 0 23 1 24 18 7 16 -17 16 -19 0 -31 -10
-7 -18 -21 -18 -32 0 -13 6 -9 25 15 l24 34 -57 59 c-55 57 -57 62 -58 114 0
30 1 54 4 54 3 0 36 -23 74 -51 38 -28 71 -50 73 -47 3 2 -31 31 -75 63 -79
58 -80 60 -80 103 0 27 -4 41 -10 37 -6 -4 -33 -4 -60 0 -39 5 -66 20 -136 71
-47 36 -88 63 -90 61 -3 -2 33 -32 78 -67 46 -34 81 -65 78 -68 -18 -22 -49
-8 -107 50 -73 72 -85 71 -17 -2 37 -39 43 -50 28 -50 -25 0 -79 67 -87 106
-5 26 -1 36 24 60 34 33 37 44 9 44 -11 0 -20 -4 -20 -10 0 -5 -9 -10 -20 -10
-11 0 -20 -5 -20 -11 0 -5 4 -8 9 -4 5 3 12 1 16 -5 4 -6 -6 -10 -24 -10 -17
0 -31 4 -31 9 0 25 15 41 39 42 24 0 25 1 5 9 -12 5 -25 13 -29 19 -12 20 54
11 143 -19z m50 -237 l72 -5 0 -164 c0 -151 -1 -164 -19 -174 -11 -5 -26 -7
-34 -5 -9 4 -14 -1 -14 -12 1 -59 -4 -72 -25 -76 -20 -4 -19 -4 5 -6 19 -1 27
-6 27 -20 0 -11 -6 -22 -12 -24 -7 -3 -3 -6 10 -6 16 -1 22 -7 22 -25 0 -16 7
-27 20 -31 11 -3 20 -13 20 -21 0 -18 0 -18 -70 11 -33 14 -75 25 -94 25 -43
0 -86 -18 -86 -37 0 -7 -4 -13 -10 -13 -5 0 -10 -5 -10 -11 0 -6 9 -8 20 -4
22 7 23 5 14 -19 -3 -9 -14 -16 -23 -16 -12 0 -13 -2 -4 -8 10 -6 10 -12 -2
-28 -16 -22 -16 -21 -16 71 0 72 0 75 15 75 8 0 18 5 22 12 5 8 0 9 -14 6 -20
-6 -22 -2 -22 33 0 37 2 39 33 41 l32 1 -32 4 c-35 4 -47 33 -15 33 9 0 24 5
32 11 12 8 8 10 -17 7 -26 -4 -33 -1 -35 16 -6 39 4 66 23 66 11 0 19 4 19 10
0 5 -10 9 -22 7 -20 -2 -23 3 -26 41 -3 40 -2 42 25 43 l28 2 -27 4 c-28 4
-28 5 -28 77 0 57 4 76 18 88 26 23 74 38 102 32 14 -3 58 -8 98 -11z m102
-157 c0 -99 -4 -167 -10 -171 -7 -4 -10 53 -10 164 0 107 4 171 10 171 6 0 10
-61 10 -164z m-700 -102 c0 -167 -3 -253 -10 -249 -14 8 -14 505 0 505 6 0 10
-92 10 -256z m30 121 c0 -74 -3 -135 -7 -135 -5 0 -7 61 -5 135 2 74 5 135 8
135 2 0 4 -61 4 -135z m27 -52 c-2 -37 -3 -9 -3 62 0 72 1 102 3 68 2 -34 2
-93 0 -130z m673 22 c0 -103 -4 -165 -10 -165 -6 0 -10 49 -10 128 0 116 7
202 16 202 2 0 4 -74 4 -165z m30 -26 c0 -124 -3 -188 -10 -184 -6 4 -10 78
-10 191 0 116 4 184 10 184 6 0 10 -70 10 -191z m49 -88 c-1 -48 -12 -84 -26
-88 -9 -3 -12 15 -12 64 1 37 3 71 6 76 11 18 33 -18 32 -52z m-788 -147 c-1
-49 -4 -90 -6 -93 -3 -2 -5 40 -5 94 0 54 3 96 6 92 4 -3 6 -45 5 -93z m689
61 c0 -21 -5 -25 -28 -25 -15 0 -38 -7 -50 -16 -17 -11 -22 -12 -22 -2 0 18
11 31 40 51 36 25 60 22 60 -8z m-654 -71 c-6 -103 -16 -106 -16 -6 0 48 4 82
10 82 6 0 8 -29 6 -76z m614 -4 c0 -33 -4 -40 -19 -40 -29 0 -35 30 -10 57 13
12 24 23 26 23 2 0 3 -18 3 -40z m30 5 c0 -19 -4 -35 -10 -35 -5 0 -10 16 -10
35 0 19 5 35 10 35 6 0 10 -16 10 -35z m30 0 c0 -14 -4 -25 -10 -25 -5 0 -10
11 -10 25 0 14 5 25 10 25 6 0 10 -11 10 -25z m30 -10 c0 -8 -4 -15 -10 -15
-5 0 -10 7 -10 15 0 8 5 15 10 15 6 0 10 -7 10 -15z m39 -16 c7 -19 0 -26 -48
-51 -62 -33 -104 -34 -109 -3 -2 17 6 22 50 33 30 6 61 12 70 12 11 0 15 5 12
15 -4 8 -1 15 5 15 7 0 15 -10 20 -21z m25 -62 c9 -15 7 -21 -8 -33 -31 -22
-46 -17 -46 14 0 16 3 32 7 36 11 11 35 2 47 -17z m-721 -24 c62 -32 106 -76
141 -143 43 -81 84 -105 183 -105 56 0 66 3 89 28 25 27 27 27 45 11 23 -21
24 -52 3 -83 -13 -18 -14 -25 -4 -31 8 -5 9 -15 4 -31 -4 -13 -7 -27 -6 -32 5
-19 -175 -62 -222 -53 -17 3 -61 16 -98 28 l-66 21 3 40 c5 49 10 54 32 34 35
-31 117 -59 171 -59 69 0 147 19 164 40 14 17 17 18 -52 -11 -19 -8 -64 -15
-100 -16 -54 -2 -75 3 -120 26 -55 28 -61 35 -157 187 -23 38 -77 65 -142 73
-44 5 -51 9 -51 27 0 32 21 54 55 59 65 9 97 6 128 -10z m657 -3 c0 -11 -4
-20 -10 -20 -5 0 -10 9 -10 20 0 11 5 20 10 20 6 0 10 -9 10 -20z m-172 -15
c99 -34 219 -30 248 9 15 22 21 20 28 -9 9 -34 -17 -81 -54 -100 -45 -23 -146
-29 -205 -12 -129 38 -153 50 -159 82 -5 22 -2 33 11 42 24 19 51 16 131 -12z
m107 6 c3 -5 1 -12 -5 -16 -5 -3 -10 1 -10 9 0 18 6 21 15 7z m35 0 c0 -6 -4
-13 -10 -16 -5 -3 -10 1 -10 9 0 9 5 16 10 16 6 0 10 -4 10 -9z m-765 -95 c0
-25 -16 -30 -39 -13 -24 17 -12 39 17 35 14 -2 22 -10 22 -22z m35 -20 c0 -19
6 -36 13 -39 6 -2 9 -8 5 -12 -4 -4 -14 -5 -23 -2 -17 7 -22 87 -5 87 6 0 10
-15 10 -34z m26 -1 c1 -8 -2 -15 -7 -15 -5 0 -9 10 -9 22 0 23 12 17 16 -7z
m462 0 c2 -11 11 -28 19 -37 14 -16 14 -18 -2 -24 -36 -14 -94 37 -82 70 10
25 61 17 65 -9z m-559 -3 c23 -14 27 -21 20 -35 -15 -25 -44 -21 -57 8 -23 49
-12 57 37 27z m141 8 c0 -5 -4 -10 -9 -10 -6 0 -13 5 -16 10 -3 6 1 10 9 10 9
0 16 -4 16 -10z m235 -10 c3 -5 -1 -10 -10 -10 -9 0 -13 5 -10 10 3 6 8 10 10
10 2 0 7 -4 10 -10z m40 -10 c3 -5 -1 -10 -9 -10 -9 0 -16 5 -16 10 0 6 4 10
9 10 6 0 13 -4 16 -10z m-252 -7 c-7 -2 -19 -2 -25 0 -7 3 -2 5 12 5 14 0 19
-2 13 -5z m495 0 c-15 -2 -42 -2 -60 0 -18 2 -6 4 27 4 33 0 48 -2 33 -4z
m-182 -15 c11 -18 -25 -39 -48 -27 -15 8 -17 13 -7 25 14 17 45 18 55 2z m354
-3 c0 -12 -18 -15 -105 -15 -133 0 -139 18 -7 23 53 1 100 4 105 5 4 1 7 -5 7
-13z m-768 -25 c16 0 19 -5 16 -25 -3 -14 -2 -25 2 -25 4 0 11 11 14 25 6 22
12 25 54 25 44 0 48 -2 74 -43 18 -29 25 -50 21 -69 -6 -33 -3 -32 -39 -13
-37 19 -53 19 -60 0 -8 -20 -25 -10 -102 59 l-62 55 28 13 c15 8 29 10 30 6 2
-4 13 -8 24 -8z m378 -20 c0 -17 -14 -18 -46 -3 -46 22 -43 33 6 21 22 -6 40
-14 40 -18z m128 5 c14 -13 -33 -35 -75 -35 -36 0 -43 3 -43 19 0 11 8 22 18
25 21 6 91 0 100 -9z m-368 -120 c36 -19 37 -28 5 -49 -13 -9 -30 -34 -36 -56
-12 -41 -29 -54 -29 -22 0 9 7 30 16 47 10 19 13 42 9 62 -7 38 -5 39 35 18z
m510 -15 c0 -25 -24 -47 -46 -42 -30 5 -30 16 -2 36 26 18 48 21 48 6z m-399
-81 c112 -37 160 -36 299 5 66 20 70 20 70 1 0 -8 9 -35 21 -60 24 -50 20 -61
-27 -81 -95 -40 -240 -53 -364 -34 -137 22 -159 40 -140 113 11 38 35 87 44
87 2 0 46 -14 97 -31z m413 -25 c11 -28 6 -39 -9 -20 -8 11 -15 23 -15 28 0
14 18 9 24 -8z"/>
<path d="M846 1646 c-6 -20 -7 -20 -20 -3 -7 9 -21 17 -31 17 -17 0 -17 -2 2
-22 11 -13 24 -33 28 -45 3 -13 11 -23 16 -23 5 0 9 10 9 23 0 12 7 31 15 41
19 25 19 33 1 33 -8 0 -17 -10 -20 -21z"/>
<path d="M683 1639 c-34 -10 -47 -31 -14 -22 15 4 22 -3 31 -31 21 -66 35 -36
14 32 -2 7 5 12 16 12 11 0 20 5 20 10 0 12 -23 12 -67 -1z"/>
<path d="M1066 1614 c-33 -33 -5 -84 47 -84 29 0 38 10 42 46 4 44 -57 71 -89
38z m63 -18 c17 -20 2 -46 -25 -46 -29 0 -41 24 -24 45 16 19 34 19 49 1z"/>
<path d="M962 1609 c2 -6 8 -10 13 -10 5 0 11 4 13 10 2 6 -4 11 -13 11 -9 0
-15 -5 -13 -11z"/>
<path d="M588 1604 c-4 -3 0 -17 8 -32 8 -15 14 -34 14 -44 0 -11 6 -15 18
-11 17 4 17 7 -2 49 -21 43 -27 50 -38 38z"/>
<path d="M1188 1544 c-18 -29 -23 -46 -16 -50 6 -4 16 0 23 9 7 10 20 14 33
10 13 -3 22 -1 22 6 0 6 -7 11 -15 11 -8 0 -15 5 -15 10 0 13 16 13 41 0 33
-18 21 7 -14 27 l-32 20 -27 -43z"/>
<path d="M502 1560 c-55 -34 -29 -70 32 -45 27 12 16 -17 -12 -30 -29 -13 -28
-28 1 -20 28 9 57 42 51 59 -4 10 -15 12 -42 5 -20 -4 -38 -6 -40 -4 -7 7 9
25 23 25 7 0 15 7 19 15 7 19 8 19 -32 -5z"/>
<path d="M369 1467 l-26 -24 34 -37 c27 -29 38 -35 47 -26 8 9 8 14 -1 17 -7
3 -13 11 -13 19 0 17 5 17 30 4 13 -7 21 -6 30 5 10 12 9 15 -8 15 -14 0 -22
8 -24 23 -4 30 -37 32 -69 4z m45 -6 c7 -10 -22 -37 -30 -28 -9 8 3 37 15 37
5 0 12 -4 15 -9z"/>
<path d="M1320 1455 c0 -9 5 -15 11 -13 6 2 11 8 11 13 0 5 -5 11 -11 13 -6 2
-11 -4 -11 -13z"/>
<path d="M679 1412 c-30 -15 -95 -44 -142 -66 -48 -21 -86 -41 -83 -43 2 -2
50 17 107 42 156 70 206 94 189 94 -8 0 -40 -13 -71 -27z"/>
<path d="M1386 1394 c-24 -24 -20 -61 9 -80 33 -22 45 -10 15 14 -25 21 -22
48 6 59 11 4 24 -2 36 -17 10 -12 21 -21 23 -18 3 3 -4 17 -16 31 -23 30 -50
34 -73 11z"/>
<path d="M281 1369 l-23 -31 34 -29 c18 -15 36 -28 40 -29 11 0 57 64 51 73
-3 5 -12 -2 -21 -15 -8 -13 -17 -25 -18 -27 -1 -1 -8 0 -14 4 -8 5 -8 11 1 21
15 18 3 32 -13 16 -21 -21 -31 -13 -14 13 30 46 11 50 -23 4z"/>
<path d="M730 1335 c-36 -37 -63 -55 -84 -58 -31 -4 -30 -4 4 -5 40 -2 41 -2
99 61 63 66 46 68 -19 2z"/>
<path d="M760 1311 c-12 -17 -17 -31 -12 -31 12 0 46 50 39 56 -3 3 -15 -9
-27 -25z"/>
<path d="M792 1295 c-11 -12 -10 -15 3 -15 8 0 15 7 15 15 0 18 -2 18 -18 0z"/>
<path d="M227 1283 c-4 -6 2 -18 13 -28 30 -27 24 -38 -15 -32 -25 4 -35 2
-35 -8 0 -18 101 -25 107 -8 6 16 -62 89 -70 76z"/>
<path d="M1468 1283 c-24 -3 -38 -9 -38 -18 0 -8 6 -12 14 -9 8 3 19 -3 25
-14 8 -15 8 -22 -2 -25 -8 -3 -9 -8 -1 -16 8 -8 19 -1 43 29 31 38 34 62 8 58
-7 -1 -29 -3 -49 -5z m32 -28 c-7 -9 -15 -13 -17 -11 -7 7 7 26 19 26 6 0 6
-6 -2 -15z"/>
<path d="M617 1213 c-4 -3 -7 -24 -7 -45 0 -37 1 -38 35 -38 27 0 35 4 34 18
0 10 -3 12 -6 5 -6 -15 -33 -17 -33 -3 0 6 5 10 11 10 7 0 9 10 5 25 -6 25 8
36 17 13 3 -8 6 -6 6 5 1 12 -7 17 -27 17 -16 0 -32 -3 -35 -7z m23 -25 c0
-16 -3 -19 -11 -11 -6 6 -8 16 -5 22 11 17 16 13 16 -11z"/>
<path d="M708 1213 c6 -2 18 -2 25 0 6 3 1 5 -13 5 -14 0 -19 -2 -12 -5z"/>
<path d="M820 1200 c20 -13 33 -13 25 0 -3 6 -14 10 -23 10 -15 0 -15 -2 -2
-10z"/>
<path d="M1523 1173 l-43 -15 15 -35 c8 -19 15 -37 15 -40 0 -2 5 -1 10 2 7 4
7 12 0 25 -16 31 -12 39 25 46 20 3 35 12 35 20 0 17 -3 17 -57 -3z"/>
<path d="M738 1163 c6 -2 18 -2 25 0 6 3 1 5 -13 5 -14 0 -19 -2 -12 -5z"/>
<path d="M167 1147 c-3 -7 15 -18 44 -28 45 -14 48 -14 53 4 2 10 2 17 0 14
-3 -3 -25 1 -49 8 -33 10 -45 11 -48 2z"/>
<path d="M708 1123 c7 -3 16 -2 19 1 4 3 -2 6 -13 5 -11 0 -14 -3 -6 -6z"/>
<path d="M805 1110 c27 -12 43 -12 25 0 -8 5 -22 9 -30 9 -10 0 -8 -3 5 -9z"/>
<path d="M140 1077 c0 -4 12 -13 28 -21 l27 -14 -26 -10 c-47 -18 -42 -37 12
-48 39 -9 49 -8 49 3 0 7 -11 13 -25 13 -34 0 -31 15 5 30 33 14 41 40 11 40
-10 0 -33 3 -50 6 -17 4 -31 4 -31 1z"/>
<path d="M770 1076 c0 -2 11 -6 25 -8 14 -3 25 -1 25 3 0 5 -11 9 -25 9 -14 0
-25 -2 -25 -4z"/>
<path d="M1581 1069 c-13 -5 -34 -10 -46 -11 -16 -2 -21 -7 -17 -21 3 -10 8
-15 11 -10 7 9 22 13 61 16 20 2 26 6 22 20 -2 9 -5 17 -6 16 0 0 -12 -5 -25
-10z"/>
<path d="M633 1033 c9 -2 25 -2 35 0 9 3 1 5 -18 5 -19 0 -27 -2 -17 -5z"/>
<path d="M810 1025 c14 -8 30 -14 35 -14 6 0 -1 6 -15 14 -14 8 -29 14 -35 14
-5 0 1 -6 15 -14z"/>
<path d="M620 996 c0 -2 11 -6 25 -8 14 -3 25 -1 25 3 0 5 -11 9 -25 9 -14 0
-25 -2 -25 -4z"/>
<path d="M690 992 c0 -4 9 -8 20 -8 11 0 20 4 20 8 0 4 -9 8 -20 8 -11 0 -20
-4 -20 -8z"/>
<path d="M1568 992 c-35 -2 -46 -7 -42 -17 3 -8 12 -11 20 -8 10 4 17 -2 21
-16 7 -27 23 -28 23 -1 0 11 5 20 10 20 6 0 10 -13 10 -30 0 -16 5 -30 10 -30
11 0 11 21 1 60 -5 23 -10 25 -53 22z"/>
<path d="M790 986 c0 -2 11 -6 25 -8 13 -3 22 -1 19 3 -5 9 -44 13 -44 5z"/>
<path d="M628 943 c12 -2 30 -2 40 0 9 3 -1 5 -23 4 -22 0 -30 -2 -17 -4z"/>
<path d="M143 934 c-27 -11 -11 -24 28 -24 36 0 40 -2 37 -22 -2 -19 -9 -23
-41 -23 -27 0 -37 -4 -37 -16 0 -12 8 -14 41 -10 51 7 67 28 53 68 -7 21 -16
28 -39 30 -17 1 -36 0 -42 -3z"/>
<path d="M800 936 c0 -2 11 -6 25 -8 13 -3 22 -1 19 3 -5 9 -44 13 -44 5z"/>
<path d="M633 893 c9 -2 25 -2 35 0 9 3 1 5 -18 5 -19 0 -27 -2 -17 -5z"/>
<path d="M718 893 c7 -3 16 -2 19 1 4 3 -2 6 -13 5 -11 0 -14 -3 -6 -6z"/>
<path d="M805 890 c27 -12 43 -12 25 0 -8 5 -22 9 -30 9 -10 0 -8 -3 5 -9z"/>
<path d="M1541 866 c-7 -8 -11 -30 -9 -48 3 -31 5 -33 43 -33 38 0 40 2 43 33
4 39 -12 62 -43 62 -12 0 -28 -6 -34 -14z m63 -29 c9 -15 7 -21 -8 -32 -35
-26 -74 13 -44 43 16 16 38 12 52 -11z"/>
<path d="M620 850 c0 -5 16 -10 35 -10 19 0 35 5 35 10 0 6 -16 10 -35 10 -19
0 -35 -4 -35 -10z"/>
<path d="M710 850 c0 -5 5 -10 11 -10 5 0 7 5 4 10 -3 6 -8 10 -11 10 -2 0 -4
-4 -4 -10z"/>
<path d="M750 848 c0 -4 14 -8 30 -8 17 0 30 2 30 4 0 2 -13 6 -30 8 -16 3
-30 1 -30 -4z"/>
<path d="M638 803 c12 -2 30 -2 40 0 9 3 -1 5 -23 4 -22 0 -30 -2 -17 -4z"/>
<path d="M750 800 c0 -5 15 -10 33 -10 24 0 28 3 17 10 -20 13 -50 13 -50 0z"/>
<path d="M187 773 c-12 -11 -8 -23 8 -23 8 0 15 7 15 15 0 16 -12 20 -23 8z"/>
<path d="M638 763 c12 -2 30 -2 40 0 9 3 -1 5 -23 4 -22 0 -30 -2 -17 -4z"/>
<path d="M748 753 c6 -2 18 -2 25 0 6 3 1 5 -13 5 -14 0 -19 -2 -12 -5z"/>
<path d="M820 740 c8 -5 20 -10 25 -10 6 0 3 5 -5 10 -8 5 -19 10 -25 10 -5 0
-3 -5 5 -10z"/>
<path d="M1506 735 c-2 -7 4 -15 16 -18 24 -7 15 -27 -12 -27 -10 0 -21 -7
-24 -16 -5 -13 -1 -15 19 -10 18 5 25 2 25 -9 0 -18 33 -20 48 -2 6 6 13 24
17 38 6 24 3 28 -38 42 -37 12 -46 13 -51 2z m67 -55 c-5 -20 -15 -25 -26 -14
-9 9 4 34 18 34 8 0 11 -8 8 -20z"/>
<path d="M773 713 c9 -2 25 -2 35 0 9 3 1 5 -18 5 -19 0 -27 -2 -17 -5z"/>
<path d="M258 685 c-4 -4 -2 -18 4 -31 8 -18 8 -28 1 -35 -8 -8 -13 -5 -18 10
-3 12 -11 19 -16 15 -6 -4 -6 -11 2 -20 6 -8 9 -18 5 -22 -7 -7 -31 19 -39 42
-2 6 -7 8 -11 5 -4 -4 0 -25 9 -47 l16 -40 42 22 c23 11 43 21 45 22 1 1 -6
20 -15 43 -10 23 -21 39 -25 36z"/>
<path d="M770 676 c0 -2 13 -6 29 -8 17 -2 28 -1 25 4 -5 8 -54 12 -54 4z"/>
<path d="M1456 615 c-2 -7 7 -18 21 -24 31 -14 27 -20 -17 -24 -18 -1 -35 -7
-37 -13 -5 -16 77 -58 89 -46 7 7 3 12 -11 17 -31 9 -26 25 8 25 47 0 46 26
-4 53 -32 18 -45 22 -49 12z"/>
<path d="M277 543 c-25 -17 -34 -30 -28 -36 7 -7 15 -6 25 2 12 10 17 9 25 -8
14 -26 14 -31 -4 -31 -8 0 -15 -4 -15 -9 0 -23 22 -20 60 8 24 17 36 32 30 36
-6 4 -18 1 -27 -6 -13 -11 -17 -10 -29 6 -13 17 -12 21 6 35 12 9 18 19 14 23
-11 10 -15 9 -57 -20z"/>
<path d="M1384 499 c-4 -7 1 -18 12 -26 10 -7 27 -20 37 -28 22 -19 43 -10 26
11 -26 31 -67 55 -75 43z"/>
<path d="M1347 463 c-4 -6 -4 -18 -1 -27 5 -12 -2 -18 -25 -22 -17 -4 -33 -9
-35 -13 -2 -3 18 -16 45 -28 63 -28 74 -15 44 51 -12 27 -25 45 -28 39z m21
-71 c2 -7 -2 -10 -12 -6 -9 3 -16 11 -16 16 0 13 23 5 28 -10z"/>
<path d="M395 420 c-26 -27 -31 -29 -41 -15 -9 12 -14 13 -19 4 -5 -7 7 -25
28 -45 22 -19 39 -28 43 -22 4 6 0 14 -7 19 -11 6 -7 15 16 39 19 20 26 33 19
40 -7 7 -20 0 -39 -20z"/>
<path d="M460 330 c0 -5 7 -10 15 -10 8 0 15 5 15 10 0 6 -7 10 -15 10 -8 0
-15 -4 -15 -10z"/>
<path d="M1240 325 c0 -9 5 -15 11 -13 6 2 11 8 11 13 0 5 -5 11 -11 13 -6 2
-11 -4 -11 -13z"/>
<path d="M1020 1460 c0 -6 26 -10 57 -10 68 0 67 5 -4 13 -31 4 -53 2 -53 -3z"/>
<path d="M1080 1398 c105 -50 220 -98 220 -93 0 9 -284 136 -299 134 -3 0 32
-19 79 -41z"/>
<path d="M918 1203 c7 -3 16 -2 19 1 4 3 -2 6 -13 5 -11 0 -14 -3 -6 -6z"/>
<path d="M1028 1203 c7 -3 16 -2 19 1 4 3 -2 6 -13 5 -11 0 -14 -3 -6 -6z"/>
<path d="M1070 1206 c0 -2 7 -6 15 -10 8 -3 15 -1 15 4 0 6 -7 10 -15 10 -8 0
-15 -2 -15 -4z"/>
<path d="M905 1160 c-4 -7 3 -8 22 -4 38 9 42 14 10 14 -14 0 -29 -5 -32 -10z"/>
<path d="M1068 1153 c7 -3 16 -2 19 1 4 3 -2 6 -13 5 -11 0 -14 -3 -6 -6z"/>
<path d="M910 1121 c0 -4 11 -6 25 -3 14 2 25 6 25 8 0 2 -11 4 -25 4 -14 0
-25 -4 -25 -9z"/>
<path d="M1018 1113 c7 -3 16 -2 19 1 4 3 -2 6 -13 5 -11 0 -14 -3 -6 -6z"/>
<path d="M1058 1113 c7 -3 16 -2 19 1 4 3 -2 6 -13 5 -11 0 -14 -3 -6 -6z"/>
<path d="M1108 1113 c6 -2 18 -2 25 0 6 3 1 5 -13 5 -14 0 -19 -2 -12 -5z"/>
<path d="M1035 1070 c4 -6 11 -8 16 -5 14 9 11 15 -7 15 -8 0 -12 -5 -9 -10z"/>
<path d="M1088 1073 c7 -3 16 -2 19 1 4 3 -2 6 -13 5 -11 0 -14 -3 -6 -6z"/>
<path d="M904 1028 c-3 -4 4 -8 15 -8 12 0 21 4 21 8 0 5 -7 9 -15 9 -9 0 -18
-4 -21 -9z"/>
<path d="M968 1033 c7 -3 16 -2 19 1 4 3 -2 6 -13 5 -11 0 -14 -3 -6 -6z"/>
<path d="M1010 1030 c0 -5 5 -10 11 -10 5 0 7 5 4 10 -3 6 -8 10 -11 10 -2 0
-4 -4 -4 -10z"/>
<path d="M1103 1023 c9 -2 23 -2 30 0 6 3 -1 5 -18 5 -16 0 -22 -2 -12 -5z"/>
<path d="M1008 973 c7 -3 16 -2 19 1 4 3 -2 6 -13 5 -11 0 -14 -3 -6 -6z"/>
<path d="M1098 963 c7 -3 16 -2 19 1 4 3 -2 6 -13 5 -11 0 -14 -3 -6 -6z"/>
<path d="M915 930 c-4 -6 5 -10 20 -10 15 0 24 4 20 10 -3 6 -12 10 -20 10 -8
0 -17 -4 -20 -10z"/>
<path d="M980 930 c0 -5 5 -10 11 -10 5 0 7 5 4 10 -3 6 -8 10 -11 10 -2 0 -4
-4 -4 -10z"/>
<path d="M1028 923 c7 -3 16 -2 19 1 4 3 -2 6 -13 5 -11 0 -14 -3 -6 -6z"/>
<path d="M980 886 c0 -2 7 -6 15 -10 8 -3 15 -1 15 4 0 6 -7 10 -15 10 -8 0
-15 -2 -15 -4z"/>
<path d="M1018 833 c7 -3 16 -2 19 1 4 3 -2 6 -13 5 -11 0 -14 -3 -6 -6z"/>
<path d="M918 793 c6 -2 18 -2 25 0 6 3 1 5 -13 5 -14 0 -19 -2 -12 -5z"/>
<path d="M1065 780 c3 -5 8 -10 11 -10 2 0 4 5 4 10 0 6 -5 10 -11 10 -5 0 -7
-4 -4 -10z"/>
<path d="M1105 740 c-3 -5 1 -10 10 -10 9 0 13 5 10 10 -3 6 -8 10 -10 10 -2
0 -7 -4 -10 -10z"/>
<path d="M539 683 c-8 -22 -7 -30 7 -40 22 -16 31 -9 15 11 -7 8 -10 24 -6 36
10 30 -4 24 -16 -7z"/>
<path d="M597 656 c-14 -21 -15 -26 -1 -37 8 -6 18 -9 21 -5 4 4 1 11 -6 15
-9 6 -5 10 14 15 14 4 25 12 22 19 -7 22 -34 18 -50 -7z"/>
<path d="M664 635 c3 -8 -4 -21 -15 -29 -11 -8 -16 -17 -11 -20 5 -3 15 1 22
9 7 8 19 15 26 15 12 0 12 4 2 20 -15 23 -33 27 -24 5z"/>
<path d="M720 557 c0 -8 -10 -19 -22 -25 -21 -9 -19 -10 15 -9 26 2 36 6 32
15 -3 8 -5 18 -5 23 0 5 -4 9 -10 9 -5 0 -10 -6 -10 -13z"/>
<path d="M719 489 c-19 -16 -20 -19 -6 -15 15 5 17 2 12 -15 -7 -21 -7 -21 24
-3 32 19 43 41 15 30 -12 -4 -15 -2 -10 9 8 21 -8 19 -35 -6z"/>
<path d="M764 444 c-15 -22 -15 -27 -3 -35 20 -13 29 -11 23 5 -3 7 2 16 12
20 14 5 16 2 11 -24 -6 -29 6 -42 16 -17 3 6 6 3 6 -8 1 -17 4 -15 16 9 20 39
20 40 -20 59 -45 21 -41 22 -61 -9z"/>
<path d="M1004 456 c-8 -21 15 -58 33 -54 9 2 18 9 21 17 3 10 0 12 -11 8 -12
-4 -14 0 -11 19 3 17 0 24 -11 24 -9 0 -18 -6 -21 -14z"/>
<path d="M875 427 c-15 -51 -13 -57 13 -57 15 0 23 4 17 8 -12 8 -16 44 -5 37
5 -3 11 -1 14 4 3 5 -3 11 -15 14 -11 3 -22 0 -24 -6z"/>
<path d="M952 406 c8 -26 15 -32 29 -29 34 9 20 63 -16 63 -22 0 -22 -2 -13
-34z"/>
<path d="M1020 697 c0 -1 -4 -17 -9 -35 -9 -30 -8 -32 17 -32 22 1 24 2 11 10
-11 6 -15 18 -11 35 2 14 2 25 -2 25 -3 0 -6 -1 -6 -3z"/>
<path d="M1071 650 c-5 -16 -6 -30 -1 -30 4 0 13 14 19 30 5 17 6 30 1 30 -4
0 -13 -13 -19 -30z"/>
<path d="M1105 640 c-3 -11 -3 -24 0 -30 10 -16 45 -12 45 6 0 11 -6 15 -19
11 -14 -3 -18 -1 -14 10 3 8 12 12 19 9 8 -3 14 -1 14 4 0 19 -39 10 -45 -10z"/>
<path d="M1254 652 c-8 -5 -7 -16 2 -37 11 -25 13 -27 14 -8 0 12 3 28 6 37 6
17 -4 21 -22 8z"/>
<path d="M1170 620 c0 -32 16 -41 23 -12 4 16 5 16 6 0 2 -32 21 -19 21 15 0
25 -3 29 -11 17 -8 -11 -12 -12 -16 -2 -9 23 -23 12 -23 -18z"/>
<path d="M706 248 c-3 -7 -4 -20 -4 -28 1 -8 -2 -25 -6 -37 -5 -17 -3 -23 7
-23 8 0 17 12 21 28 3 15 8 37 12 50 5 16 2 22 -10 22 -9 0 -18 -6 -20 -12z"/>
<path d="M987 248 c-13 -10 -15 -22 -11 -50 6 -33 10 -38 33 -38 15 0 36 6 47
14 16 13 17 18 7 35 -7 12 -13 28 -13 36 0 18 -39 20 -63 3z m43 -18 c0 -5 -9
-10 -21 -10 -11 0 -17 5 -14 10 3 6 13 10 21 10 8 0 14 -4 14 -10z m10 -35 c0
-8 -9 -15 -20 -15 -22 0 -27 15 -7 23 21 9 27 7 27 -8z"/>
<path d="M1080 235 c0 -8 7 -15 15 -15 8 0 15 7 15 15 0 8 -7 15 -15 15 -8 0
-15 -7 -15 -15z"/>
<path d="M642 228 c6 -18 28 -21 28 -4 0 9 -7 16 -16 16 -9 0 -14 -5 -12 -12z"/>
<path d="M778 233 c-3 -4 -4 -24 -4 -43 1 -34 2 -35 41 -35 l40 0 0 40 c0 39
-1 40 -37 43 -20 2 -38 -1 -40 -5z m57 -13 c3 -5 -3 -10 -14 -10 -12 0 -21 5
-21 10 0 6 6 10 14 10 8 0 18 -4 21 -10z m-5 -46 c0 -9 -7 -14 -17 -12 -25 5
-28 28 -4 28 12 0 21 -6 21 -16z"/>
<path d="M880 221 c-16 -31 -12 -59 11 -72 28 -15 69 3 69 30 0 21 -32 37 -51
25 -7 -4 -10 -1 -7 7 3 8 15 13 27 12 11 -2 21 2 21 7 0 19 -59 11 -70 -9z
m53 -46 c1 -5 -6 -11 -15 -13 -11 -2 -18 3 -18 13 0 17 30 18 33 0z"/>
<path d="M522 1698 c6 -18 28 -21 28 -4 0 9 -7 16 -16 16 -9 0 -14 -5 -12 -12z"/>
<path d="M1225 1700 c-4 -6 -3 -16 3 -22 6 -6 12 -6 17 2 4 6 3 16 -3 22 -6 6
-12 6 -17 -2z"/>
<path d="M470 1675 c0 -9 5 -15 11 -13 6 2 11 8 11 13 0 5 -5 11 -11 13 -6 2
-11 -4 -11 -13z"/>
<path d="M1270 1665 c0 -8 7 -15 15 -15 8 0 15 7 15 15 0 8 -7 15 -15 15 -8 0
-15 -7 -15 -15z"/>
<path d="M420 1645 c0 -9 5 -15 11 -13 6 2 11 8 11 13 0 5 -5 11 -11 13 -6 2
-11 -4 -11 -13z"/>
<path d="M1325 1640 c-8 -13 4 -32 16 -25 12 8 12 35 0 35 -6 0 -13 -4 -16
-10z"/>
<path d="M370 1616 c0 -9 7 -16 16 -16 9 0 14 5 12 12 -6 18 -28 21 -28 4z"/>
<path d="M1375 1610 c-4 -6 -3 -16 3 -22 6 -6 12 -6 17 2 4 6 3 16 -3 22 -6 6
-12 6 -17 -2z"/>
<path d="M320 1575 c0 -8 7 -15 15 -15 8 0 15 7 15 15 0 8 -7 15 -15 15 -8 0
-15 -7 -15 -15z"/>
<path d="M1416 1565 c-3 -9 0 -15 9 -15 8 0 15 7 15 15 0 8 -4 15 -9 15 -5 0
-11 -7 -15 -15z"/>
<path d="M272 1538 c6 -18 28 -21 28 -4 0 9 -7 16 -16 16 -9 0 -14 -5 -12 -12z"/>
<path d="M1462 1519 c2 -6 8 -10 13 -10 5 0 11 4 13 10 2 6 -4 11 -13 11 -9 0
-15 -5 -13 -11z"/>
<path d="M230 1495 c0 -8 7 -15 15 -15 8 0 15 7 15 15 0 8 -7 15 -15 15 -8 0
-15 -7 -15 -15z"/>
<path d="M1502 1479 c2 -6 8 -10 13 -10 5 0 11 4 13 10 2 6 -4 11 -13 11 -9 0
-15 -5 -13 -11z"/>
<path d="M197 1463 c-12 -11 -8 -23 8 -23 8 0 15 7 15 15 0 16 -12 20 -23 8z"/>
<path d="M1540 1436 c0 -9 7 -16 16 -16 17 0 14 22 -4 28 -7 2 -12 -3 -12 -12z"/>
<path d="M160 1406 c0 -9 7 -16 16 -16 17 0 14 22 -4 28 -7 2 -12 -3 -12 -12z"/>
<path d="M1575 1391 c-7 -12 12 -24 25 -16 11 7 4 25 -10 25 -5 0 -11 -4 -15
-9z"/>
<path d="M130 1356 c0 -9 7 -16 16 -16 17 0 14 22 -4 28 -7 2 -12 -3 -12 -12z"/>
<path d="M1605 1341 c-7 -12 12 -24 25 -16 11 7 4 25 -10 25 -5 0 -11 -4 -15
-9z"/>
<path d="M100 1306 c0 -9 7 -16 16 -16 17 0 14 22 -4 28 -7 2 -12 -3 -12 -12z"/>
<path d="M1635 1290 c-8 -13 4 -32 16 -25 12 8 12 35 0 35 -6 0 -13 -4 -16
-10z"/>
<path d="M72 1248 c6 -18 28 -21 28 -4 0 9 -7 16 -16 16 -9 0 -14 -5 -12 -12z"/>
<path d="M1660 1240 c-12 -7 -12 -12 -2 -22 9 -9 15 -9 24 0 16 16 -2 34 -22
22z"/>
<path d="M50 1195 c0 -8 7 -15 15 -15 8 0 15 7 15 15 0 8 -7 15 -15 15 -8 0
-15 -7 -15 -15z"/>
<path d="M1677 1184 c-13 -13 -7 -24 14 -24 11 0 19 5 17 12 -5 14 -22 21 -31
12z"/>
<path d="M30 1135 c0 -8 7 -15 15 -15 8 0 15 7 15 15 0 8 -7 15 -15 15 -8 0
-15 -7 -15 -15z"/>
<path d="M1697 1124 c-8 -8 1 -24 14 -24 5 0 9 7 9 15 0 15 -12 20 -23 9z"/>
<path d="M26 1093 c-11 -11 -6 -23 9 -23 8 0 15 4 15 9 0 13 -16 22 -24 14z"/>
<path d="M1705 1061 c-7 -12 12 -24 25 -16 11 7 4 25 -10 25 -5 0 -11 -4 -15
-9z"/>
<path d="M15 1030 c-4 -6 -3 -16 3 -22 6 -6 12 -6 17 2 4 6 3 16 -3 22 -6 6
-12 6 -17 -2z"/>
<path d="M1715 1010 c-7 -12 2 -30 16 -30 12 0 12 27 0 35 -5 3 -12 1 -16 -5z"/>
<path d="M7 973 c-12 -11 -8 -23 8 -23 8 0 15 7 15 15 0 16 -12 20 -23 8z"/>
<path d="M1720 934 c0 -17 22 -14 28 4 2 7 -3 12 -12 12 -9 0 -16 -7 -16 -16z"/>
<path d="M7 913 c-12 -11 -8 -23 8 -23 8 0 15 7 15 15 0 16 -12 20 -23 8z"/>
<path d="M1722 879 c2 -6 8 -10 13 -10 5 0 11 4 13 10 2 6 -4 11 -13 11 -9 0
-15 -5 -13 -11z"/>
<path d="M5 850 c-8 -13 4 -32 16 -25 12 8 12 35 0 35 -6 0 -13 -4 -16 -10z"/>
<path d="M1717 833 c-12 -11 -8 -23 8 -23 8 0 15 7 15 15 0 16 -12 20 -23 8z"/>
<path d="M10 785 c0 -8 7 -15 15 -15 8 0 15 7 15 15 0 8 -7 15 -15 15 -8 0
-15 -7 -15 -15z"/>
<path d="M1705 770 c-7 -12 2 -30 16 -30 5 0 9 9 9 20 0 21 -15 27 -25 10z"/>
<path d="M20 725 c0 -8 7 -15 15 -15 8 0 15 7 15 15 0 8 -7 15 -15 15 -8 0
-15 -7 -15 -15z"/>
<path d="M1690 705 c0 -8 7 -15 15 -15 8 0 15 7 15 15 0 8 -7 15 -15 15 -8 0
-15 -7 -15 -15z"/>
<path d="M37 674 c-8 -8 1 -24 14 -24 5 0 9 7 9 15 0 15 -12 20 -23 9z"/>
<path d="M1680 644 c0 -9 5 -14 12 -12 18 6 21 28 4 28 -9 0 -16 -7 -16 -16z"/>
<path d="M57 623 c-12 -11 -8 -23 8 -23 8 0 15 7 15 15 0 16 -12 20 -23 8z"/>
<path d="M1662 596 c1 -10 8 -17 13 -17 15 1 12 24 -3 29 -9 3 -13 -2 -10 -12z"/>
<path d="M80 554 c0 -17 22 -14 28 4 2 7 -3 12 -12 12 -9 0 -16 -7 -16 -16z"/>
<path d="M1635 541 c-7 -12 12 -24 25 -16 11 7 4 25 -10 25 -5 0 -11 -4 -15
-9z"/>
<path d="M107 513 c-12 -11 -8 -23 8 -23 8 0 15 7 15 15 0 16 -12 20 -23 8z"/>
<path d="M1605 490 c-3 -6 1 -13 10 -16 19 -8 30 0 20 15 -8 14 -22 14 -30 1z"/>
<path d="M137 463 c-12 -11 -8 -23 8 -23 8 0 15 7 15 15 0 16 -12 20 -23 8z"/>
<path d="M1575 441 c-7 -12 12 -24 25 -16 11 7 4 25 -10 25 -5 0 -11 -4 -15
-9z"/>
<path d="M167 413 c-12 -11 -8 -23 8 -23 8 0 15 7 15 15 0 16 -12 20 -23 8z"/>
<path d="M1540 385 c0 -8 7 -15 15 -15 8 0 15 7 15 15 0 8 -7 15 -15 15 -8 0
-15 -7 -15 -15z"/>
<path d="M200 355 c0 -8 7 -15 15 -15 8 0 15 7 15 15 0 8 -7 15 -15 15 -8 0
-15 -7 -15 -15z"/>
<path d="M1502 338 c6 -18 28 -21 28 -4 0 9 -7 16 -16 16 -9 0 -14 -5 -12 -12z"/>
<path d="M242 316 c1 -10 8 -17 13 -17 15 1 12 24 -3 29 -9 3 -13 -2 -10 -12z"/>
<path d="M1460 295 c0 -8 7 -15 15 -15 8 0 15 7 15 15 0 8 -7 15 -15 15 -8 0
-15 -7 -15 -15z"/>
<path d="M287 283 c-12 -11 -8 -23 8 -23 8 0 15 7 15 15 0 16 -12 20 -23 8z"/>
<path d="M1420 254 c0 -17 22 -14 28 4 2 7 -3 12 -12 12 -9 0 -16 -7 -16 -16z"/>
<path d="M330 236 c0 -9 7 -16 16 -16 17 0 14 22 -4 28 -7 2 -12 -3 -12 -12z"/>
<path d="M1372 218 c6 -18 28 -21 28 -4 0 9 -7 16 -16 16 -9 0 -14 -5 -12 -12z"/>
<path d="M375 201 c-7 -12 12 -24 25 -16 11 7 4 25 -10 25 -5 0 -11 -4 -15 -9z"/>
<path d="M1327 193 c-12 -11 -8 -23 8 -23 8 0 15 7 15 15 0 16 -12 20 -23 8z"/>
<path d="M425 171 c-7 -12 12 -24 25 -16 11 7 4 25 -10 25 -5 0 -11 -4 -15 -9z"/>
<path d="M1277 163 c-12 -11 -8 -23 8 -23 8 0 15 7 15 15 0 16 -12 20 -23 8z"/>
<path d="M480 135 c0 -8 7 -15 15 -15 8 0 15 7 15 15 0 8 -7 15 -15 15 -8 0
-15 -7 -15 -15z"/>
<path d="M1222 128 c6 -18 28 -21 28 -4 0 9 -7 16 -16 16 -9 0 -14 -5 -12 -12z"/>
<path d="M537 123 c-12 -11 -8 -23 8 -23 8 0 15 7 15 15 0 16 -12 20 -23 8z"/>
<path d="M1170 105 c0 -8 7 -15 15 -15 8 0 15 7 15 15 0 8 -7 15 -15 15 -8 0
-15 -7 -15 -15z"/>
<path d="M590 96 c0 -9 7 -16 16 -16 9 0 14 5 12 12 -6 18 -28 21 -28 4z"/>
<path d="M1110 85 c0 -8 7 -15 15 -15 8 0 15 7 15 15 0 8 -7 15 -15 15 -8 0
-15 -7 -15 -15z"/>
<path d="M645 81 c-7 -12 12 -24 25 -16 11 7 4 25 -10 25 -5 0 -11 -4 -15 -9z"/>
<path d="M700 66 c0 -9 7 -16 16 -16 9 0 14 5 12 12 -6 18 -28 21 -28 4z"/>
<path d="M1052 68 c6 -18 28 -21 28 -4 0 9 -7 16 -16 16 -9 0 -14 -5 -12 -12z"/>
<path d="M760 56 c0 -9 7 -16 16 -16 9 0 14 5 12 12 -6 18 -28 21 -28 4z"/>
<path d="M824 56 c-4 -9 -4 -20 0 -23 3 -4 12 -1 18 5 9 9 9 15 0 24 -9 9 -13
7 -18 -6z"/>
<path d="M995 61 c-3 -5 -1 -12 5 -16 12 -7 30 2 30 16 0 12 -27 12 -35 0z"/>
<path d="M880 44 c0 -17 22 -14 28 4 2 7 -3 12 -12 12 -9 0 -16 -7 -16 -16z"/>
<path d="M942 49 c5 -14 21 -14 26 0 2 6 -4 11 -13 11 -9 0 -15 -5 -13 -11z"/>
</g>
</svg>
