<?xml version="1.0" standalone="no"?>
<!DOCTYPE svg PUBLIC "-//W3C//DTD SVG 20010904//EN"
 "http://www.w3.org/TR/2001/REC-SVG-20010904/DTD/svg10.dtd">
<svg version="1.0" xmlns="http://www.w3.org/2000/svg"
 width="200.000000pt" height="200.000000pt" viewBox="0 0 200.000000 200.000000"
 preserveAspectRatio="xMidYMid meet">

<g transform="translate(0.000000,200.000000) scale(0.100000,-0.100000)"
fill="#000000" stroke="none">
<path d="M0 1000 l0 -1000 1000 0 1000 0 0 1000 0 1000 -1000 0 -1000 0 0
-1000z m366 157 c17 -26 34 -50 37 -53 3 -4 22 19 42 50 33 52 39 57 68 54
l32 -3 3 -132 3 -133 -36 0 -35 0 0 63 -1 62 -22 -37 c-32 -54 -67 -53 -101 5
l-26 42 0 -67 0 -68 -30 0 -30 0 0 128 c0 71 3 132 7 136 20 20 59 -1 89 -47z
m440 -44 c25 -54 48 -115 51 -135 5 -37 5 -38 -26 -38 -24 0 -34 6 -43 25 -10
22 -17 25 -63 25 -45 0 -53 -3 -65 -25 -9 -18 -22 -25 -42 -25 -24 0 -28 4
-28 29 0 15 22 76 50 135 49 105 50 106 85 106 35 0 36 -1 81 -97z m251 -5
c89 -88 103 -107 103 -135 0 -29 -3 -33 -27 -33 -18 0 -40 13 -65 37 l-38 37
-38 -37 c-25 -24 -47 -37 -65 -37 -24 0 -27 4 -27 32 0 23 10 42 35 68 l35 36
-35 34 c-33 32 -46 75 -28 93 21 21 55 0 150 -95z m111 69 c5 -38 -11 -55 -47
-49 -22 3 -30 10 -34 30 -8 42 2 53 42 50 31 -3 36 -7 39 -31z m253 -72 c27
-58 49 -119 49 -135 0 -26 -4 -30 -28 -30 -20 0 -33 7 -42 25 -12 22 -20 25
-65 25 -46 0 -53 -3 -63 -25 -9 -19 -19 -25 -42 -25 -26 0 -30 4 -30 26 0 30
86 225 104 236 6 4 24 8 39 8 26 0 32 -8 78 -105z m269 87 c31 -15 35 -22 38
-61 3 -34 -2 -49 -19 -67 l-22 -24 21 -23 c12 -13 22 -35 22 -50 0 -46 -40
-36 -89 23 -23 28 -46 50 -52 50 -5 0 -9 -22 -9 -50 l0 -50 -35 0 -35 0 0 128
c0 71 3 132 7 135 14 15 138 7 173 -11z m-1048 -344 c-7 -7 -12 -20 -12 -30 0
-10 -4 -18 -10 -18 -5 0 -10 11 -10 24 0 13 -6 27 -12 29 -7 3 3 6 22 6 26 1
31 -2 22 -11z m66 5 c-10 -2 -18 -9 -18 -14 0 -5 8 -9 18 -10 14 0 14 -2 -3
-9 -17 -7 -17 -9 -2 -9 9 -1 17 -6 17 -12 0 -6 -10 -9 -22 -7 -18 2 -24 11
-26 36 -3 29 -1 32 25 31 17 -1 21 -3 11 -6z m88 -5 c5 -7 0 -9 -14 -6 -12 4
-23 0 -26 -8 -7 -18 8 -26 31 -17 16 6 16 5 4 -10 -17 -21 -25 -21 -45 -1 -12
12 -13 20 -6 35 12 21 45 26 56 7z m44 -3 c0 -8 5 -15 10 -15 6 0 10 7 10 15
0 8 5 15 10 15 6 0 10 -13 10 -29 0 -17 -4 -33 -10 -36 -5 -3 -10 1 -10 9 0 9
-4 16 -10 16 -5 0 -10 -7 -10 -15 0 -8 -4 -15 -10 -15 -5 0 -10 16 -10 35 0
19 5 35 10 35 6 0 10 -7 10 -15z m93 3 c4 -10 8 -9 16 2 8 12 11 6 11 -24 0
-38 0 -39 -20 -21 -11 10 -20 13 -20 7 0 -7 -4 -12 -10 -12 -5 0 -10 14 -10
30 0 31 23 43 33 18z m112 -17 c0 -34 -30 -51 -51 -29 -25 24 -10 60 24 56 21
-2 27 -8 27 -27z m45 5 c0 -13 6 -26 13 -29 6 -2 9 -8 5 -12 -4 -4 -14 -5 -23
-2 -17 7 -22 67 -5 67 6 0 10 -11 10 -24z m98 -7 c3 -28 -16 -43 -43 -33 -15
6 -21 45 -8 58 16 16 48 1 51 -25z m82 21 c0 -6 -8 -10 -17 -8 -10 2 -19 -4
-21 -14 -2 -10 2 -18 8 -18 6 0 8 5 5 10 -3 6 1 10 9 10 9 0 16 -8 16 -19 0
-12 -7 -18 -21 -17 -26 1 -45 27 -36 50 7 17 57 23 57 6z m50 -20 c0 -16 -4
-30 -10 -30 -5 0 -10 14 -10 30 0 17 5 30 10 30 6 0 10 -13 10 -30z m58 23
c-10 -2 -18 -9 -18 -14 0 -5 8 -9 18 -10 14 0 14 -2 -3 -9 -19 -8 -19 -9 0 -9
14 -1 16 -4 8 -12 -19 -19 -43 -2 -43 31 0 26 3 30 28 29 16 -1 20 -3 10 -6z
m88 -4 c4 -8 -1 -9 -17 -5 l-24 6 23 -11 c25 -14 29 -34 7 -43 -25 -9 -41 3
-39 32 1 15 2 28 3 30 4 7 41 0 47 -9z"/>
<path d="M711 1097 c-16 -41 -14 -47 14 -47 28 0 31 13 10 50 l-13 25 -11 -28z"/>
<path d="M1322 1095 c-18 -38 -15 -45 18 -45 28 0 29 1 18 28 -18 42 -24 45
-36 17z"/>
<path d="M1580 1125 c0 -22 4 -25 39 -25 22 0 43 5 46 10 12 19 -16 40 -51 40
-30 0 -34 -3 -34 -25z"/>
<path d="M1005 840 c-7 -12 2 -30 16 -30 12 0 12 27 0 35 -5 3 -12 1 -16 -5z"/>
<path d="M1150 831 c0 -12 5 -21 10 -21 6 0 10 6 10 14 0 8 -4 18 -10 21 -5 3
-10 -3 -10 -14z"/>
</g>
</svg>
